# 3ds Max Wavefront OBJ Exporter v0.99 - (c)2007 guruware
# File Created: 26.04.2025 21:09:48

mtllib Arco.mtl

#
# object Cube
#

v  6.1624 10.5763 -4.0089
v  6.1624 10.5763 -2.9863
v  10.7064 10.5763 -2.9863
v  10.7064 10.5763 -4.0089
v  10.7064 15.9690 -4.0089
v  10.7064 15.9690 -2.9863
v  6.1749 15.9690 -2.9863
v  6.1749 15.9690 -4.0089
v  -6.0930 15.9845 -4.0089
v  -6.0930 15.9845 -2.9863
v  -10.6655 15.9845 -2.9863
v  -10.6655 15.9845 -4.0089
v  -6.0888 10.5608 -4.0089
v  -6.0888 10.5608 -2.9863
v  -10.6655 10.5608 -4.0089
v  -10.6655 10.5608 -2.9863
v  -7.3593 11.8303 -2.9863
v  -9.3959 11.8303 -2.9863
v  -9.3959 14.7150 -2.9863
v  -7.3615 14.7150 -2.9863
v  7.4415 14.6994 -2.9863
v  9.4369 14.6994 -2.9863
v  9.4369 11.8458 -2.9863
v  7.4349 11.8458 -2.9863
v  -10.6437 10.5825 4.0570
v  -10.6437 10.5825 3.0169
v  -10.6437 15.9627 3.0169
v  -10.6437 15.9627 4.0570
v  6.1683 15.9772 4.0570
v  6.1683 15.9772 3.0169
v  10.7147 15.9772 3.0169
v  10.7147 15.9772 4.0570
v  -6.1155 15.9627 4.0570
v  -6.1155 15.9627 3.0169
v  -6.1107 10.5825 3.0169
v  -6.1107 10.5825 4.0570
v  10.7147 10.5680 3.0169
v  10.7147 10.5680 4.0570
v  7.3405 11.7511 3.0169
v  9.5316 11.7511 3.0169
v  9.5316 14.7941 3.0169
v  7.3483 14.7941 3.0169
v  -7.2976 14.7796 3.0169
v  -9.4606 14.7796 3.0169
v  -9.4606 11.7656 3.0169
v  -7.2949 11.7656 3.0169
v  5.1254 17.0228 4.0570
v  5.1062 9.5225 4.0570
v  6.1544 10.5680 4.0570
v  11.7602 17.0228 4.0570
v  11.7602 9.5225 4.0570
v  6.1544 10.5680 3.0169
v  -5.0497 9.5225 4.0570
v  -5.0517 11.7599 4.0570
v  -5.0565 17.0227 4.0570
v  -11.7037 17.0227 4.0570
v  -11.7037 9.5225 4.0570
v  5.1062 9.5225 -4.0089
v  5.1117 11.9208 -4.0089
v  5.1235 17.0228 -4.0089
v  11.7602 17.0228 -4.0089
v  11.7602 9.5225 -4.0089
v  -5.0555 17.0227 -4.0089
v  -5.0516 11.9713 -4.0089
v  -5.0497 9.5225 -4.0089
v  -11.7763 9.5225 -4.0796
v  -11.7763 17.0227 -4.0796
v  -11.7029 19.4307 4.0567
v  -11.9862 19.4315 4.4031
v  12.0441 19.5018 4.4013
v  11.7593 19.5017 4.0567
v  -5.0546 17.0201 -4.4966
v  -0.8660 17.0201 -4.4966
v  -0.8669 17.0227 -4.0089
v  -11.7642 19.4718 -4.0683
v  -12.0490 19.4707 -4.4128
v  4.7472 11.6598 -4.0089
v  4.7472 11.6598 4.0570
v  3.8634 13.0808 -4.0089
v  3.8634 13.0808 4.0570
v  2.5655 14.0288 -4.0089
v  2.5655 14.0288 4.0570
v  0.9206 14.5349 -4.0089
v  0.9206 14.5349 4.0570
v  -0.8641 14.5349 -4.0089
v  -0.8641 14.3249 -4.0089
v  -0.8641 14.3249 4.0570
v  -0.8641 14.5349 4.0570
v  -2.5090 14.0288 -4.0089
v  -2.5090 14.0288 4.0570
v  -3.8069 13.0808 -4.0089
v  -3.8069 13.0808 4.0570
v  -4.6908 11.6598 -4.0089
v  -4.6908 11.6598 4.0570
v  -4.6750 12.3849 4.0570
v  -4.6708 16.6374 4.0570
v  -11.7037 8.5313 4.0570
v  -11.7037 8.5393 -4.0089
v  -11.7037 0.0544 -4.0089
v  -11.7037 0.0544 4.0570
v  -10.7004 7.5348 -4.0089
v  -10.7004 7.5348 -3.0457
v  -10.7004 1.0578 -3.0457
v  -10.7004 1.0578 -4.0089
v  -5.0497 0.0544 -4.0089
v  -5.0497 0.0544 4.0570
v  -6.0531 7.5291 -4.0089
v  -6.0531 7.5291 -3.0457
v  -5.0497 8.5313 -4.0089
v  -5.0497 8.5152 4.0570
v  5.1062 8.5220 4.0570
v  5.1062 8.5226 -4.0089
v  5.1062 0.0544 -4.0089
v  5.1062 0.0544 4.0570
v  -6.0531 1.0578 -4.0089
v  -6.0531 1.0578 -3.0457
v  11.7602 0.0544 -4.0089
v  11.7602 0.0544 4.0570
v  10.7568 1.0578 4.0570
v  10.7568 1.0578 3.0938
v  6.1096 1.0578 3.0938
v  6.1096 1.0578 4.0570
v  11.7602 8.5104 -4.0089
v  11.7602 8.5124 4.0570
v  -5.0444 8.5313 -4.0154
v  -5.0449 8.5152 4.0629
v  4.5440 9.5225 4.7385
v  12.3224 9.5225 4.7385
v  12.3225 9.0692 4.7384
v  4.5441 9.0789 4.7387
v  4.5440 9.5225 -4.6904
v  -4.4875 9.5225 4.7385
v  -4.4875 9.5225 -4.6904
v  -12.2656 9.0881 4.7389
v  -12.2659 9.5225 4.7385
v  -12.2659 9.5225 -4.6904
v  -12.2659 9.0962 -4.6904
v  12.3225 9.0672 -4.6902
v  12.3224 9.5225 -4.6904
v  -11.7091 8.5313 4.0635
v  -11.7096 8.5393 -4.0160
v  5.1006 8.5220 4.0638
v  5.1006 8.5226 -4.0156
v  -4.4873 9.0881 -4.6900
v  -4.4875 9.0720 4.7385
v  11.7653 8.5104 -4.0151
v  11.7653 8.5124 4.0633
v  4.5441 9.0795 -4.6905
v  4.6623 12.6425 -4.0089
v  4.6761 16.5764 -4.0089
v  0.9206 14.5349 -4.3599
v  0.9221 17.0228 -4.3599
v  0.9221 17.0228 -4.0089
v  -4.5885 12.7152 -4.0089
v  -4.1581 13.4067 -4.0089
v  -0.8669 17.0227 -4.3599
v  -0.8641 14.5349 -4.3599
v  0.9206 14.5349 4.3990
v  0.9206 14.3249 4.3990
v  0.9206 14.3249 4.0570
v  0.9190 17.0228 4.3990
v  -0.8665 17.0227 4.3990
v  -0.8641 14.5349 4.3990
v  -0.8665 17.0227 4.0570
v  0.9190 17.0228 4.0570
v  0.9206 14.3249 -4.3599
v  -0.8641 14.3249 -4.3599
v  -4.5848 16.5524 -4.0089
v  -1.3367 16.5524 -4.0089
v  -2.7228 14.4552 -4.0089
v  -1.3349 14.8822 -4.0089
v  -4.1581 13.4067 -3.5693
v  -4.5885 12.7152 -3.5693
v  -4.5879 13.3992 -3.5693
v  -4.3562 13.5907 -3.5693
v  -2.7228 14.4552 -3.5693
v  -1.3349 14.8822 -3.5693
v  -1.3367 16.5524 -3.5693
v  -4.5848 16.5524 -3.5693
v  4.1966 13.3901 -4.0089
v  4.1966 13.3901 -3.5882
v  4.6623 12.6425 -3.5882
v  1.3671 14.8645 -4.0089
v  2.7683 14.4334 -4.0089
v  1.3682 16.5764 -4.0089
v  3.7891 15.6937 -3.5882
v  3.7841 14.7845 -3.5882
v  3.1694 15.2335 -3.5882
v  2.2502 15.5163 -3.5882
v  2.2504 15.6937 -3.5882
v  1.3671 14.8645 -3.5882
v  2.7683 14.4334 -3.5882
v  4.6761 16.5764 -3.5882
v  1.3682 16.5764 -3.5882
v  0.9206 14.3249 -4.0089
v  -0.8641 14.3249 4.3990
v  4.7391 16.6374 4.0570
v  1.3046 16.6374 4.0570
v  -4.0946 13.3478 3.7074
v  -4.3523 13.5431 3.7074
v  -4.6750 12.3849 3.7074
v  4.1511 13.3478 3.7074
v  4.7448 12.3933 3.7074
v  4.7438 13.1118 3.7074
v  4.3911 13.5706 3.7074
v  -2.6841 14.3781 4.0570
v  -4.0946 13.3478 4.0570
v  -1.2497 14.8194 4.0570
v  1.3057 14.8196 4.0570
v  2.7406 14.3781 4.0570
v  4.1511 13.3478 4.0570
v  4.7448 12.3933 4.0570
v  -1.2515 16.6374 4.0570
v  -4.6708 16.6374 3.7074
v  -1.2515 16.6374 3.7074
v  1.3046 16.6374 3.7074
v  4.7391 16.6374 3.7074
v  2.7406 14.3781 3.7074
v  -2.6841 14.3781 3.7074
v  -1.2497 14.8194 3.7074
v  1.3057 14.8196 3.7074
v  6.4010 15.7439 3.0169
v  6.3883 10.8013 3.0169
v  10.4813 15.7439 3.0169
v  10.4813 10.8013 3.0169
v  -6.3443 10.8159 3.0169
v  -6.3487 15.7294 3.0169
v  -10.4103 15.7294 3.0169
v  -10.4103 10.8159 3.0169
v  -10.0230 15.3420 3.0169
v  -10.0230 15.3420 3.4012
v  -10.0230 11.2032 3.4012
v  -10.0230 11.2032 3.0169
v  -6.3443 10.8159 3.4012
v  -10.4103 10.8159 3.4012
v  -6.7357 15.3420 3.0169
v  -6.7357 15.3420 3.4012
v  -10.4103 15.7294 3.4012
v  -6.7320 11.2032 3.0169
v  -6.7320 11.2032 3.4012
v  -6.3487 15.7294 3.4012
v  6.7767 11.1887 3.0169
v  6.7767 11.1887 3.4012
v  10.0940 11.1887 3.4012
v  10.0940 11.1887 3.0169
v  6.7874 15.3566 3.4012
v  6.4010 15.7439 3.4012
v  6.3883 10.8013 3.4012
v  10.0940 15.3566 3.4012
v  10.4813 15.7439 3.4012
v  10.4813 10.8013 3.4012
v  6.7874 15.3566 3.0169
v  10.0940 15.3566 3.0169
v  6.9899 15.1535 3.0169
v  6.9803 11.3918 3.0169
v  9.8909 15.1535 3.0169
v  9.8909 11.3918 3.0169
v  -6.9353 11.4063 3.0169
v  -6.9386 15.1389 3.0169
v  -9.8199 15.1389 3.0169
v  -9.8199 11.4063 3.0169
v  7.3483 14.7941 3.2891
v  7.3405 11.7511 3.2891
v  6.9899 15.1535 3.2891
v  9.8909 15.1535 3.2891
v  -9.4606 11.7656 3.2891
v  -7.2949 11.7656 3.2891
v  6.9803 11.3918 3.2891
v  -9.4606 14.7796 3.2891
v  -6.9353 11.4063 3.2891
v  -9.8199 11.4063 3.2891
v  -7.2976 14.7796 3.2891
v  -9.8199 15.1389 3.2891
v  9.5316 14.7941 3.2891
v  9.5316 11.7511 3.2891
v  9.8909 11.3918 3.2891
v  -6.9386 15.1389 3.2891
v  6.3921 10.8054 -2.9863
v  6.4035 15.7399 -2.9863
v  10.4773 15.7399 -2.9863
v  10.4773 10.8054 -2.9863
v  -6.3219 15.7554 -2.9863
v  -6.3181 10.7899 -2.9863
v  -10.4363 10.7899 -2.9863
v  -10.4363 15.7554 -2.9863
v  6.8166 11.2290 -2.9863
v  6.8166 11.2290 -3.4885
v  6.8260 15.3163 -3.4885
v  6.8260 15.3163 -2.9863
v  10.4773 15.7399 -3.4885
v  6.4035 15.7399 -3.4885
v  -6.7420 11.2134 -2.9863
v  -6.7420 11.2134 -3.4885
v  -10.0128 11.2134 -3.4885
v  -10.0128 11.2134 -2.9863
v  6.3921 10.8054 -3.4885
v  -10.0128 15.3318 -2.9863
v  -10.0128 15.3318 -3.4885
v  -6.7451 15.3318 -3.4885
v  -6.7451 15.3318 -2.9863
v  -10.4363 10.7899 -3.4885
v  -6.3181 10.7899 -3.4885
v  -6.3219 15.7554 -3.4885
v  -10.4363 15.7554 -3.4885
v  7.0550 11.4668 -2.9863
v  7.0633 15.0785 -2.9863
v  10.0537 15.3163 -2.9863
v  9.8159 15.0785 -2.9863
v  10.0537 11.2290 -2.9863
v  9.8159 11.4668 -2.9863
v  -6.9828 15.0940 -2.9863
v  -6.9800 11.4512 -2.9863
v  -9.7750 11.4512 -2.9863
v  -9.7750 15.0940 -2.9863
v  -9.3959 14.7150 -3.3468
v  -7.3615 14.7150 -3.3468
v  -9.7750 11.4512 -3.3468
v  -6.9800 11.4512 -3.3468
v  -9.3959 11.8303 -3.3468
v  -6.9828 15.0940 -3.3468
v  -9.7750 15.0940 -3.3468
v  -7.3593 11.8303 -3.3468
v  9.4369 11.8458 -3.3468
v  7.4349 11.8458 -3.3468
v  10.0537 15.3163 -3.4885
v  10.4773 10.8054 -3.4885
v  10.0537 11.2290 -3.4885
v  7.0550 11.4668 -3.3468
v  7.0633 15.0785 -3.3468
v  7.4415 14.6994 -3.3468
v  9.8159 15.0785 -3.3468
v  9.4369 14.6994 -3.3468
v  9.8159 11.4668 -3.3468
v  -4.3196 16.2870 -3.5693
v  -1.6018 16.2870 -3.5693
v  -2.8434 14.6957 -3.5693
v  -1.6005 15.0781 -3.5693
v  1.6327 15.0605 -3.5882
v  2.8889 14.6740 -3.5882
v  4.3947 13.5741 -3.5882
v  1.6335 16.3110 -3.5882
v  4.4098 16.3110 -3.5882
v  -3.7107 15.6697 -3.5693
v  -2.2184 15.6697 -3.5693
v  -2.2183 15.5339 -3.5693
v  -3.1238 15.2553 -3.5693
v  -3.7222 14.8182 -3.5693
v  -4.1163 14.0552 -3.5693
v  -4.1163 14.0552 -3.7447
v  -4.0892 16.0534 -3.7447
v  -4.0892 16.0534 -3.5693
v  -4.3196 16.2870 -3.7447
v  -4.3562 13.5907 -3.7447
v  -2.8434 14.6957 -3.7447
v  -2.9495 14.9075 -3.5693
v  -2.9495 14.9075 -3.7447
v  1.6335 16.3110 -3.7637
v  1.6327 15.0605 -3.7637
v  4.1749 16.0774 -3.5882
v  4.1749 16.0774 -3.7637
v  4.1636 14.0321 -3.7637
v  4.1636 14.0321 -3.5882
v  -1.6018 16.2870 -3.7447
v  -1.8352 16.0534 -3.7447
v  -1.8352 16.0534 -3.5693
v  2.8889 14.6740 -3.7637
v  4.3947 13.5741 -3.7637
v  1.8669 16.0774 -3.5882
v  1.8669 16.0774 -3.7637
v  -1.8343 15.2506 -3.7447
v  -1.6005 15.0781 -3.7447
v  1.8664 15.2330 -3.7637
v  2.9951 14.8857 -3.7637
v  4.4098 16.3110 -3.7637
v  -1.8343 15.2506 -3.5693
v  2.9951 14.8857 -3.5882
v  1.8664 15.2330 -3.5882
v  -1.5715 15.0568 3.7074
v  -2.8302 14.6695 3.7074
v  1.6271 15.0571 3.7074
v  2.8867 14.6695 3.7074
v  4.4180 16.3159 3.7074
v  1.6263 16.3159 3.7074
v  3.8210 15.7247 3.7074
v  2.2179 15.7247 3.7074
v  2.2181 15.4938 3.7074
v  3.1553 15.2054 3.7074
v  3.8112 14.7264 3.7074
v  -1.5727 16.3159 3.7074
v  -4.3496 16.3159 3.7074
v  -3.1007 15.2049 3.7074
v  -2.1631 15.4934 3.7074
v  -2.1633 15.7247 3.7074
v  -3.7589 15.7247 3.7074
v  -3.7600 14.7170 3.7074
v  1.8340 16.1084 3.7074
v  1.8340 16.1084 3.9155
v  1.8345 15.2104 3.9155
v  1.8345 15.2104 3.7074
v  -1.5727 16.3159 3.9155
v  -1.5715 15.0568 3.9155
v  -1.7791 15.2101 3.7074
v  -1.7791 15.2101 3.9155
v  -1.7800 16.1084 3.9155
v  -1.7800 16.1084 3.7074
v  -4.3496 16.3159 3.9155
v  -4.1422 16.1084 3.9155
v  -4.1422 16.1084 3.7074
v  2.9810 14.8576 3.7074
v  2.9810 14.8576 3.9155
v  4.1876 13.9763 3.9155
v  4.1876 13.9763 3.7074
v  4.3911 13.5706 3.9155
v  2.8867 14.6695 3.9155
v  4.2084 16.1084 3.7074
v  4.2084 16.1084 3.9155
v  -4.3523 13.5431 3.9155
v  -4.1444 13.9551 3.9155
v  -4.1444 13.9551 3.7074
v  -2.9252 14.8574 3.9155
v  -2.8302 14.6695 3.9155
v  1.6271 15.0571 3.9155
v  4.4180 16.3159 3.9155
v  1.6263 16.3159 3.9155
v  -2.9252 14.8574 3.7074
v  -12.0620 17.0216 -4.4231
v  -5.0544 17.7068 -4.4736
v  -5.0539 17.7145 -4.7213
v  -0.8655 17.7145 -4.7213
v  -0.8660 17.7068 -4.4736
v  0.9230 17.7068 -4.4736
v  0.9235 17.7145 -4.7213
v  5.1247 17.7145 -4.7213
v  5.1242 17.7068 -4.4737
v  -11.9857 17.7104 4.3892
v  -5.0562 17.7093 4.5162
v  -5.0562 17.7194 4.7637
v  -12.1304 17.7182 4.5639
v  -0.8665 17.0228 4.5448
v  -5.0565 17.0228 4.5448
v  12.0451 17.0210 -4.3533
v  12.0447 17.0229 4.4019
v  5.1254 17.0228 4.5448
v  0.9190 17.0228 4.5448
v  5.1244 17.0201 -4.4966
v  12.0442 19.5000 -4.3530
v  11.7593 19.5017 -4.0086
v  -11.9868 17.0235 4.4036
v  0.9230 17.0201 -4.4966
v  0.9190 17.7093 4.5162
v  5.1252 17.7093 4.5162
v  12.0447 17.7079 -4.3420
v  12.0444 17.7098 4.3875
v  -12.0609 17.7085 -4.4117
v  -0.8665 17.7093 4.5162
v  12.0448 18.8130 -4.3643
v  12.0452 18.8149 4.4157
v  -12.0496 18.7839 -4.4266
v  -11.9862 18.7445 4.4151
v  0.9191 17.7194 4.7637
v  5.1252 17.7194 4.7637
v  12.1899 17.7168 4.5613
v  12.1889 18.8220 4.5917
v  -12.1292 18.7524 4.5919
v  -0.8665 17.7194 4.7637
v  -12.2070 17.7148 -4.5849
v  -12.1933 18.7902 -4.6026
v  12.1888 18.8185 -4.5401
v  12.1902 17.7133 -4.5159
v  11.5931 19.5016 3.8549
v  -11.5396 19.4301 3.8568
v  -11.7542 20.8093 -4.0591
v  -12.4598 20.8142 -4.9131
v  -12.4047 20.7772 4.9142
v  -11.7021 20.7744 4.0565
v  11.7586 20.8347 4.0565
v  12.4641 20.8352 4.9105
v  12.4645 20.8371 -4.8619
v  11.7586 20.8347 -4.0083
v  -12.4046 20.3050 4.9147
v  -12.4646 20.3480 -4.9147
v  -11.5925 19.4706 -3.8628
v  12.4646 20.3755 -4.8622
v  12.4640 20.3735 4.9111
v  11.5952 19.5011 -3.8099
v  -10.7004 7.5255 4.0570
v  -10.7004 1.0578 4.0570
v  -6.0531 1.0578 4.0570
v  10.7568 1.0578 -4.0089
v  6.1096 1.0578 -4.0089
v  6.1096 7.5172 4.0570
v  10.7568 7.5089 -4.0089
v  6.1096 7.5174 -4.0089
v  -6.0531 7.5142 4.0570
v  10.7568 7.5105 4.0570
v  -9.0743 5.9067 -3.0457
v  -7.6792 5.9050 -3.0457
v  -7.6792 2.6839 -3.0457
v  -9.0743 2.6839 -3.0457
v  -7.6792 5.8920 3.0938
v  -9.0743 5.8954 3.0938
v  -9.0743 2.6839 3.0938
v  -7.6792 2.6839 3.0938
v  7.7357 5.8883 -3.0457
v  9.1307 5.8857 -3.0457
v  9.1307 2.6839 -3.0457
v  7.7357 2.6839 -3.0457
v  9.1307 5.8867 3.0938
v  7.7357 5.8887 3.0938
v  7.7357 2.6839 3.0938
v  9.1307 2.6839 3.0938
v  -10.7004 7.5255 3.0938
v  -6.0531 7.5142 3.0938
v  -6.0531 1.0578 3.0938
v  -10.7004 1.0578 3.0938
v  6.1096 1.0578 -3.0457
v  10.7568 1.0578 -3.0457
v  10.7568 7.5105 3.0938
v  6.1096 7.5172 3.0938
v  10.7568 7.5089 -3.0457
v  6.1096 7.5174 -3.0457
v  -6.4146 1.4193 -3.0457
v  -10.3388 1.4193 -3.0457
v  -10.3388 7.1631 3.0938
v  -10.3388 1.4193 3.0938
v  -6.4146 7.1680 -3.0457
v  -10.3388 7.1728 -3.0457
v  -6.4146 1.4193 3.0938
v  10.3953 1.4193 -3.0457
v  6.4711 1.4193 -3.0457
v  6.4711 7.1551 3.0938
v  6.4711 1.4193 3.0938
v  10.3953 7.1480 -3.0457
v  6.4711 7.1552 -3.0457
v  10.3953 1.4193 3.0938
v  -6.4146 7.1536 3.0938
v  10.3953 7.1494 3.0938
v  -10.3388 7.1631 3.6330
v  -6.4146 7.1536 3.6330
v  9.9078 1.9068 -3.0457
v  9.9078 1.9068 -3.5849
v  6.9586 1.9068 -3.5849
v  6.9586 1.9068 -3.0457
v  -6.4146 7.1680 -3.5849
v  -10.3388 7.1728 -3.5849
v  -9.8513 1.9068 3.0938
v  -9.8513 1.9068 3.6330
v  -6.9021 1.9068 3.6330
v  -6.9021 1.9068 3.0938
v  10.3953 1.4193 3.6330
v  6.4711 1.4193 3.6330
v  -9.8513 1.9068 -3.0457
v  -9.8513 1.9068 -3.5849
v  -9.8513 6.6847 -3.5849
v  -9.8513 6.6847 -3.0457
v  6.4711 7.1552 -3.5849
v  6.4711 1.4193 -3.5849
v  -6.9022 6.6811 -3.0457
v  -6.9022 6.6811 -3.5849
v  -6.9021 1.9068 -3.5849
v  -6.9021 1.9068 -3.0457
v  10.3953 1.4193 -3.5849
v  10.3953 7.1480 -3.5849
v  -9.8513 6.6744 3.0938
v  -9.8513 6.6744 3.6330
v  7.7357 5.8883 -3.4021
v  9.1307 5.8857 -3.4021
v  6.4711 7.1551 3.6330
v  9.1307 5.8867 3.4472
v  7.7357 5.8887 3.4472
v  9.1307 2.6839 3.4472
v  -7.2278 2.2324 -3.0457
v  -9.5257 2.2324 -3.0457
v  -9.5257 6.3480 3.0938
v  -9.5257 2.2324 3.0938
v  -7.2278 6.3559 -3.0457
v  -9.5257 6.3587 -3.0457
v  -7.2278 2.2324 3.0938
v  9.5822 2.2324 -3.0457
v  7.2842 2.2324 -3.0457
v  7.2842 6.3408 3.0938
v  6.9586 6.6669 3.0938
v  6.9586 1.9068 3.0938
v  7.2842 2.2324 3.0938
v  9.5822 6.3363 -3.0457
v  9.9078 6.6614 -3.0457
v  6.9586 6.6668 -3.0457
v  7.2842 6.3406 -3.0457
v  9.9078 1.9068 3.0938
v  9.5822 2.2324 3.0938
v  -7.2278 6.3424 3.0938
v  -6.9021 6.6672 3.0938
v  9.9078 6.6626 3.0938
v  9.5822 6.3375 3.0938
v  -6.4146 1.4193 3.6330
v  -10.3388 1.4193 3.6330
v  -7.6792 2.6839 3.4472
v  -7.6792 5.8920 3.4472
v  -10.3388 1.4193 -3.5849
v  -9.0743 5.8954 3.4472
v  -6.4146 1.4193 -3.5849
v  -9.0743 5.9067 -3.4021
v  -7.6792 5.9050 -3.4021
v  9.5822 6.3363 -3.4021
v  7.2842 6.3406 -3.4021
v  7.7357 2.6839 3.4472
v  7.2842 6.3408 3.4472
v  9.5822 6.3375 3.4472
v  7.7357 2.6839 -3.4021
v  9.5822 2.2324 3.4472
v  9.1307 2.6839 -3.4021
v  -7.2278 6.3424 3.4472
v  -7.2278 2.2324 3.4472
v  6.9586 6.6669 3.6330
v  6.9586 1.9068 3.6330
v  9.9078 6.6614 -3.5849
v  6.9586 6.6668 -3.5849
v  9.9078 1.9068 3.6330
v  -6.9021 6.6672 3.6330
v  10.3953 7.1494 3.6330
v  9.9078 6.6626 3.6330
v  -7.6792 2.6839 -3.4021
v  -7.2278 2.2324 -3.4021
v  -9.5257 2.2324 -3.4021
v  -9.0743 2.6839 -3.4021
v  -9.5257 6.3480 3.4472
v  -9.5257 2.2324 3.4472
v  -9.0743 2.6839 3.4472
v  -7.2278 6.3559 -3.4021
v  -9.5257 6.3587 -3.4021
v  9.5822 2.2324 -3.4021
v  7.2842 2.2324 -3.4021
v  7.2842 2.2324 3.4472
v  -3.9200 15.8819 -3.5693
v  -2.0064 15.8819 -3.5693
v  -3.9402 14.3961 -3.5693
v  -3.0274 15.0629 -3.5693
v  -2.0059 15.3772 -3.5693
v  2.0379 15.3596 -3.5882
v  3.0730 15.0411 -3.5882
v  3.9940 14.3683 -3.5882
v  2.0382 15.9059 -3.5882
v  4.0025 15.9059 -3.5882
v  -1.9507 15.3366 3.7074
v  -3.0036 15.0127 3.7074
v  2.0059 15.3370 3.7074
v  3.0589 15.0130 3.7074
v  4.0353 15.9369 3.7074
v  2.0055 15.9369 3.7074
v  4.0194 14.3115 3.7074
v  -1.9513 15.9369 3.7074
v  -3.9710 15.9369 3.7074
v  -3.9726 14.2955 3.7074
v  4.0353 15.9369 3.8692
v  4.0194 14.3115 3.8692
v  3.8112 14.7264 3.8692
v  3.8210 15.7247 3.8692
v  -2.0059 15.3772 -3.7311
v  -2.0064 15.8819 -3.7311
v  -2.2184 15.6697 -3.7311
v  -2.2183 15.5339 -3.7311
v  2.0059 15.3370 3.8692
v  2.0055 15.9369 3.8692
v  2.2179 15.7247 3.8692
v  2.2181 15.4938 3.8692
v  -3.0274 15.0629 -3.7311
v  -3.1238 15.2553 -3.7311
v  -1.9513 15.9369 3.8692
v  -1.9507 15.3366 3.8692
v  -2.1631 15.4934 3.8692
v  -2.1633 15.7247 3.8692
v  -3.9402 14.3961 -3.7311
v  -3.7222 14.8182 -3.7311
v  -3.9710 15.9369 3.8692
v  -3.7589 15.7247 3.8692
v  -3.9200 15.8819 -3.7311
v  -3.7107 15.6697 -3.7311
v  3.0589 15.0130 3.8692
v  3.1553 15.2054 3.8692
v  2.2502 15.5163 -3.7501
v  3.1694 15.2335 -3.7501
v  3.0730 15.0411 -3.7501
v  2.0379 15.3596 -3.7501
v  3.7841 14.7845 -3.7501
v  3.9940 14.3683 -3.7501
v  2.2504 15.6937 -3.7501
v  2.0382 15.9059 -3.7501
v  4.0025 15.9059 -3.7501
v  3.7891 15.6937 -3.7501
v  -3.1007 15.2049 3.8692
v  -3.0036 15.0127 3.8692
v  -3.7600 14.7170 3.8692
v  -3.9726 14.2955 3.8692
# 693 vertices

vn 0.0000 1.0000 -0.0000
vn 0.0000 -1.0000 -0.0000
vn 0.0000 -0.0008 -1.0000
vn 0.0000 0.0000 -1.0000
vn 1.0000 0.0000 -0.0000
vn 0.0000 -0.0000 1.0000
vn 0.0000 -0.0009 -1.0000
vn -1.0000 -0.0000 -0.0000
vn -1.0000 0.0000 -0.0000
vn 0.0000 -0.0026 1.0000
vn 0.9986 0.0000 0.0525
vn 0.9996 -0.0279 0.0052
vn 0.9996 0.0279 0.0052
vn 0.0000 0.0000 1.0000
vn 0.0000 -0.0023 1.0000
vn -0.0108 0.0000 -0.9999
vn 0.0016 1.0000 -0.0030
vn -0.0065 -1.0000 -0.0000
vn -0.0058 1.0000 -0.0006
vn 0.0000 -0.1656 -0.9862
vn -0.0000 -0.5282 -0.8491
vn -0.0000 -0.8075 -0.5898
vn 0.0000 -0.9558 -0.2941
vn -0.0000 0.0000 -1.0000
vn -0.0000 -0.9558 0.2941
vn -0.0000 -0.8075 0.5898
vn -0.0000 -0.5282 0.8491
vn -0.0000 -0.1656 0.9862
vn 0.0000 -1.0000 -0.0012
vn 0.0024 -1.0000 -0.0001
vn -0.0000 1.0000 -0.0000
vn -1.0000 -0.0000 0.0000
vn -0.0000 -0.0003 -1.0000
vn 0.0000 0.0003 1.0000
vn 0.0000 1.0000 0.0000
vn 0.0002 -1.0000 -0.0024
vn 0.0012 -1.0000 0.0001
vn 0.0001 -1.0000 -0.0000
vn -0.0000 0.0003 1.0000
vn -0.0000 -1.0000 -0.0012
vn -0.0003 -1.0000 -0.0000
vn -0.0001 -1.0000 -0.0018
vn 1.0000 0.0000 0.0000
vn 0.0000 -1.0000 -0.0015
vn 0.0000 -0.0003 -1.0000
vn 1.0000 -0.0003 0.0000
vn 0.0015 -0.7074 0.7069
vn 0.7074 -0.7068 -0.0007
vn 0.0007 -0.7068 -0.7074
vn -0.7069 -0.7074 -0.0015
vn -0.7071 -0.7071 -0.0009
vn -0.0002 -0.7073 0.7069
vn 0.7071 -0.7071 -0.0012
vn 0.0001 -0.7069 -0.7073
vn -1.0000 0.0003 0.0000
vn 0.0000 -0.0006 1.0000
vn 0.0000 -0.0011 -1.0000
vn 0.0000 0.0006 1.0000
vn 0.0000 -0.0010 -1.0000
vn 1.0000 -0.0000 -0.0000
vn 0.0000 0.9558 -0.2941
vn 0.0000 0.5285 -0.8490
vn 0.0000 -0.0010 1.0000
vn 0.0000 0.8075 -0.5898
vn 0.0000 0.5287 0.8488
vn 1.0000 -0.0000 0.0000
vn 0.0000 0.9558 0.2941
vn 0.0000 0.0035 -1.0000
vn 0.0000 0.8075 0.5898
vn -0.0000 -1.0000 -0.0000
vn -0.0000 0.0000 1.0000
vn -1.0000 0.0000 0.0000
vn -0.0000 -0.0013 -1.0000
vn 0.0000 0.5162 -0.8564
vn 0.0000 0.5282 0.8491
vn 0.0000 0.0009 1.0000
vn 0.0000 0.0026 -1.0000
vn 0.0000 -0.0000 -1.0000
vn 0.0000 0.0023 -1.0000
vn 0.0000 0.0008 1.0000
vn 0.0000 -0.0136 0.9999
vn 0.0000 0.0136 -0.9999
vn 0.0000 -0.8075 0.5898
vn 0.0000 0.0006 -1.0000
vn 0.0000 0.0055 -1.0000
vn 0.0000 -0.8075 -0.5898
vn 0.0000 -0.9558 0.2941
vn 0.0000 -0.0055 1.0000
vn 0.0000 0.0011 1.0000
vn 0.0000 0.0010 1.0000
vn 0.0000 0.0010 -1.0000
vn 0.0000 -0.0006 -1.0000
vn 0.0000 0.0098 -1.0000
vn 0.0000 -0.0098 1.0000
vn 0.0000 0.8038 -0.5949
vn 0.0000 -0.8038 0.5949
vn -0.0055 -1.0000 -0.0001
vn 0.0380 -0.9993 -0.0000
vn -0.0508 -0.9987 -0.0010
vn -0.0001 -1.0000 -0.0000
vn -0.0001 -1.0000 -0.0028
vn -0.0064 -1.0000 0.0000
vn 0.0001 1.0000 0.0028
vn -0.0001 -1.0000 0.0006
vn -0.0012 -1.0000 -0.0001
vn 0.0050 1.0000 -0.0012
vn -0.0002 -1.0000 0.0000
vn -0.9994 0.0343 -0.0000
vn -0.9995 0.0258 -0.0160
vn 0.9996 0.0276 -0.0000
vn 0.9997 0.0206 0.0164
vn -0.9995 0.0258 0.0162
vn 0.9998 0.0206 -0.0080
vn -0.0000 0.0004 1.0000
vn -0.0103 0.0017 -0.9999
vn 0.0000 0.0012 1.0000
vn 0.9999 0.0151 0.0021
vn -0.0087 0.0004 -1.0000
vn -0.9999 0.0159 -0.0000
vn -0.9962 0.0873 0.0001
vn 0.9971 0.0756 0.0022
vn -0.0093 0.0070 -0.9999
vn -0.0000 0.0011 1.0000
vn -0.0493 -0.9988 -0.0000
vn 0.0375 -0.9993 0.0007
vn -0.0492 -0.9988 -0.0000
vn -0.0488 -0.9988 0.0008
vn 0.0004 0.9990 -0.0436
vn 0.0400 -0.9992 -0.0006
vn -0.0405 0.9992 -0.0013
vn -0.0004 -0.9991 0.0427
vn -0.0048 0.9988 0.0493
vn -0.0009 -0.9988 -0.0481
vn 0.0513 0.9987 -0.0029
vn 0.0023 1.0000 -0.0031
vn -0.0048 1.0000 0.0055
vn -0.0001 1.0000 -0.0021
vn -0.0071 0.0050 -1.0000
vn -0.0062 1.0000 0.0054
vn -0.0001 -0.0000 1.0000
vn -0.0053 1.0000 -0.0013
vn 1.0000 0.0016 0.0017
vn -0.0052 1.0000 -0.0010
vn 0.0024 1.0000 -0.0024
vn -1.0000 0.0010 0.0001
vn -0.0001 -0.7059 0.7083
vn 0.7103 -0.7039 0.0021
vn -0.0015 -0.7040 -0.7102
vn -0.7077 -0.7065 0.0021
vn 0.0000 1.0000 -0.0021
vn 0.0000 -1.0000 -0.0024
vn 0.0000 -1.0000 -0.0018
vn 0.0000 1.0000 0.0024
vn 0.0000 1.0000 0.0012
vn 0.0000 1.0000 0.0018
vn 0.0000 1.0000 0.0015
# 156 vertex normals

vt 0.6250 0.5586 0.0000
vt 0.6250 0.7166 0.0000
vt 0.6250 0.7325 0.0000
vt 0.6250 0.6716 0.0000
vt 0.6250 0.5785 0.0000
vt 0.6250 0.5172 0.0000
vt 0.6250 0.6923 0.0000
vt 0.6250 0.5329 0.0000
vt 0.6250 0.6292 0.0000
vt 0.6250 0.5657 0.0000
vt 0.6250 0.5456 0.0000
vt 0.6250 0.5803 0.0000
vt 0.6250 0.6698 0.0000
vt 0.6250 0.7040 0.0000
vt 0.6250 0.6839 0.0000
vt 0.6250 0.6216 0.0000
vt 0.6250 0.2165 0.0000
vt 0.6250 0.2324 0.0000
vt 0.6250 0.0784 0.0000
vt 0.6250 0.0173 0.0000
vt 0.6250 0.1714 0.0000
vt 0.6250 0.0589 0.0000
vt 0.6250 0.0331 0.0000
vt 0.6250 0.1328 0.0000
vt 0.6250 0.0639 0.0000
vt 0.6250 0.0436 0.0000
vt 0.6250 0.0803 0.0000
vt 0.6250 0.1696 0.0000
vt 0.6250 0.2060 0.0000
vt 0.6250 0.1858 0.0000
vt 0.6250 0.1178 0.0000
vt 0.6250 0.0707 0.0000
vt 0.6250 0.2500 0.0000
vt 0.6250 0.1919 0.0000
vt 0.6250 0.0000 0.0000
vt 0.6250 0.0534 0.0000
vt 0.6250 0.1792 0.0000
vt 0.6250 0.5000 0.0000
vt 0.6250 0.5573 0.0000
vt 0.6250 0.6793 0.0000
vt 0.6250 0.7500 0.0000
vt 0.6250 0.5708 0.0000
vt 0.6250 0.6915 0.0000
vt 0.6250 0.6155 0.0000
vt 0.6250 1.0000 0.0000
vt 0.6250 0.5278 0.0000
vt 0.6250 0.3333 0.0000
vt 0.6250 0.5556 0.0000
vt 0.6250 0.4167 0.0000
vt 0.6250 0.5833 0.0000
vt 0.6250 0.6111 0.0000
vt 0.6250 0.6389 0.0000
vt 0.6250 0.6667 0.0000
vt 0.6250 0.6944 0.0000
vt 0.6250 0.8333 0.0000
vt 0.6250 0.7222 0.0000
vt 0.6250 0.9167 0.0000
vt 0.6250 0.0618 0.0000
vt 0.6250 0.1661 0.0000
vt 0.5878 0.2500 0.0000
vt 0.5881 0.5000 0.0000
vt 0.3750 0.5000 0.0000
vt 0.3750 0.2500 0.0000
vt 0.5628 0.5377 0.0000
vt 0.4002 0.5377 0.0000
vt 0.3750 0.7500 0.0000
vt 0.1250 0.7500 0.0000
vt 0.1250 0.5000 0.0000
vt 0.5626 0.7123 0.0000
vt 0.5878 0.7500 0.0000
vt 0.5872 1.0000 0.0000
vt 0.3750 1.0000 0.0000
vt 0.5874 0.2500 0.0000
vt 0.5874 0.5000 0.0000
vt 0.4002 0.7123 0.0000
vt 0.4002 0.0377 0.0000
vt 0.4002 0.2123 0.0000
vt 0.5870 0.7500 0.0000
vt 0.5870 1.0000 0.0000
vt 0.6080 0.0000 0.0000
vt 0.6083 0.2500 0.0000
vt 0.6087 0.2500 0.0000
vt 0.6090 0.5000 0.0000
vt 0.6079 0.7500 0.0000
vt 0.6080 1.0000 0.0000
vt 0.5872 0.0000 0.0000
vt 0.6087 0.7500 0.0000
vt 0.6081 1.0000 0.0000
vt 0.6084 0.5000 0.0000
vt 0.5870 0.0000 0.0000
vt 0.6081 0.0000 0.0000
vt 0.6250 0.5658 0.0000
vt 0.6250 0.6642 0.0000
vt 0.6250 0.6345 0.0000
vt 0.6250 0.6827 0.0000
vt 0.6250 0.6745 0.0000
vt 0.6250 0.1389 0.0000
vt 0.6250 0.1155 0.0000
vt 0.6250 0.1345 0.0000
vt 0.6250 0.1111 0.0000
vt 0.6250 0.5868 0.0000
vt 0.6250 0.6169 0.0000
vt 0.6250 0.6521 0.0000
vt 0.6250 0.6369 0.0000
vt 0.6250 0.6656 0.0000
vt 0.6250 0.6644 0.0000
vt 0.6250 0.5746 0.0000
vt 0.6250 0.6129 0.0000
vt 0.6250 0.5973 0.0000
vt 0.6250 0.6332 0.0000
vt 0.6250 0.6353 0.0000
vt 0.6250 0.6122 0.0000
vt 0.6250 0.6203 0.0000
vt 0.6250 0.6230 0.0000
vt 0.6250 0.6260 0.0000
vt 0.6250 0.0838 0.0000
vt 0.6250 0.1165 0.0000
vt 0.6250 0.0723 0.0000
vt 0.6250 0.0846 0.0000
vt 0.6250 0.1778 0.0000
vt 0.6250 0.1887 0.0000
vt 0.6250 0.1709 0.0000
vt 0.6250 0.1653 0.0000
vt 0.6250 0.0955 0.0000
vt 0.6250 0.0556 0.0000
vt 0.6250 0.0833 0.0000
vt 0.6250 0.1126 0.0000
vt 0.6250 0.1374 0.0000
vt 0.6250 0.1667 0.0000
vt 0.6250 0.1545 0.0000
vt 0.6250 0.1944 0.0000
vt 0.6250 0.2222 0.0000
vt 0.6250 0.1335 0.0000
vt 0.6250 0.0278 0.0000
vt 0.6250 0.0793 0.0000
vt 0.6250 0.1797 0.0000
vt 0.6250 0.0220 0.0000
vt 0.6250 0.0397 0.0000
vt 0.6250 0.0710 0.0000
vt 0.6250 0.1706 0.0000
vt 0.6250 0.2277 0.0000
vt 0.6250 0.2099 0.0000
vt 0.6250 0.2194 0.0000
vt 0.6250 0.1995 0.0000
vt 0.6250 0.0907 0.0000
vt 0.6250 0.1600 0.0000
vt 0.6250 0.0501 0.0000
vt 0.6250 0.0802 0.0000
vt 0.6250 0.0303 0.0000
vt 0.6250 0.0804 0.0000
vt 0.6250 0.1500 0.0000
vt 0.6250 0.0349 0.0000
vt 0.6250 0.0553 0.0000
vt 0.6250 0.1006 0.0000
vt 0.6250 0.1694 0.0000
vt 0.6250 0.2148 0.0000
vt 0.6250 0.5705 0.0000
vt 0.6250 0.6707 0.0000
vt 0.6250 0.7279 0.0000
vt 0.6250 0.7102 0.0000
vt 0.6250 0.5793 0.0000
vt 0.6250 0.6804 0.0000
vt 0.6250 0.5394 0.0000
vt 0.6250 0.5218 0.0000
vt 0.6250 0.5920 0.0000
vt 0.6250 0.6697 0.0000
vt 0.6250 0.6588 0.0000
vt 0.6250 0.5508 0.0000
vt 0.6250 0.5308 0.0000
vt 0.6250 0.5804 0.0000
vt 0.6250 0.6036 0.0000
vt 0.6250 0.6695 0.0000
vt 0.6250 0.7189 0.0000
vt 0.6250 0.7133 0.0000
vt 0.6250 0.6988 0.0000
vt 0.6250 0.6929 0.0000
vt 0.6250 0.5806 0.0000
vt 0.6250 0.6472 0.0000
vt 0.6250 0.5567 0.0000
vt 0.6250 0.5363 0.0000
vt 0.6250 0.5956 0.0000
vt 0.6250 0.6184 0.0000
vt 0.6250 0.6447 0.0000
vt 0.6250 0.6347 0.0000
vt 0.6250 0.6151 0.0000
vt 0.6250 0.6046 0.0000
vt 0.6250 0.5848 0.0000
vt 0.6250 0.6317 0.0000
vt 0.6250 0.6553 0.0000
vt 0.6250 0.6154 0.0000
vt 0.6250 0.6242 0.0000
vt 0.6250 0.6266 0.0000
vt 0.6250 0.6291 0.0000
vt 0.6250 0.6368 0.0000
vt 0.6250 0.6540 0.0000
vt 0.6250 0.6033 0.0000
vt 0.6250 0.6386 0.0000
vt 0.6250 0.6476 0.0000
vt 0.6250 0.5952 0.0000
vt 0.6250 0.6202 0.0000
vt 0.6250 0.6299 0.0000
vt 0.6250 0.6321 0.0000
vt 0.6250 0.6176 0.0000
vt 0.6250 0.6107 0.0000
vt 0.6250 0.1151 0.0000
vt 0.6250 0.1046 0.0000
vt 0.6250 0.1350 0.0000
vt 0.6250 0.1455 0.0000
vt 0.6250 0.0945 0.0000
vt 0.6250 0.1183 0.0000
vt 0.6250 0.1137 0.0000
vt 0.6250 0.1236 0.0000
vt 0.6250 0.1275 0.0000
vt 0.6250 0.1305 0.0000
vt 0.6250 0.1390 0.0000
vt 0.6250 0.1318 0.0000
vt 0.6250 0.1554 0.0000
vt 0.6250 0.1196 0.0000
vt 0.6250 0.1225 0.0000
vt 0.6250 0.1264 0.0000
vt 0.6250 0.1363 0.0000
vt 0.6250 0.1110 0.0000
vt 0.6250 0.1198 0.0000
vt 0.6250 0.1172 0.0000
vt 0.6250 0.1302 0.0000
vt 0.6250 0.1486 0.0000
vt 0.6250 0.1400 0.0000
vt 0.6250 0.1561 0.0000
vt 0.6250 0.1014 0.0000
vt 0.6250 0.0939 0.0000
vt 0.6250 0.1100 0.0000
vt 0.6250 0.5715 0.0000
vt 0.6250 0.6156 0.0000
vt 0.6250 0.6789 0.0000
vt 0.6250 0.2504 0.0000
vt 0.6250 0.1787 0.0000
vt 0.6250 0.1156 0.0000
vt 0.6250 0.0712 0.0000
vt 0.6250 0.7503 0.0000
vt 0.6250 0.4998 0.0000
vt 0.6250 0.9996 0.0000
vt 0.6250 1.0004 0.0000
vt 0.6250 0.5003 0.0000
vt 0.6250 -0.0000 0.0000
vt 0.6250 0.0002 0.0000
vt 0.6250 0.2498 0.0000
vt 0.6250 0.2518 0.0000
vt 0.6250 0.4981 0.0000
vt 0.6250 0.5002 0.0000
vt 0.6250 0.7498 0.0000
vt 0.6250 0.9981 0.0000
vt 0.6250 0.7518 0.0000
vt 0.5625 0.2123 0.0000
vt 0.3750 0.0000 0.0000
vt 0.5622 0.2123 0.0000
vt 0.5619 0.7123 0.0000
vt 0.5622 0.5377 0.0000
vt 0.5621 0.0377 0.0000
vt 0.5619 0.0377 0.0000
vt 0.5219 0.5988 0.0000
vt 0.5219 0.6512 0.0000
vt 0.4410 0.6512 0.0000
vt 0.4410 0.5988 0.0000
vt 0.5214 0.0988 0.0000
vt 0.5215 0.1512 0.0000
vt 0.4410 0.1512 0.0000
vt 0.4410 0.0988 0.0000
vt 0.5213 0.5988 0.0000
vt 0.5212 0.6512 0.0000
vt 0.4409 0.6512 0.0000
vt 0.4409 0.5988 0.0000
vt 0.5213 0.0988 0.0000
vt 0.5213 0.1512 0.0000
vt 0.4409 0.1512 0.0000
vt 0.4409 0.0988 0.0000
vt 0.4093 0.6987 0.0000
vt 0.4093 0.5513 0.0000
vt 0.5534 0.1987 0.0000
vt 0.4092 0.1987 0.0000
vt 0.5536 0.6987 0.0000
vt 0.5537 0.5513 0.0000
vt 0.4092 0.0513 0.0000
vt 0.4092 0.6987 0.0000
vt 0.4092 0.5513 0.0000
vt 0.5531 0.1987 0.0000
vt 0.5528 0.6987 0.0000
vt 0.5531 0.5513 0.0000
vt 0.5530 0.0513 0.0000
vt 0.5529 0.0513 0.0000
vt 0.4214 0.6804 0.0000
vt 0.4215 0.5696 0.0000
vt 0.4215 0.1804 0.0000
vt 0.4215 0.0696 0.0000
vt 0.5415 0.5696 0.0000
vt 0.5413 0.6804 0.0000
vt 0.4215 0.6804 0.0000
vt 0.5411 0.1804 0.0000
vt 0.4297 0.6682 0.0000
vt 0.4297 0.5818 0.0000
vt 0.5329 0.1682 0.0000
vt 0.4296 0.1682 0.0000
vt 0.5332 0.6682 0.0000
vt 0.5333 0.5818 0.0000
vt 0.4296 0.0818 0.0000
vt 0.4296 0.6682 0.0000
vt 0.4296 0.5818 0.0000
vt 0.5327 0.1682 0.0000
vt 0.5409 0.1804 0.0000
vt 0.5325 0.6682 0.0000
vt 0.5407 0.6804 0.0000
vt 0.5408 0.5696 0.0000
vt 0.5327 0.5818 0.0000
vt 0.5327 0.0818 0.0000
vt 0.5409 0.0696 0.0000
vt 0.5407 0.0696 0.0000
vt 0.5325 0.0818 0.0000
vt 0.6250 0.6088 0.0000
vt 0.6250 0.6219 0.0000
vt 0.6250 0.6463 0.0000
vt 0.6250 0.6343 0.0000
vt 0.6250 0.6198 0.0000
vt 0.6250 0.6150 0.0000
vt 0.6250 0.6028 0.0000
vt 0.6250 0.6284 0.0000
vt 0.6250 0.6420 0.0000
vt 0.6250 0.1194 0.0000
vt 0.6250 0.1144 0.0000
vt 0.6250 0.1306 0.0000
vt 0.6250 0.1357 0.0000
vt 0.6250 0.1069 0.0000
vt 0.6250 0.1213 0.0000
vt 0.6250 0.1484 0.0000
vt 0.6250 0.1287 0.0000
vt 0.6250 0.1431 0.0000
vt 0.6250 0.1015 0.0000
# 335 texture coords

o Cube
g Cube
usemtl wire_115115115
s off
f 1/1/1 2/1/1 3/2/1 4/2/1 
f 5/3/2 6/3/2 7/4/2 8/4/2 
f 9/5/2 10/5/2 11/6/2 12/6/2 
f 13/7/3 14/7/3 10/5/3 9/5/3 
f 4/2/4 3/2/4 6/3/4 5/3/4 
f 15/8/1 16/8/1 14/7/1 13/7/1 
f 17/9/5 18/10/5 19/11/5 20/12/5 
f 21/13/5 22/14/5 23/15/5 24/16/5 
f 25/17/6 26/17/6 27/18/6 28/18/6 
f 29/19/2 30/19/2 31/20/2 32/20/2 
f 33/21/7 34/21/7 35/22/7 36/22/7 
f 36/22/1 35/22/1 26/17/1 25/17/1 
f 32/20/4 31/20/4 37/23/4 38/23/4 
f 28/18/2 27/18/2 34/21/2 33/21/2 
f 39/24/8 40/25/8 41/26/8 42/27/8 
f 43/28/8 44/29/8 45/30/8 46/31/8 
f 29/19/8 47/32/8 48/33/8 49/34/8 
f 32/20/9 50/35/9 47/32/9 29/19/9 
f 38/23/8 51/35/8 50/35/8 32/20/8 
f 49/34/9 48/33/9 51/35/9 38/23/9 
f 38/23/1 37/23/1 52/34/1 49/34/1 
f 36/22/8 53/35/8 54/36/8 55/37/8 33/21/8 
f 33/21/9 55/37/9 56/33/9 28/18/9 
f 28/18/8 56/33/8 57/33/8 25/17/8 
f 25/17/9 57/33/9 53/35/9 36/22/9 
f 49/34/10 52/34/10 30/19/10 29/19/10 
f 1/1/5 58/38/5 59/39/5 60/40/5 8/4/5 
f 8/4/5 60/40/5 61/41/5 5/3/5 
f 5/3/5 61/41/5 62/41/5 4/2/5 
f 4/2/5 62/41/5 58/38/5 1/1/5 
f 13/7/5 9/5/5 63/42/5 64/43/5 65/41/5 
f 15/8/11 66/38/11 67/38/11 12/6/11 
f 12/6/12 67/38/12 63/42/12 9/5/12 
f 15/8/13 13/7/13 65/41/13 66/38/13 
f 12/6/14 11/6/14 16/8/14 15/8/14 
f 8/4/15 7/4/15 2/1/15 1/1/15 
f 57/33/16 56/33/16 67/38/16 66/38/16 
f 68/33/17 69/33/17 70/35/17 71/35/17 
f 63/42/18 72/42/18 73/44/18 74/44/18 
f 75/38/19 76/38/19 69/33/19 68/33/19 
f 62/41/6 61/41/6 50/45/6 51/45/6 
f 77/46/20 58/38/20 48/33/20 78/47/20 
f 79/48/21 77/46/21 78/47/21 80/49/21 
f 81/50/22 79/48/22 80/49/22 82/38/22 
f 83/51/23 81/50/23 82/38/23 84/50/23 
f 85/52/24 86/52/24 87/53/24 88/53/24 
f 89/53/25 85/52/25 88/53/25 90/41/25 
f 91/54/26 89/53/26 90/41/26 92/55/26 
f 93/56/27 91/54/27 92/55/27 94/57/27 
f 95/58/8 96/59/8 55/37/8 54/36/8 
f 65/41/28 93/56/28 94/57/28 53/45/28 
f 97/60/4 98/61/4 99/62/4 100/63/4 
f 101/64/14 102/64/14 103/65/14 104/65/14 
f 99/62/2 105/66/2 106/67/2 100/68/2 
f 107/69/29 108/69/29 102/64/29 101/64/29 
f 109/70/14 110/71/14 106/72/14 105/66/14 
f 111/73/4 112/74/4 113/62/4 114/63/4 
f 115/75/4 116/75/4 108/69/4 107/69/4 
f 113/62/2 117/66/2 118/67/2 114/68/2 
f 119/76/1 120/76/1 121/77/1 122/77/1 
f 123/78/14 124/79/14 118/72/14 117/66/14 
f 109/70/30 125/70/30 126/71/30 110/71/30 
f 48/33/31 127/33/31 128/35/31 51/35/31 
f 129/80/32 128/35/32 127/33/32 130/81/32 
f 58/38/1 131/38/1 127/33/1 48/33/1 
f 53/45/1 132/45/1 133/41/1 65/41/1 
f 134/82/33 135/33/33 136/38/33 137/83/33 
f 138/84/34 139/41/34 128/45/34 129/85/34 
f 65/41/35 133/41/35 136/38/35 66/38/35 
f 110/86/36 126/86/36 140/60/36 97/60/36 
f 97/60/37 140/60/37 141/61/37 98/61/37 
f 111/73/38 142/73/38 143/74/38 112/74/38 
f 144/87/39 133/41/39 132/45/39 145/88/39 
f 98/61/40 141/61/40 125/70/40 109/70/40 
f 123/78/41 146/78/41 147/79/41 124/79/41 
f 112/74/42 143/74/42 146/78/42 123/78/42 
f 148/89/43 131/38/43 139/41/43 138/84/43 
f 57/33/1 66/38/1 136/38/1 135/33/1 
f 62/41/1 139/41/1 131/38/1 58/38/1 
f 124/90/44 147/90/44 142/73/44 111/73/44 
f 130/81/45 127/33/45 131/38/45 148/89/45 
f 57/33/1 135/33/1 132/35/1 53/35/1 
f 51/45/1 128/45/1 139/41/1 62/41/1 
f 137/83/46 136/38/46 133/41/46 144/87/46 
f 145/88/47 126/71/47 125/70/47 144/87/47 
f 144/87/48 125/70/48 141/61/48 137/83/48 
f 137/83/49 141/61/49 140/60/49 134/82/49 
f 134/82/50 140/60/50 126/86/50 145/91/50 
f 130/81/51 142/73/51 147/90/51 129/80/51 
f 146/78/52 138/84/52 129/85/52 147/79/52 
f 143/74/53 148/89/53 138/84/53 146/78/53 
f 148/89/54 143/74/54 142/73/54 130/81/54 
f 145/91/55 132/35/55 135/33/55 134/82/55 
f 149/92/43 150/93/43 60/40/43 59/39/43 
f 83/51/56 151/51/56 152/94/56 153/94/56 
f 93/56/5 65/41/5 64/43/5 154/95/5 155/96/5 91/54/5 
f 156/44/5 152/94/5 151/51/5 157/52/5 
f 158/97/14 159/97/14 160/97/14 84/97/14 
f 153/94/1 152/94/1 156/44/1 74/44/1 
f 74/44/57 156/44/57 157/52/57 85/52/57 
f 161/98/9 162/99/9 163/100/9 158/97/9 
f 164/99/1 162/99/1 161/98/1 165/98/1 
f 151/51/5 166/51/5 167/52/5 157/52/5 
f 165/98/58 161/98/58 158/97/58 84/97/58 
f 88/100/59 163/100/59 162/99/59 164/99/59 
f 168/101/5 63/42/5 74/44/5 169/102/5 
f 170/103/60 89/53/60 91/54/60 155/96/60 
f 171/104/5 85/52/5 89/53/5 170/103/5 
f 169/102/5 74/44/5 85/52/5 171/104/5 
f 172/96/5 173/95/5 174/105/5 175/106/5 
f 64/43/5 63/42/5 168/101/5 154/95/5 
f 170/103/61 176/103/61 177/104/61 171/104/61 
f 154/95/62 173/95/62 172/96/62 155/96/62 
f 169/102/2 178/102/2 179/101/2 168/101/2 
f 171/104/57 177/104/57 178/102/57 169/102/57 
f 154/95/63 168/101/63 179/101/63 174/105/63 173/95/63 
f 155/96/64 172/96/64 176/103/64 170/103/64 
f 180/107/65 181/107/65 182/92/65 149/92/65 
f 183/108/66 184/109/66 81/50/66 83/51/66 
f 184/109/5 180/107/5 79/48/5 81/50/5 
f 185/110/5 183/108/5 83/51/5 153/94/5 
f 185/110/5 153/94/5 60/40/5 150/93/5 
f 180/107/60 149/92/60 59/39/60 58/38/60 77/46/60 79/48/60 
f 186/111/5 187/112/5 188/113/5 189/114/5 190/115/5 
f 183/108/67 191/108/67 192/109/67 184/109/67 
f 150/93/2 193/93/2 194/110/2 185/110/2 
f 149/92/68 182/92/68 193/93/68 150/93/68 
f 184/109/69 192/109/69 181/107/69 180/107/69 
f 185/110/56 194/110/56 191/108/56 183/108/56 
f 86/52/70 195/51/70 160/50/70 87/53/70 
f 86/52/2 167/52/2 166/51/2 195/51/2 
f 160/50/2 159/50/2 196/53/2 87/53/2 
f 163/100/9 196/100/9 159/97/9 158/97/9 
f 88/100/4 87/100/4 196/100/4 163/100/4 
f 157/52/4 167/52/4 86/52/4 85/52/4 
f 84/50/71 160/50/71 195/51/71 83/51/71 
f 83/51/14 195/51/14 166/51/14 151/51/14 
f 197/116/9 47/32/9 165/98/9 198/117/9 
f 199/118/32 200/119/32 201/58/32 
f 202/120/32 203/121/32 204/122/32 205/123/32 
f 206/124/8 207/118/8 92/125/8 90/126/8 
f 208/127/8 206/124/8 90/126/8 88/100/8 
f 209/128/32 84/97/32 82/129/32 210/130/32 
f 210/130/9 82/129/9 80/131/9 211/120/9 
f 212/121/8 211/120/8 80/131/8 78/132/8 
f 213/133/9 164/99/9 55/37/9 96/59/9 
f 213/133/9 208/127/9 88/100/9 164/99/9 
f 198/117/72 165/98/72 84/97/72 209/128/72 
f 95/58/9 54/36/9 53/35/9 94/134/9 92/125/9 207/118/9 
f 96/59/2 214/59/2 215/133/2 213/133/2 
f 198/117/2 216/117/2 217/116/2 197/116/2 
f 47/32/32 197/116/32 212/121/32 78/132/32 48/33/32 
f 212/121/73 197/116/73 217/116/73 204/122/73 203/121/73 
f 207/118/74 199/118/74 201/58/74 95/58/74 
f 211/120/69 202/120/69 218/130/69 210/130/69 
f 95/58/63 201/58/63 214/59/63 96/59/63 
f 206/124/64 219/124/64 199/118/64 207/118/64 
f 213/133/59 215/133/59 220/127/59 208/127/59 
f 212/121/75 203/121/75 202/120/75 211/120/75 
f 208/127/61 220/127/61 219/124/61 206/124/61 
f 209/128/58 221/128/58 216/117/58 198/117/58 
f 210/130/67 218/130/67 221/128/67 209/128/67 
f 222/135/8 30/19/8 52/34/8 223/136/8 
f 224/137/9 31/20/9 30/19/9 222/135/9 
f 225/138/32 37/23/32 31/20/32 224/137/32 
f 223/136/9 52/34/9 37/23/9 225/138/9 
f 226/139/32 35/22/32 34/21/32 227/140/32 
f 227/140/9 34/21/9 27/18/9 228/141/9 
f 228/141/8 27/18/8 26/17/8 229/142/8 
f 229/142/9 26/17/9 35/22/9 226/139/9 
f 230/143/6 231/143/6 232/144/6 233/144/6 
f 226/139/2 234/139/2 235/142/2 229/142/2 
f 236/28/2 237/28/2 231/143/2 230/143/2 
f 229/142/4 235/142/4 238/141/4 228/141/4 
f 239/145/7 240/145/7 237/28/7 236/28/7 
f 228/141/1 238/141/1 241/140/1 227/140/1 
f 242/146/1 243/146/1 244/147/1 245/147/1 
f 227/140/76 241/140/76 234/139/76 226/139/76 
f 246/148/32 247/135/32 248/136/32 243/146/32 
f 249/149/9 250/137/9 247/135/9 246/148/9 
f 244/147/8 251/138/8 250/137/8 249/149/8 
f 243/146/9 248/136/9 251/138/9 244/147/9 
f 240/145/8 234/139/8 241/140/8 237/28/8 
f 237/28/9 241/140/9 238/141/9 231/143/9 
f 231/143/8 238/141/8 235/142/8 232/144/8 
f 232/144/9 235/142/9 234/139/9 240/145/9 
f 223/136/77 248/136/77 247/135/77 222/135/77 
f 233/144/1 232/144/1 240/145/1 239/145/1 
f 222/135/1 247/135/1 250/137/1 224/137/1 
f 252/148/10 246/148/10 243/146/10 242/146/10 
f 224/137/6 250/137/6 251/138/6 225/138/6 
f 253/149/2 249/149/2 246/148/2 252/148/2 
f 225/138/2 251/138/2 248/136/2 223/136/2 
f 245/147/4 244/147/4 249/149/4 253/149/4 
f 254/150/8 252/148/8 242/146/8 255/151/8 
f 256/152/9 253/149/9 252/148/9 254/150/9 
f 257/153/32 245/147/32 253/149/32 256/152/32 
f 255/151/9 242/146/9 245/147/9 257/153/9 
f 258/154/8 239/145/8 236/28/8 259/155/8 
f 259/155/9 236/28/9 230/143/9 260/156/9 
f 260/156/8 230/143/8 233/144/8 261/131/8 
f 261/131/9 233/144/9 239/145/9 258/154/9 
f 42/27/10 262/27/10 263/24/10 39/24/10 
f 254/150/1 264/150/1 265/152/1 256/152/1 
f 45/30/1 266/30/1 267/31/1 46/31/1 
f 255/151/77 268/151/77 264/150/77 254/150/77 
f 44/29/14 269/29/14 266/30/14 45/30/14 
f 258/154/2 270/154/2 271/131/2 261/131/2 
f 43/28/2 272/28/2 269/29/2 44/29/2 
f 261/131/78 271/131/78 273/156/78 260/156/78 
f 262/27/8 264/150/8 268/151/8 263/24/8 
f 274/26/9 265/152/9 264/150/9 262/27/9 
f 275/25/8 276/153/8 265/152/8 274/26/8 
f 263/24/9 268/151/9 276/153/9 275/25/9 
f 267/31/8 270/154/8 277/155/8 272/28/8 
f 272/28/9 277/155/9 273/156/9 269/29/9 
f 269/29/8 273/156/8 271/131/8 266/30/8 
f 266/30/9 271/131/9 270/154/9 267/31/9 
f 256/152/6 265/152/6 276/153/6 257/153/6 
f 41/26/2 274/26/2 262/27/2 42/27/2 
f 257/153/2 276/153/2 268/151/2 255/151/2 
f 40/25/4 275/25/4 274/26/4 41/26/4 
f 259/155/76 277/155/76 270/154/76 258/154/76 
f 39/24/1 263/24/1 275/25/1 40/25/1 
f 260/156/1 273/156/1 277/155/1 259/155/1 
f 46/31/7 267/31/7 272/28/7 43/28/7 
f 278/157/5 2/1/5 7/4/5 279/158/5 
f 279/158/5 7/4/5 6/3/5 280/159/5 
f 280/159/5 6/3/5 3/2/5 281/160/5 
f 281/160/5 3/2/5 2/1/5 278/157/5 
f 282/161/5 10/5/5 14/7/5 283/162/5 
f 284/163/43 16/8/43 11/6/43 285/164/43 
f 285/164/5 11/6/5 10/5/5 282/161/5 
f 283/162/5 14/7/5 16/8/5 284/163/5 
f 286/165/15 287/165/15 288/166/15 289/166/15 
f 280/159/1 290/159/1 291/158/1 279/158/1 
f 292/167/1 293/167/1 294/168/1 295/168/1 
f 279/158/79 291/158/79 296/157/79 278/157/79 
f 297/169/2 298/169/2 299/170/2 300/170/2 
f 284/163/2 301/163/2 302/162/2 283/162/2 
f 295/168/14 294/168/14 298/169/14 297/169/14 
f 282/161/1 303/161/1 304/164/1 285/164/1 
f 305/171/5 286/165/5 289/166/5 306/172/5 
f 306/172/5 289/166/5 307/173/5 308/174/5 
f 308/174/5 307/173/5 309/175/5 310/176/5 
f 310/176/5 309/175/5 286/165/5 305/171/5 
f 311/177/5 300/170/5 292/167/5 312/178/5 
f 313/179/5 295/168/5 297/169/5 314/180/5 
f 314/180/5 297/169/5 300/170/5 311/177/5 
f 312/178/5 292/167/5 295/168/5 313/179/5 
f 19/11/2 315/11/2 316/12/2 20/12/2 
f 313/179/2 317/179/2 318/178/2 312/178/2 
f 18/10/14 319/10/14 315/11/14 19/11/14 
f 311/177/1 320/177/1 321/180/1 314/180/1 
f 20/12/3 316/12/3 322/9/3 17/9/3 
f 314/180/4 321/180/4 317/179/4 313/179/4 
f 23/15/1 323/15/1 324/16/1 24/16/1 
f 312/178/80 318/178/80 320/177/80 311/177/80 
f 287/165/5 296/157/5 291/158/5 288/166/5 
f 288/166/5 291/158/5 290/159/5 325/173/5 
f 325/173/43 290/159/43 326/160/43 327/175/43 
f 327/175/5 326/160/5 296/157/5 287/165/5 
f 299/170/5 303/161/5 302/162/5 293/167/5 
f 294/168/5 301/163/5 304/164/5 298/169/5 
f 298/169/5 304/164/5 303/161/5 299/170/5 
f 293/167/5 302/162/5 301/163/5 294/168/5 
f 281/160/14 326/160/14 290/159/14 280/159/14 
f 289/166/2 288/166/2 325/173/2 307/173/2 
f 278/157/2 296/157/2 326/160/2 281/160/2 
f 307/173/78 325/173/78 327/175/78 309/175/78 
f 283/162/80 302/162/80 303/161/80 282/161/80 
f 309/175/1 327/175/1 287/165/1 286/165/1 
f 285/164/78 304/164/78 301/163/78 284/163/78 
f 300/170/3 299/170/3 293/167/3 292/167/3 
f 324/16/43 328/171/43 329/172/43 330/13/43 
f 330/13/5 329/172/5 331/174/5 332/14/5 
f 332/14/5 331/174/5 333/176/5 323/15/5 
f 323/15/5 333/176/5 328/171/5 324/16/5 
f 316/12/5 320/177/5 318/178/5 322/9/5 
f 319/10/5 317/179/5 321/180/5 315/11/5 
f 315/11/5 321/180/5 320/177/5 316/12/5 
f 322/9/5 318/178/5 317/179/5 319/10/5 
f 306/172/79 329/172/79 328/171/79 305/171/79 
f 17/9/1 322/9/1 319/10/1 18/10/1 
f 308/174/1 331/174/1 329/172/1 306/172/1 
f 24/16/15 324/16/15 330/13/15 21/13/15 
f 310/176/6 333/176/6 331/174/6 308/174/6 
f 21/13/2 330/13/2 332/14/2 22/14/2 
f 305/171/2 328/171/2 333/176/2 310/176/2 
f 22/14/4 332/14/4 323/15/4 23/15/4 
f 334/181/5 179/101/5 178/102/5 335/182/5 
f 336/183/60 176/103/60 172/96/60 175/106/60 
f 337/184/5 177/104/5 176/103/5 336/183/5 
f 335/182/5 178/102/5 177/104/5 337/184/5 
f 174/105/5 179/101/5 334/181/5 175/106/5 
f 338/185/66 339/186/66 192/109/66 191/108/66 
f 340/187/5 181/107/5 192/109/5 339/186/5 
f 341/188/5 338/185/5 191/108/5 194/110/5 
f 341/188/5 194/110/5 193/93/5 342/189/5 
f 343/190/5 344/191/5 345/192/5 346/193/5 347/194/5 
f 340/187/43 342/189/43 193/93/43 182/92/43 181/107/43 
f 348/195/81 349/195/81 350/196/81 351/196/81 
f 334/181/82 352/181/82 353/106/82 175/106/82 
f 175/106/83 353/106/83 354/183/83 336/183/83 
f 355/197/64 356/197/64 349/195/64 348/195/64 
f 341/188/84 357/188/84 358/185/84 338/185/84 
f 359/198/85 360/198/85 361/199/85 362/199/85 
f 335/182/1 363/182/1 352/181/1 334/181/1 
f 351/196/2 350/196/2 364/200/2 365/200/2 
f 339/186/86 366/186/86 367/187/86 340/187/86 
f 368/201/2 369/201/2 360/198/2 359/198/2 
f 350/196/5 352/181/5 363/182/5 364/200/5 
f 349/195/5 356/197/5 354/183/5 353/106/5 
f 370/202/5 371/184/5 354/183/5 356/197/5 
f 364/200/5 363/182/5 371/184/5 370/202/5 
f 372/203/66 373/204/66 366/186/66 358/185/66 
f 361/199/60 367/187/60 366/186/60 373/204/60 
f 369/201/5 372/203/5 358/185/5 357/188/5 
f 369/201/5 357/188/5 374/189/5 360/198/5 
f 361/199/5 360/198/5 374/189/5 367/187/5 
f 349/195/43 353/106/43 352/181/43 350/196/43 
f 342/189/1 374/189/1 357/188/1 341/188/1 
f 375/202/61 370/202/61 356/197/61 355/197/61 
f 336/183/87 354/183/87 371/184/87 337/184/87 
f 340/187/88 367/187/88 374/189/88 342/189/88 
f 365/200/57 364/200/57 370/202/57 375/202/57 
f 337/184/89 371/184/89 363/182/89 335/182/89 
f 376/204/67 373/204/67 372/203/67 377/203/67 
f 362/199/69 361/199/69 373/204/69 376/204/69 
f 377/203/56 372/203/56 369/201/56 368/201/56 
f 338/185/23 358/185/23 366/186/23 339/186/23 
f 378/205/8 379/206/8 219/124/8 220/127/8 
f 380/207/32 221/128/32 218/130/32 381/208/32 
f 382/209/9 217/116/9 216/117/9 383/210/9 
f 379/206/8 200/119/8 199/118/8 219/124/8 
f 381/208/9 218/130/9 202/120/9 205/123/9 
f 384/211/9 385/212/9 386/213/9 387/214/9 388/215/9 
f 389/216/9 215/133/9 214/59/9 390/217/9 
f 389/216/9 378/205/9 220/127/9 215/133/9 
f 383/210/72 216/117/72 221/128/72 380/207/72 
f 217/116/72 382/209/72 205/123/72 204/122/72 
f 200/119/8 390/217/8 214/59/8 201/58/8 
f 391/218/8 392/219/8 393/220/8 394/221/8 395/222/8 
f 396/223/58 397/223/58 398/24/58 399/24/58 
f 389/216/90 400/216/90 401/205/90 378/205/90 
f 402/224/59 403/224/59 404/225/59 405/225/59 
f 390/217/1 406/217/1 400/216/1 389/216/1 
f 405/225/2 404/225/2 407/226/2 408/226/2 
f 409/227/69 410/227/69 411/228/69 412/228/69 
f 205/123/86 413/123/86 414/208/86 381/208/86 
f 415/229/2 416/229/2 397/223/2 396/223/2 
f 200/119/91 417/119/91 406/217/91 390/217/91 
f 408/226/63 407/226/63 418/230/63 419/230/63 
f 403/224/8 420/231/8 421/206/8 401/205/8 
f 398/24/32 422/207/32 414/208/32 410/227/32 
f 416/229/9 423/209/9 424/210/9 397/223/9 
f 411/228/8 410/227/8 414/208/8 413/123/8 
f 404/225/9 400/216/9 406/217/9 407/226/9 
f 404/225/72 403/224/72 401/205/72 400/216/72 
f 397/223/9 424/210/9 422/207/9 398/24/9 
f 411/228/72 413/123/72 423/209/72 416/229/72 
f 418/230/9 417/119/9 421/206/9 420/231/9 
f 418/230/8 407/226/8 406/217/8 417/119/8 
f 380/207/92 422/207/92 424/210/92 383/210/92 
f 378/205/87 401/205/87 421/206/87 379/206/87 
f 412/228/93 411/228/93 416/229/93 415/229/93 
f 382/209/94 423/209/94 413/123/94 205/123/94 
f 425/231/61 420/231/61 403/224/61 402/224/61 
f 381/208/23 414/208/23 422/207/23 380/207/23 
f 419/230/95 418/230/95 420/231/95 425/231/95 
f 379/206/96 421/206/96 417/119/96 200/119/96 
f 399/24/67 398/24/67 410/227/67 409/227/67 
f 383/210/1 424/210/1 423/209/1 382/209/1 
f 67/38/97 426/38/97 72/42/97 63/42/97 
f 427/232/98 428/232/98 429/233/98 430/233/98 
f 431/94/98 432/94/98 433/234/98 434/234/98 
f 435/235/99 436/236/99 437/236/99 438/235/99 
f 430/233/98 429/233/98 432/94/98 431/94/98 
f 164/99/100 439/99/100 440/37/100 55/37/100 
f 61/41/101 441/41/101 442/45/101 50/45/101 
f 47/32/100 443/32/100 444/98/100 165/98/100 
f 61/41/102 60/40/102 445/40/102 441/41/102 
f 165/98/100 444/98/100 439/99/100 164/99/100 
f 71/45/103 70/45/103 446/41/103 447/41/103 
f 56/33/104 448/33/104 426/38/104 67/38/104 
f 74/44/18 73/44/18 449/94/18 153/94/18 
f 56/33/105 55/37/105 440/37/105 448/33/105 
f 447/41/106 446/41/106 76/38/106 75/38/106 
f 50/35/107 442/35/107 443/32/107 47/32/107 
f 153/94/18 449/94/18 445/40/18 60/40/18 
f 450/237/108 444/98/108 443/32/108 451/238/108 
f 435/235/109 448/33/109 440/37/109 436/236/109 
f 430/233/110 73/44/110 72/42/110 427/232/110 
f 452/239/111 441/41/111 445/40/111 434/234/111 
f 451/238/112 443/32/112 442/35/112 453/35/112 
f 427/232/113 72/42/113 426/38/113 454/240/113 
f 453/241/114 442/45/114 441/41/114 452/239/114 
f 454/240/115 426/38/115 448/33/115 435/235/115 
f 431/94/110 449/94/110 73/44/110 430/233/110 
f 434/234/110 445/40/110 449/94/110 431/94/110 
f 436/236/108 440/37/108 439/99/108 455/99/108 
f 455/99/108 439/99/108 444/98/108 450/237/108 
f 456/41/116 446/41/116 70/45/116 457/242/116 
f 458/243/117 76/38/117 446/41/117 456/41/117 
f 459/33/118 69/33/118 76/38/118 458/243/118 
f 457/244/119 70/35/119 69/33/119 459/33/119 
f 460/237/120 461/238/120 462/35/120 463/244/120 464/33/120 438/235/120 437/236/120 465/99/120 
f 429/233/121 428/232/121 466/240/121 467/243/121 468/41/121 469/239/121 433/234/121 432/94/121 
f 438/235/122 464/33/122 467/243/122 466/240/122 
f 469/239/123 468/41/123 463/242/123 462/241/123 
f 455/99/124 465/99/124 437/236/124 436/236/124 
f 452/239/125 434/234/125 433/234/125 469/239/125 
f 450/237/126 460/237/126 465/99/126 455/99/126 
f 453/35/127 462/35/127 461/238/127 451/238/127 
f 457/242/128 463/242/128 468/41/128 456/41/128 
f 454/240/129 466/240/129 428/232/129 427/232/129 
f 456/41/130 468/41/130 467/243/130 458/243/130 
f 452/239/131 469/239/131 462/241/131 453/241/131 
f 458/243/132 467/243/132 464/33/132 459/33/132 
f 435/235/133 438/235/133 466/240/133 454/240/133 
f 451/238/124 461/238/124 460/237/124 450/237/124 
f 459/33/134 464/33/134 463/244/134 457/244/134 
f 71/35/135 470/245/135 471/246/135 68/33/135 
f 472/38/136 473/38/136 474/33/136 475/33/136 
f 476/45/137 477/45/137 478/41/137 479/41/137 
f 480/33/138 474/33/138 473/38/138 481/38/138 
f 68/33/139 471/247/139 482/248/139 75/38/139 
f 483/41/140 478/41/140 477/45/140 484/45/140 
f 75/38/141 482/249/141 485/250/141 447/41/141 
f 481/38/142 473/38/142 478/41/142 483/41/142 
f 479/41/143 478/41/143 473/38/143 472/38/143 
f 475/33/144 474/33/144 477/35/144 476/35/144 
f 484/35/145 477/35/145 474/33/145 480/33/145 
f 484/45/146 470/251/146 485/252/146 483/41/146 
f 482/249/147 481/38/147 483/41/147 485/250/147 
f 471/247/148 480/33/148 481/38/148 482/248/148 
f 470/245/149 484/35/149 480/33/149 471/246/149 
f 447/41/150 485/252/150 470/251/150 71/45/150 
f 115/75/5 105/66/5 99/62/5 104/65/5 
f 486/253/9 97/60/9 100/63/9 487/77/9 
f 107/69/5 109/70/5 105/66/5 115/75/5 
f 104/65/5 99/62/5 98/61/5 101/64/5 
f 487/77/9 100/63/9 106/254/9 488/76/9 
f 489/75/5 117/66/5 113/62/5 490/65/5 
f 491/255/9 111/73/9 114/63/9 122/77/9 
f 492/256/5 123/78/5 117/66/5 489/75/5 
f 490/65/5 113/62/5 112/74/5 493/257/5 
f 122/77/9 114/63/9 118/254/9 119/76/9 
f 101/64/5 98/61/5 109/70/5 107/69/5 
f 494/258/9 110/86/9 97/60/9 486/253/9 
f 488/76/9 106/254/9 110/86/9 494/258/9 
f 119/76/9 118/254/9 124/90/9 495/259/9 
f 495/259/9 124/90/9 111/73/9 491/255/9 
f 493/257/5 112/74/5 123/78/5 492/256/5 
f 496/260/5 497/261/5 498/262/5 499/263/5 
f 500/264/72 501/265/72 502/266/72 503/267/72 
f 504/268/5 505/269/5 506/270/5 507/271/5 
f 508/272/9 509/273/9 510/274/9 511/275/9 
f 486/253/151 512/253/151 513/258/151 494/258/151 
f 488/76/1 514/76/1 515/77/1 487/77/1 
f 494/258/4 513/258/4 514/76/4 488/76/4 
f 490/65/1 516/65/1 517/75/1 489/75/1 
f 495/259/78 518/259/78 120/76/78 119/76/78 
f 122/77/6 121/77/6 519/255/6 491/255/6 
f 491/255/44 519/255/44 518/259/44 495/259/44 
f 489/75/78 517/75/78 520/256/78 492/256/78 
f 104/65/1 103/65/1 116/75/1 115/75/1 
f 492/256/152 520/256/152 521/257/152 493/257/152 
f 493/257/6 521/257/6 516/65/6 490/65/6 
f 487/77/14 515/77/14 512/253/14 486/253/14 
f 522/276/5 116/75/5 103/65/5 523/277/5 
f 524/278/9 512/253/9 515/77/9 525/279/9 
f 526/280/5 108/69/5 116/75/5 522/276/5 
f 523/277/5 103/65/5 102/64/5 527/281/5 
f 525/279/9 515/77/9 514/76/9 528/282/9 
f 529/283/5 517/75/5 516/65/5 530/284/5 
f 531/285/72 519/255/72 121/77/72 532/279/72 
f 533/286/43 520/256/43 517/75/43 529/283/43 
f 530/284/43 516/65/43 521/257/43 534/287/43 
f 532/279/9 121/77/9 120/76/9 535/282/9 
f 527/281/43 102/64/43 108/69/43 526/280/43 
f 536/288/72 513/258/72 512/253/72 524/278/72 
f 528/282/72 514/76/72 513/258/72 536/288/72 
f 535/282/9 120/76/9 518/259/9 537/289/9 
f 537/289/9 518/259/9 519/255/9 531/285/9 
f 534/287/43 521/257/43 520/256/43 533/286/43 
f 524/278/153 538/278/153 539/288/153 536/288/153 
f 540/290/1 541/290/1 542/291/1 543/291/1 
f 526/280/154 544/280/154 545/281/154 527/281/154 
f 546/292/1 547/292/1 548/293/1 549/293/1 
f 535/282/2 550/282/2 551/279/2 532/279/2 
f 552/291/14 553/291/14 554/294/14 555/294/14 
f 534/287/4 556/287/4 557/284/4 530/284/4 
f 558/295/4 559/295/4 560/296/4 561/296/4 
f 529/283/14 562/283/14 563/286/14 533/286/14 
f 564/297/14 565/297/14 547/292/14 546/292/14 
f 504/268/152 566/268/152 567/269/152 505/269/152 
f 532/279/4 551/279/4 568/285/4 531/285/4 
f 561/296/1 560/296/1 553/291/1 552/291/1 
f 508/272/44 569/272/44 570/273/44 509/273/44 
f 530/284/2 557/284/2 562/283/2 529/283/2 
f 511/275/78 571/275/78 569/272/78 508/272/78 
f 572/298/5 561/296/5 552/291/5 573/299/5 
f 574/300/72 564/297/72 546/292/72 575/301/72 
f 576/302/5 558/295/5 561/296/5 572/298/5 
f 573/299/5 552/291/5 555/294/5 577/303/5 
f 575/301/9 546/292/9 549/293/9 578/304/9 
f 579/305/5 540/290/5 543/291/5 580/306/5 
f 581/307/9 582/308/9 583/292/9 584/301/9 
f 585/309/5 586/310/5 540/290/5 579/305/5 
f 580/306/5 543/291/5 587/311/5 588/312/5 
f 584/301/9 583/292/9 589/293/9 590/304/9 
f 577/303/43 555/294/43 558/295/43 576/302/43 
f 591/313/72 592/314/72 564/297/72 574/300/72 
f 578/304/9 549/293/9 592/314/9 591/313/9 
f 590/304/72 589/293/72 593/315/72 594/316/72 
f 594/316/9 593/315/9 582/308/9 581/307/9 
f 588/312/43 587/311/43 586/310/43 585/309/43 
f 528/282/2 595/282/2 596/279/2 525/279/2 
f 503/267/4 597/267/4 598/264/4 500/264/4 
f 527/281/4 545/281/4 599/277/4 523/277/4 
f 500/264/151 598/264/151 600/265/151 501/265/151 
f 522/276/14 601/276/14 544/280/14 526/280/14 
f 496/260/29 602/260/29 603/261/29 497/261/29 
f 525/279/4 596/279/4 538/278/4 524/278/4 
f 585/309/155 604/309/155 605/312/155 588/312/155 
f 510/274/1 606/274/1 571/275/1 511/275/1 
f 523/277/2 599/277/2 601/276/2 522/276/2 
f 581/307/156 607/307/156 608/316/156 594/316/156 
f 507/271/6 609/271/6 566/268/6 504/268/6 
f 594/316/14 608/316/14 610/304/14 590/304/14 
f 505/269/4 567/269/4 611/270/4 506/270/4 
f 591/313/6 612/313/6 613/304/6 578/304/6 
f 509/273/6 570/273/6 606/274/6 510/274/6 
f 560/296/5 601/276/5 599/277/5 553/291/5 
f 565/297/9 538/278/9 596/279/9 547/292/9 
f 559/295/5 544/280/5 601/276/5 560/296/5 
f 553/291/43 599/277/43 545/281/43 554/294/43 
f 547/292/9 596/279/9 595/282/9 548/293/9 
f 541/290/5 562/283/5 557/284/5 542/291/5 
f 614/308/9 568/285/9 551/279/9 615/292/9 
f 616/310/5 563/286/5 562/283/5 541/290/5 
f 542/291/5 557/284/5 556/287/5 617/311/5 
f 615/292/9 551/279/9 550/282/9 618/293/9 
f 554/294/5 545/281/5 544/280/5 559/295/5 
f 619/314/72 539/288/72 538/278/72 565/297/72 
f 548/293/72 595/282/72 539/288/72 619/314/72 
f 618/293/9 550/282/9 620/289/9 621/315/9 
f 621/315/9 620/289/9 568/285/9 614/308/9 
f 617/311/43 556/287/43 563/286/43 616/310/43 
f 622/262/5 623/298/5 624/299/5 625/263/5 
f 600/265/9 626/300/9 627/301/9 628/266/9 
f 603/261/5 629/302/5 623/298/5 622/262/5 
f 625/263/5 624/299/5 630/303/5 602/260/5 
f 628/266/9 627/301/9 613/304/9 597/267/9 
f 611/270/5 631/305/5 632/306/5 609/271/5 
f 570/273/9 607/307/9 633/301/9 606/274/9 
f 567/269/5 604/309/5 631/305/5 611/270/5 
f 609/271/5 632/306/5 605/312/5 566/268/5 
f 606/274/9 633/301/9 610/304/9 571/275/9 
f 602/260/43 630/303/43 629/302/43 603/261/43 
f 598/264/9 612/313/9 626/300/9 600/265/9 
f 597/267/9 613/304/9 612/313/9 598/264/9 
f 571/275/9 610/304/9 608/316/9 569/272/9 
f 569/272/9 608/316/9 607/307/9 570/273/9 
f 566/268/5 605/312/5 604/309/5 567/269/5 
f 573/299/2 624/299/2 623/298/2 572/298/2 
f 582/308/6 614/308/6 615/292/6 583/292/6 
f 536/288/6 539/288/6 595/282/6 528/282/6 
f 575/301/4 627/301/4 626/300/4 574/300/4 
f 586/310/78 616/310/78 541/290/78 540/290/78 
f 537/289/14 620/289/14 550/282/14 535/282/14 
f 572/298/14 623/298/14 629/302/14 576/302/14 
f 543/291/6 542/291/6 617/311/6 587/311/6 
f 531/285/156 568/285/156 620/289/156 537/289/156 
f 577/303/4 630/303/4 624/299/4 573/299/4 
f 583/292/1 615/292/1 618/293/1 589/293/1 
f 533/286/155 563/286/155 556/287/155 534/287/155 
f 578/304/2 613/304/2 627/301/2 575/301/2 
f 555/294/29 554/294/29 559/295/29 558/295/29 
f 580/306/2 632/306/2 631/305/2 579/305/2 
f 592/314/151 619/314/151 565/297/151 564/297/151 
f 498/262/1 622/262/1 625/263/1 499/263/1 
f 584/301/4 633/301/4 607/307/4 581/307/4 
f 549/293/4 548/293/4 619/314/4 592/314/4 
f 501/265/14 600/265/14 628/266/14 502/266/14 
f 579/305/14 631/305/14 604/309/14 585/309/14 
f 589/293/78 618/293/78 621/315/78 593/315/78 
f 497/261/4 603/261/4 622/262/4 498/262/4 
f 588/312/4 605/312/4 632/306/4 580/306/4 
f 593/315/44 621/315/44 614/308/44 582/308/44 
f 499/263/14 625/263/14 602/260/14 496/260/14 
f 590/304/2 610/304/2 633/301/2 584/301/2 
f 587/311/152 617/311/152 616/310/152 586/310/152 
f 502/266/1 628/266/1 597/267/1 503/267/1 
f 576/302/154 629/302/154 630/303/154 577/303/154 
f 506/270/1 611/270/1 609/271/1 507/271/1 
f 574/300/153 626/300/153 612/313/153 591/313/153 
f 634/317/5 351/196/5 365/200/5 635/318/5 
f 636/319/5 637/320/5 355/197/5 348/195/5 
f 638/201/43 375/202/43 355/197/43 637/320/43 
f 635/318/43 365/200/43 375/202/43 638/201/43 
f 639/321/66 640/322/66 376/204/66 377/203/66 
f 641/323/60 362/199/60 376/204/60 640/322/60 
f 642/324/43 639/321/43 377/203/43 368/201/43 
f 642/324/5 368/201/5 359/198/5 643/325/5 
f 641/323/5 643/325/5 359/198/5 362/199/5 
f 636/319/5 348/195/5 351/196/5 634/317/5 
f 644/326/8 645/327/8 425/231/8 402/224/8 
f 646/328/32 399/24/32 409/227/32 647/329/32 
f 648/330/9 415/229/9 396/223/9 649/331/9 
f 650/332/8 647/329/8 409/227/8 412/228/8 
f 651/333/9 405/225/9 408/226/9 652/334/9 
f 651/333/9 644/326/9 402/224/9 405/225/9 
f 649/331/9 396/223/9 399/24/9 646/328/9 
f 650/332/9 412/228/9 415/229/9 648/330/9 
f 653/335/9 419/230/9 425/231/9 645/327/9 
f 653/335/32 652/334/32 408/226/32 419/230/32 
f 648/330/94 654/330/94 655/332/94 650/332/94 
f 388/215/93 656/215/93 657/211/93 384/211/93 
f 638/201/89 658/201/89 659/318/89 635/318/89 
f 344/191/57 660/191/57 661/192/57 345/192/57 
f 646/328/92 662/328/92 663/331/92 649/331/92 
f 385/212/58 664/212/58 665/213/58 386/213/58 
f 637/320/87 666/320/87 658/201/87 638/201/87 
f 345/192/61 661/192/61 667/193/61 346/193/61 
f 651/333/90 668/333/90 669/326/90 644/326/90 
f 392/219/59 670/219/59 671/220/59 393/220/59 
f 636/319/83 672/319/83 666/320/83 637/320/83 
f 346/193/64 667/193/64 673/194/64 347/194/64 
f 652/334/1 674/334/1 668/333/1 651/333/1 
f 393/220/2 671/220/2 675/221/2 394/221/2 
f 635/318/1 659/318/1 676/317/1 634/317/1 
f 343/190/2 677/190/2 660/191/2 344/191/2 
f 650/332/86 655/332/86 678/329/86 647/329/86 
f 387/214/69 679/214/69 656/215/69 388/215/69 
f 649/331/1 663/331/1 654/330/1 648/330/1 
f 384/211/2 657/211/2 664/212/2 385/212/2 
f 677/190/43 676/317/43 659/318/43 660/191/43 
f 673/194/5 667/193/5 666/320/5 672/319/5 
f 661/192/5 658/201/5 666/320/5 667/193/5 
f 660/191/5 659/318/5 658/201/5 661/192/5 
f 680/114/66 681/113/66 682/322/66 683/321/66 
f 684/112/60 685/323/60 682/322/60 681/113/60 
f 686/115/5 680/114/5 683/321/5 687/324/5 
f 686/115/5 687/324/5 688/325/5 689/111/5 
f 684/112/43 689/111/43 688/325/43 685/323/43 
f 673/194/60 672/319/60 676/317/60 677/190/60 
f 670/219/8 690/218/8 691/327/8 669/326/8 
f 665/213/32 662/328/32 678/329/32 679/214/32 
f 657/211/8 654/330/8 663/331/8 664/212/8 
f 656/215/8 679/214/8 678/329/8 655/332/8 
f 671/220/9 668/333/9 674/334/9 675/221/9 
f 671/220/9 670/219/9 669/326/9 668/333/9 
f 664/212/9 663/331/9 662/328/9 665/213/9 
f 656/215/9 655/332/9 654/330/9 657/211/9 
f 692/222/9 693/335/9 691/327/9 690/218/9 
f 692/222/32 675/221/32 674/334/32 693/335/32 
f 188/113/67 681/113/67 680/114/67 189/114/67 
f 639/321/23 683/321/23 682/322/23 640/322/23 
f 395/222/95 692/222/95 690/218/95 391/218/95 
f 645/327/96 691/327/96 693/335/96 653/335/96 
f 187/112/69 684/112/69 681/113/69 188/113/69 
f 640/322/86 682/322/86 685/323/86 641/323/86 
f 394/221/63 675/221/63 692/222/63 395/222/63 
f 653/335/91 693/335/91 674/334/91 652/334/91 
f 189/114/56 680/114/56 686/115/56 190/115/56 
f 642/324/84 687/324/84 683/321/84 639/321/84 
f 190/115/2 686/115/2 689/111/2 186/111/2 
f 643/325/1 688/325/1 687/324/1 642/324/1 
f 186/111/85 689/111/85 684/112/85 187/112/85 
f 641/323/88 685/323/88 688/325/88 643/325/88 
f 347/194/81 673/194/81 677/190/81 343/190/81 
f 634/317/82 676/317/82 672/319/82 636/319/82 
f 391/218/61 690/218/61 670/219/61 392/219/61 
f 644/326/87 669/326/87 691/327/87 645/327/87 
f 386/213/67 665/213/67 679/214/67 387/214/67 
f 647/329/23 678/329/23 662/328/23 646/328/23 
# 677 polygons - 1 triangles

