# 3ds Max Wavefront OBJ Exporter v0.99 - (c)2007 guruware
# File Created: 22.03.2025 15:39:51

mtllib CarroCofre.mtl

#
# object cofre1
#

v  -0.2551 -0.0103 -0.0027
v  -0.2487 -0.0105 -0.0611
v  -0.3575 -0.0282 -0.0611
v  -0.4384 -0.0449 -0.0611
v  -0.4449 -0.0436 -0.0027
v  -0.3640 -0.0269 -0.0027
v  -0.5024 -0.0622 -0.0644
v  -0.5087 -0.0762 -0.1799
v  -0.5501 -0.0901 -0.1341
v  -0.4978 -0.0675 -0.1369
v  -0.0634 0.0096 -0.1379
v  -0.0680 0.0107 -0.0753
v  -0.5883 -0.1038 -0.0459
v  -0.5629 -0.0857 -0.0027
v  -0.5565 -0.0860 -0.0710
v  -0.5816 -0.1104 -0.1403
v  -0.5451 -0.0922 -0.1632
v  -0.5814 -0.1060 -0.1117
v  -0.5521 -0.0884 -0.1099
v  -0.4982 -0.0646 -0.1032
v  -0.5089 -0.0609 -0.0027
v  -0.3524 -0.0323 -0.1591
v  -0.2449 -0.0129 -0.1183
v  -0.2448 -0.0158 -0.1757
v  -0.4343 -0.0473 -0.1070
v  -0.4323 -0.0502 -0.1467
v  -0.3842 -0.0438 -0.2240
v  -0.4219 -0.0531 -0.2119
v  -0.5845 -0.1038 -0.0754
v  -0.1069 -0.0091 -0.2897
v  -0.0359 0.0063 -0.2511
v  -0.0686 -0.0047 -0.2965
v  -0.0303 -0.0003 -0.3022
v  -0.3464 -0.0366 -0.2361
v  -0.3535 -0.0306 -0.1118
v  -0.5837 -0.1148 -0.1464
v  -0.4653 -0.0636 -0.1959
v  -0.0518 0.0085 -0.2018
v  -0.1609 -0.0157 -0.2790
v  -0.2466 -0.0245 -0.2612
v  -0.0082 0.0030 -0.3041
v  -0.5501 -0.0901 0.1288
v  -0.5087 -0.0762 0.1746
v  -0.4978 -0.0675 0.1315
v  -0.2487 -0.0105 0.0557
v  -0.3575 -0.0282 0.0557
v  -0.4384 -0.0449 0.0557
v  -0.5024 -0.0622 0.0590
v  -0.0634 0.0096 0.1326
v  -0.2448 -0.0158 0.1704
v  -0.0518 0.0085 0.1965
v  -0.2449 -0.0129 0.1129
v  -0.5521 -0.0884 0.1046
v  -0.5814 -0.1060 0.1063
v  -0.3535 -0.0306 0.1065
v  -0.4323 -0.0502 0.1413
v  -0.3524 -0.0323 0.1537
v  -0.4343 -0.0473 0.1017
v  -0.4653 -0.0636 0.1906
v  -0.2466 -0.0245 0.2558
v  -0.3464 -0.0366 0.2308
v  -0.0082 0.0030 0.2988
v  -0.0359 0.0063 0.2457
v  -0.0303 -0.0003 0.2969
v  -0.1609 -0.0157 0.2737
v  -0.0680 0.0107 0.0700
v  -0.4982 -0.0646 0.0979
v  -0.5565 -0.0860 0.0656
v  -0.1069 -0.0091 0.2844
v  -0.4219 -0.0531 0.2066
v  -0.5845 -0.1038 0.0700
v  -0.5883 -0.1038 0.0405
v  -0.5816 -0.1104 0.1350
v  -0.5451 -0.0922 0.1579
v  -0.5837 -0.1148 0.1411
v  -0.3842 -0.0438 0.2187
v  -0.0686 -0.0047 0.2912
v  -0.3575 -0.0281 -0.0611
v  -0.3640 -0.0267 -0.0027
v  -0.2551 -0.0101 -0.0027
v  -0.0680 0.0109 -0.0753
v  -0.0703 0.0105 -0.0027
v  -0.2551 -0.0105 -0.0027
v  -0.0680 0.0105 0.0700
v  -0.5565 -0.0858 0.0656
v  -0.5089 -0.0607 -0.0027
v  -0.5629 -0.0856 -0.0027
v  -0.5923 -0.1047 0.0202
v  -0.5883 -0.1036 0.0405
v  -0.5923 -0.1047 -0.0256
v  -0.5883 -0.1036 -0.0459
# 91 vertices

vn -0.1355 0.0000 -0.9908
vn -0.1416 -0.0377 -0.9892
vn -0.1802 -0.0494 -0.9824
vn -0.2310 -0.0618 -0.9710
vn -0.2407 0.0000 -0.9706
vn -0.1852 0.0000 -0.9827
vn -0.3128 -0.0695 -0.9473
vn -0.3897 -0.1126 -0.9140
vn -0.4555 -0.1129 -0.8830
vn -0.3194 -0.0883 -0.9435
vn -0.1266 -0.0415 -0.9911
vn -0.1168 -0.0157 -0.9930
vn -0.5203 -0.0584 -0.8520
vn -0.4939 -0.0000 -0.8695
vn -0.4597 -0.0786 -0.8846
vn -0.5404 -0.2032 -0.8165
vn -0.5183 -0.2077 -0.8296
vn -0.5143 -0.1091 -0.8506
vn -0.4500 -0.1033 -0.8870
vn -0.3374 -0.0894 -0.9371
vn -0.3591 0.0000 -0.9333
vn -0.1903 -0.0548 -0.9802
vn -0.1485 -0.0481 -0.9877
vn -0.1408 -0.0735 -0.9873
vn -0.2353 -0.0752 -0.9690
vn -0.2455 -0.0741 -0.9666
vn -0.2332 -0.0720 -0.9698
vn -0.2644 -0.0856 -0.9606
vn -0.5250 -0.0821 -0.8471
vn -0.1469 -0.1143 -0.9825
vn -0.1477 -0.1299 -0.9805
vn -0.1357 -0.1400 -0.9808
vn -0.1461 -0.1424 -0.9790
vn -0.1712 -0.0782 -0.9821
vn -0.1871 -0.0558 -0.9807
vn -0.5788 -0.3296 -0.7459
vn -0.2820 -0.0935 -0.9549
vn -0.1432 -0.0893 -0.9857
vn -0.1343 -0.1063 -0.9852
vn -0.1329 -0.0979 -0.9863
vn -0.1583 -0.1435 -0.9769
vn -0.4555 0.1129 -0.8830
vn -0.3897 0.1126 -0.9140
vn -0.3194 0.0883 -0.9435
vn -0.1416 0.0377 -0.9892
vn -0.1802 0.0494 -0.9824
vn -0.2310 0.0618 -0.9710
vn -0.3128 0.0695 -0.9473
vn -0.1266 0.0415 -0.9911
vn -0.1408 0.0735 -0.9873
vn -0.1432 0.0893 -0.9857
vn -0.1485 0.0481 -0.9877
vn -0.4500 0.1033 -0.8870
vn -0.5143 0.1091 -0.8506
vn -0.1871 0.0558 -0.9807
vn -0.2455 0.0741 -0.9666
vn -0.1903 0.0548 -0.9802
vn -0.2353 0.0752 -0.9690
vn -0.2820 0.0935 -0.9549
vn -0.1329 0.0979 -0.9863
vn -0.1712 0.0782 -0.9821
vn -0.1583 0.1435 -0.9769
vn -0.1477 0.1299 -0.9805
vn -0.1461 0.1424 -0.9790
vn -0.1343 0.1063 -0.9852
vn -0.1168 0.0157 -0.9930
vn -0.3374 0.0894 -0.9371
vn -0.4597 0.0786 -0.8846
vn -0.1469 0.1143 -0.9825
vn -0.2644 0.0856 -0.9606
vn -0.5250 0.0821 -0.8471
vn -0.5203 0.0584 -0.8520
vn -0.5404 0.2032 -0.8165
vn -0.5183 0.2077 -0.8296
vn -0.5788 0.3296 -0.7459
vn -0.2332 0.0720 -0.9698
vn -0.1357 0.1400 -0.9808
vn -0.1130 0.0000 -0.9936
vn -0.4939 0.0000 -0.8695
vn -0.6095 0.0181 -0.7925
vn -0.6095 -0.0181 -0.7925
# 81 vertex normals

vt -50.2430 38.0682 0.0000
vt -56.1155 37.9086 0.0000
vt -54.6246 26.9815 0.0000
vt -54.3679 16.1562 0.0000
vt -48.5284 16.8118 0.0000
vt -50.2930 24.8795 0.0000
vt -48.3009 20.0672 0.0000
vt -54.1543 19.5506 0.0000
vt -53.2341 12.9718 0.0000
vt -64.4469 14.3930 0.0000
vt -59.1080 11.0001 0.0000
vt -60.4614 16.5416 0.0000
vt -69.8992 48.4291 0.0000
vt -58.4149 31.8649 0.0000
vt -63.6872 49.3327 0.0000
vt -50.0042 17.4244 0.0000
vt -45.9604 20.8931 0.0000
vt -52.8208 20.8435 0.0000
vt -58.3967 8.3395 0.0000
vt -58.6792 12.1266 0.0000
vt -61.6089 11.7327 0.0000
vt -56.2489 11.9757 0.0000
vt -52.7907 15.8293 0.0000
vt -56.6905 15.3713 0.0000
vt -52.6314 9.6529 0.0000
vt -57.1911 14.9545 0.0000
vt -56.5134 9.0631 0.0000
vt -58.4995 8.5323 0.0000
vt -64.1041 11.4655 0.0000
vt -61.4218 8.0859 0.0000
vt -46.8714 20.3546 0.0000
vt -53.0666 20.0147 0.0000
vt -52.8856 14.0797 0.0000
vt -66.7329 15.8312 0.0000
vt -65.9988 27.4671 0.0000
vt -71.4913 25.7612 0.0000
vt -59.3733 13.1362 0.0000
vt -60.2881 5.8923 0.0000
vt -57.0675 6.9151 0.0000
vt -63.2166 11.9137 0.0000
vt -72.0566 14.2059 0.0000
vt -69.7450 10.8523 0.0000
vt -52.8634 17.6821 0.0000
vt -56.4212 13.9203 0.0000
vt -52.7944 14.3347 0.0000
vt -89.7732 -6.6605 0.0000
vt -92.0939 1.2331 0.0000
vt -92.9686 -4.4052 0.0000
vt -91.8969 -0.8304 0.0000
vt -95.8155 -4.2242 0.0000
vt -92.6467 -6.4867 0.0000
vt -66.9523 16.1368 0.0000
vt -74.4466 14.1855 0.0000
vt -72.0925 10.9168 0.0000
vt -62.7671 14.9022 0.0000
vt -63.1660 6.0803 0.0000
vt -59.3962 7.3631 0.0000
vt -71.7944 16.0775 0.0000
vt -63.0806 13.3445 0.0000
vt -66.3331 20.9605 0.0000
vt -54.1453 3.8386 0.0000
vt -57.9390 6.5663 0.0000
vt -54.5730 3.1773 0.0000
vt -62.2635 16.8066 0.0000
vt -60.5924 28.5109 0.0000
vt -66.1604 27.1234 0.0000
vt -57.1908 14.9190 0.0000
vt -58.9060 8.5949 0.0000
vt -56.5093 9.0281 0.0000
vt -56.0229 11.1005 0.0000
vt -58.9534 14.0708 0.0000
vt -58.7989 10.2763 0.0000
vt -52.8753 19.9035 0.0000
vt -52.9469 16.5561 0.0000
vt -49.9739 16.5561 0.0000
vt -57.1702 8.8825 0.0000
vt -54.7067 16.0493 0.0000
vt -59.2452 15.1843 0.0000
vt -59.1279 11.2796 0.0000
vt -57.1469 17.5255 0.0000
vt -60.4533 16.8278 0.0000
vt -63.2180 11.7286 0.0000
vt -69.7449 10.6578 0.0000
vt -66.8838 6.8768 0.0000
vt -60.1126 6.3746 0.0000
vt -66.7624 7.5337 0.0000
vt -63.8075 3.7575 0.0000
vt -64.7707 31.0384 0.0000
vt -66.1331 19.4593 0.0000
vt -61.5198 20.5001 0.0000
vt -56.1325 24.2239 0.0000
vt -59.3264 11.6708 0.0000
vt -57.1321 20.5516 0.0000
vt -62.1073 19.4470 0.0000
vt -75.5684 38.2411 0.0000
vt -72.6025 19.7786 0.0000
vt -67.2359 21.8468 0.0000
vt -86.0388 24.9590 0.0000
vt -91.0838 23.7844 0.0000
vt -90.7775 15.5624 0.0000
vt -86.9152 1.1382 0.0000
vt -87.3996 14.7135 0.0000
vt -91.0432 4.8406 0.0000
vt -54.9188 12.8986 0.0000
vt -56.9904 5.6089 0.0000
vt -53.1749 6.4887 0.0000
vt -53.3207 15.6074 0.0000
vt -57.1915 15.0169 0.0000
vt -52.6393 9.7088 0.0000
vt -73.4034 -2.1260 0.0000
vt -86.7115 -2.0743 0.0000
vt -79.9458 -7.6975 0.0000
vt -57.5201 18.4872 0.0000
vt -59.4038 9.5354 0.0000
vt -54.9198 10.6489 0.0000
vt -50.5442 35.9529 0.0000
vt -60.4714 53.5267 0.0000
vt -56.4150 35.7372 0.0000
vt -72.9425 19.4447 0.0000
vt -74.6417 7.5571 0.0000
vt -67.2910 9.9944 0.0000
vt -86.7071 -1.1405 0.0000
vt -73.3990 -1.1859 0.0000
vt -87.5493 12.4173 0.0000
vt -92.3740 6.9166 0.0000
vt -98.1620 5.3704 0.0000
vt -96.5344 3.8241 0.0000
vt -61.4899 25.7821 0.0000
vt -62.6433 14.0156 0.0000
vt -57.7415 15.4104 0.0000
vt -46.5198 23.2675 0.0000
vt -52.8258 17.2859 0.0000
vt -45.9656 17.3474 0.0000
vt -73.8903 4.6293 0.0000
vt -80.8645 -0.3912 0.0000
vt -73.1904 -7.3586 0.0000
vt -66.9215 7.6758 0.0000
vt -60.3168 6.2821 0.0000
vt -63.2043 12.4883 0.0000
vt -60.3289 6.4310 0.0000
vt -59.3508 13.6666 0.0000
vt -63.1996 12.6450 0.0000
vt -62.5705 17.7754 0.0000
vt -60.5809 26.3793 0.0000
vt -65.2475 25.6122 0.0000
vt -56.2889 12.2680 0.0000
vt -56.7120 15.6659 0.0000
vt -59.1241 15.3294 0.0000
vt -53.1973 13.6114 0.0000
vt -47.0139 14.1241 0.0000
vt -48.1888 20.6538 0.0000
vt -61.7993 23.4264 0.0000
vt -75.6416 38.0773 0.0000
vt -67.2723 21.7018 0.0000
vt -71.5830 24.2053 0.0000
vt -73.3992 42.8161 0.0000
vt -79.8465 42.0095 0.0000
vt -29.8355 28.1947 0.0000
vt -24.4966 31.5876 0.0000
vt -28.4821 33.7362 0.0000
vt -33.9442 50.1964 0.0000
vt -39.8168 50.3560 0.0000
vt -35.4351 39.2693 0.0000
vt -40.1974 36.2182 0.0000
vt -34.3579 35.5626 0.0000
vt -38.4328 44.2859 0.0000
vt -35.0300 36.5902 0.0000
vt -40.8835 37.1068 0.0000
vt -35.9502 30.0115 0.0000
vt -13.3565 69.7507 0.0000
vt -15.1727 51.1399 0.0000
vt -6.9092 68.9441 0.0000
vt -9.1693 70.5202 0.0000
vt -23.0117 55.8693 0.0000
vt -17.5387 54.1447 0.0000
vt -42.3598 30.2048 0.0000
vt -36.1765 29.6920 0.0000
vt -41.1849 36.7345 0.0000
vt -32.3142 31.4361 0.0000
vt -32.7373 28.0381 0.0000
vt -29.9021 31.0995 0.0000
vt -28.8044 42.5590 0.0000
vt -26.8148 33.9551 0.0000
vt -24.1378 41.7920 0.0000
vt -27.5088 39.4589 0.0000
vt -26.5308 32.2233 0.0000
vt -23.6600 38.4372 0.0000
vt -26.4672 32.3055 0.0000
vt -19.8625 33.6991 0.0000
vt -23.5796 38.5116 0.0000
vt 5.6065 49.8422 0.0000
vt -1.3676 54.8628 0.0000
vt -2.0675 42.8748 0.0000
vt -22.7134 44.8634 0.0000
vt -23.8668 56.6300 0.0000
vt -27.6152 46.2582 0.0000
vt 30.7930 65.0119 0.0000
vt 25.0050 66.5581 0.0000
vt 29.1653 63.4656 0.0000
vt 2.6344 54.9760 0.0000
vt 15.9425 55.0213 0.0000
vt 16.7847 68.5792 0.0000
vt -9.3686 41.7762 0.0000
vt -11.0677 53.6637 0.0000
vt -16.7193 44.2135 0.0000
vt -29.4641 66.7507 0.0000
vt -39.3912 49.1769 0.0000
vt -33.5205 48.9612 0.0000
vt -26.6847 38.0951 0.0000
vt -28.5683 47.0470 0.0000
vt -31.1687 39.2086 0.0000
vt 15.9191 54.2674 0.0000
vt 2.6110 54.2157 0.0000
vt 9.1534 48.6442 0.0000
vt -30.9612 35.3826 0.0000
vt -34.8321 35.9731 0.0000
vt -35.5135 30.0746 0.0000
vt -29.1107 33.7199 0.0000
vt -31.1823 41.0096 0.0000
vt -32.9262 34.5997 0.0000
vt 15.1311 68.9921 0.0000
vt 14.6467 55.4168 0.0000
vt 18.7747 59.1191 0.0000
vt 12.9403 69.4296 0.0000
vt 7.8953 70.6042 0.0000
vt 12.6340 61.2076 0.0000
vt -12.2826 52.0311 0.0000
vt -9.3168 70.4937 0.0000
vt -17.6493 54.0993 0.0000
vt -29.9442 46.0840 0.0000
vt -27.7498 37.2032 0.0000
vt -24.9689 44.9793 0.0000
vt -32.5933 43.6303 0.0000
vt -22.0921 41.1054 0.0000
vt -23.4545 52.6845 0.0000
vt -26.7054 42.1462 0.0000
vt -18.9549 36.0831 0.0000
vt -25.6048 34.9239 0.0000
vt -21.9099 32.3069 0.0000
vt -16.7339 37.6199 0.0000
vt -23.2609 38.6907 0.0000
vt -19.5951 33.8389 0.0000
vt -31.8992 34.2760 0.0000
vt -29.9183 28.0300 0.0000
vt -28.5928 33.5783 0.0000
vt -37.0156 43.8966 0.0000
vt -31.2048 43.0225 0.0000
vt -34.2371 54.5515 0.0000
vt -32.9013 39.4173 0.0000
vt -30.4379 32.2505 0.0000
vt -28.3628 38.5523 0.0000
vt -37.1988 26.5623 0.0000
vt -37.2704 29.9097 0.0000
vt -40.1718 26.5623 0.0000
vt -29.3260 32.4445 0.0000
vt -32.2566 29.4743 0.0000
vt -29.4805 28.6501 0.0000
vt -29.1966 29.1368 0.0000
vt -30.9117 35.4609 0.0000
vt -31.5932 29.5699 0.0000
vt -26.0797 55.5599 0.0000
vt -24.4086 43.8556 0.0000
vt -20.5116 54.1725 0.0000
vt -21.0683 40.1197 0.0000
vt -24.8620 37.3920 0.0000
vt -24.4344 36.7308 0.0000
vt -24.7730 36.0942 0.0000
vt -16.0592 38.8271 0.0000
vt -21.5204 43.7101 0.0000
vt -21.5779 38.1879 0.0000
vt -21.9768 47.0099 0.0000
vt -25.3477 39.4708 0.0000
vt -11.6946 42.5570 0.0000
vt -19.1889 44.5084 0.0000
vt -14.0488 39.2884 0.0000
vt 33.2849 60.5111 0.0000
vt 29.3664 63.9049 0.0000
vt 30.1162 58.2486 0.0000
vt 28.0913 64.5612 0.0000
vt 25.7706 56.6675 0.0000
vt 28.9660 58.9229 0.0000
vt -33.0283 27.6991 0.0000
vt -36.5860 31.4608 0.0000
vt -36.6550 28.1134 0.0000
vt -14.4639 41.0248 0.0000
vt -23.3039 38.7326 0.0000
vt -16.7754 37.6712 0.0000
vt -26.3238 32.4441 0.0000
vt -27.2387 39.6880 0.0000
vt -29.5445 33.4670 0.0000
vt -20.8890 53.8559 0.0000
vt -20.1549 42.2201 0.0000
vt -15.3965 52.1500 0.0000
vt -36.7607 32.8742 0.0000
vt -42.9560 33.2141 0.0000
vt -36.9417 26.9392 0.0000
vt -22.6935 35.3110 0.0000
vt -28.2980 32.3778 0.0000
vt -25.3758 31.9314 0.0000
vt -30.9272 35.4403 0.0000
vt -35.4869 30.1387 0.0000
vt -31.6049 29.5489 0.0000
vt -36.1165 32.0787 0.0000
vt -32.6583 28.2251 0.0000
vt -32.2167 31.6207 0.0000
vt -28.6616 33.4491 0.0000
vt -28.9441 29.6620 0.0000
vt -25.7319 33.0552 0.0000
vt -44.4945 28.7062 0.0000
vt -40.4507 25.2375 0.0000
vt -37.6341 28.6566 0.0000
vt -30.3794 51.2481 0.0000
vt -18.8951 67.8123 0.0000
vt -25.1071 68.7159 0.0000
vt -56.7003 20.0991 0.0000
vt -50.8895 20.9733 0.0000
vt -53.6680 31.6282 0.0000
vt -54.4725 59.8820 0.0000
vt -46.6268 41.2855 0.0000
vt -47.2051 59.8820 0.0000
vt -44.2452 44.1115 0.0000
vt -36.3994 62.7080 0.0000
vt -43.6668 62.7080 0.0000
vt -37.6109 25.7528 0.0000
vt -43.9169 31.7345 0.0000
vt -44.4711 25.8143 0.0000
vt -44.4578 28.7779 0.0000
vt -42.4836 25.0864 0.0000
vt -40.4232 25.2986 0.0000
vt -47.9427 17.0262 0.0000
vt -45.9684 20.7178 0.0000
vt -50.0031 17.2384 0.0000
vt -45.4582 25.6479 0.0000
vt -47.7491 22.1440 0.0000
vt -43.1673 22.1440 0.0000
# 335 texture coords

o cofre1
g cofre1
usemtl wire_204204204
s off
f 1/1/1 2/2/2 3/3/3 
f 4/4/4 5/5/5 6/6/6 
f 5/7/5 4/8/4 7/9/7 
f 8/10/8 9/11/9 10/12/10 
f 11/13/11 2/14/2 12/15/12 
f 13/16/13 14/17/14 15/18/15 
f 16/19/16 9/20/9 17/21/17 
f 18/22/18 15/23/15 19/24/19 
f 15/25/15 20/26/20 19/27/19 
f 9/28/9 8/29/8 17/30/17 
f 21/31/21 7/32/7 15/33/15 
f 22/34/22 23/35/23 24/36/24 
f 25/37/25 10/38/10 20/39/20 
f 26/40/26 27/41/27 28/42/28 
f 15/43/15 18/44/18 29/45/29 
f 30/46/30 31/47/31 32/48/32 
f 31/49/31 33/50/33 32/51/32 
f 22/52/22 34/53/34 27/54/27 
f 35/55/35 26/56/26 25/57/25 
f 27/58/27 26/59/26 22/60/22 
f 16/61/16 17/62/17 36/63/36 
f 35/64/35 2/65/2 23/66/23 
f 20/67/20 9/68/9 19/69/19 
f 18/70/18 9/71/9 16/72/16 
f 15/73/15 29/74/29 13/75/13 
f 20/76/20 4/77/4 25/78/25 
f 9/79/9 20/80/20 10/81/10 
f 26/82/26 28/83/28 37/84/37 
f 10/85/10 37/86/37 8/87/8 
f 23/88/23 22/89/22 35/90/35 
f 6/6/6 3/91/3 4/4/4 
f 25/92/25 3/93/3 35/94/35 
f 11/95/11 24/96/24 23/97/23 
f 38/98/38 31/99/31 30/100/30 
f 39/101/39 38/102/38 30/103/30 
f 4/104/4 20/105/20 7/106/7 
f 7/107/7 20/108/20 15/109/15 
f 24/110/24 39/111/39 40/112/40 
f 3/113/3 25/114/25 4/115/4 
f 1/116/1 12/117/12 2/118/2 
f 24/119/24 34/120/34 22/121/22 
f 39/122/39 24/123/24 38/124/38 
f 31/125/31 41/126/41 33/127/33 
f 2/128/2 35/129/35 3/130/3 
f 21/131/21 15/132/15 14/133/14 
f 24/134/24 40/135/40 34/136/34 
f 37/137/37 10/138/10 26/139/26 
f 10/140/10 25/141/25 26/142/26 
f 26/143/26 35/144/35 22/145/22 
f 18/146/18 19/147/19 9/148/9 
f 7/149/7 21/150/21 5/151/5 
f 2/152/2 11/153/11 23/154/23 
f 24/155/24 11/156/11 38/157/38 
f 42/158/42 43/159/43 44/160/44 
f 45/161/45 1/162/1 46/163/46 
f 5/164/5 47/165/47 6/166/6 
f 47/167/47 5/168/5 48/169/48 
f 49/170/49 50/171/50 51/172/51 
f 49/173/49 45/174/45 52/175/52 
f 21/176/21 48/177/48 5/178/5 
f 53/179/53 54/180/54 42/181/42 
f 55/182/55 56/183/56 57/184/57 
f 58/185/58 44/186/44 56/187/56 
f 44/188/44 59/189/59 56/190/56 
f 60/191/60 50/192/50 61/193/61 
f 55/194/55 45/195/45 46/196/46 
f 62/197/62 63/198/63 64/199/64 
f 50/200/50 65/201/65 51/202/51 
f 61/203/61 50/204/50 57/205/57 
f 66/206/66 1/207/1 45/208/45 
f 58/209/58 46/210/46 47/211/47 
f 65/212/65 50/213/50 60/214/60 
f 67/215/67 48/216/48 68/217/68 
f 67/218/67 47/219/47 48/220/48 
f 51/221/51 65/222/65 69/223/69 
f 63/224/63 51/225/51 69/226/69 
f 50/227/50 49/228/49 52/229/52 
f 46/230/46 58/231/58 55/232/55 
f 46/233/46 6/166/6 47/165/47 
f 57/234/57 52/235/52 55/236/55 
f 59/237/59 44/238/44 43/239/43 
f 70/240/70 56/241/56 59/242/59 
f 67/243/67 42/244/42 44/245/44 
f 6/246/6 46/247/46 1/248/1 
f 47/249/47 67/250/67 58/251/58 
f 71/252/71 68/253/68 72/254/72 
f 42/255/42 54/256/54 73/257/73 
f 42/258/42 67/259/67 53/260/53 
f 45/261/45 55/262/55 52/263/52 
f 74/264/74 73/265/73 75/266/75 
f 56/267/56 76/268/76 57/269/57 
f 56/270/56 55/271/55 58/272/58 
f 61/273/61 57/274/57 76/275/76 
f 64/276/64 63/277/63 77/278/77 
f 63/279/63 69/280/69 77/281/77 
f 54/282/54 68/283/68 71/284/71 
f 76/285/76 56/286/56 70/287/70 
f 44/288/44 58/289/58 67/290/67 
f 52/291/52 57/292/57 50/293/50 
f 48/294/48 21/295/21 68/296/68 
f 43/297/43 42/298/42 74/299/74 
f 67/300/67 68/301/68 53/302/53 
f 68/303/68 54/304/54 53/305/53 
f 42/306/42 73/307/73 74/308/74 
f 14/309/14 72/310/72 68/311/68 
f 45/312/45 49/313/49 66/314/66 
f 78/315/3 79/316/6 80/317/1 
f 81/318/12 80/319/1 82/320/78 
f 83/321/1 84/322/66 82/323/78 
f 85/324/68 86/325/21 87/326/79 
f 87/327/79 88/328/80 89/329/72 
f 90/330/81 87/331/79 91/332/13 
f 87/333/79 90/334/81 88/335/80 
# 0 polygons - 113 triangles

