# 3ds Max Wavefront OBJ Exporter v0.99 - (c)2007 guruware
# File Created: 15.03.2025 18:44:42

mtllib Cuerpo.mtl

#
# object Cuerpo
#

v  -1.5603 0.4485 -1.2796
v  -1.5603 0.4485 1.1912
v  1.3079 1.6671 1.1912
v  1.3079 1.6671 -1.2796
v  -0.9673 -0.9668 1.1912
v  1.9009 0.2519 1.1912
v  -0.9673 -0.9668 -1.2796
v  1.9009 0.2519 -1.2796
v  -1.4902 0.2168 -0.1239
v  -1.5068 0.2354 0.0898
v  -1.5911 0.4353 0.1040
v  -1.5747 0.4168 -0.1097
v  -2.1926 0.3561 0.0260
v  -2.1989 0.3633 0.1096
v  -1.8830 0.2208 0.1337
v  -1.8664 0.2022 -0.0800
v  -1.8780 0.4103 0.1371
v  -1.8615 0.3918 -0.0765
v  -2.3677 0.5253 0.0982
v  -2.1971 0.4376 0.1110
v  -2.3727 0.5152 0.0986
v  -2.1906 0.4303 0.0273
v  -2.3717 0.5140 0.0850
v  -2.3666 0.5241 0.0847
# 24 vertices

vn -0.3910 0.9204 -0.0000
vn -0.0000 -0.0000 1.0000
vn -0.9223 -0.3864 -0.0000
vn 0.3911 -0.9204 -0.0000
vn 0.9223 0.3865 -0.0000
vn -0.0000 -0.0000 -1.0000
vn -0.9217 -0.3860 -0.0378
vn -0.9217 -0.3860 -0.0377
vn 0.4138 0.9091 -0.0469
vn 0.4137 0.9092 -0.0469
vn -0.0492 0.9947 -0.0904
vn 0.0973 -0.9909 0.0934
vn 0.0971 -0.9909 0.0932
vn -0.1168 0.0212 -0.9929
vn -0.1166 0.0213 -0.9930
vn 0.1166 -0.0213 0.9929
vn 0.1168 -0.0209 0.9929
vn 0.0726 0.0056 -0.9973
vn 0.0725 0.0056 -0.9974
vn -0.0914 -0.9927 0.0789
vn -0.0913 -0.9927 0.0790
vn 0.0832 0.0158 -0.9964
vn 0.0833 0.0161 -0.9964
vn 0.2981 -0.0253 0.9542
vn 0.2981 -0.0255 0.9542
vn 0.8895 -0.4442 0.1073
vn 0.2888 -0.0350 0.9567
vn 0.2888 -0.0350 0.9568
vn 0.6586 0.7524 -0.0145
vn 0.6585 0.7524 -0.0144
vn -0.4594 -0.8873 0.0413
vn -0.4592 -0.8874 0.0416
# 32 vertex normals

vt 0.8750 0.5000 0.0000
vt 0.8750 0.7500 0.0000
vt 0.6250 0.7500 0.0000
vt 0.6250 0.5000 0.0000
vt 0.6250 1.0000 0.0000
vt 0.3750 1.0000 0.0000
vt 0.3750 0.7500 0.0000
vt 0.6250 0.0000 0.0000
vt 0.6250 0.2500 0.0000
vt 0.3750 0.2500 0.0000
vt 0.3750 0.0000 0.0000
vt 0.3750 0.5000 0.0000
vt 0.1250 0.7500 0.0000
vt 0.1250 0.5000 0.0000
vt 1.0000 0.0000 0.0000
vt 1.0000 1.0000 0.0000
vt 0.0000 1.0000 0.0000
vt 0.0000 0.0000 0.0000
# 18 texture coords

o Cuerpo
g Cuerpo
usemtl wire_134110008
s off
f 1/1/1 2/2/1 3/3/1 
f 3/3/1 4/4/1 1/1/1 
f 3/3/2 2/5/2 5/6/2 
f 5/6/2 6/7/2 3/3/2 
f 2/8/3 1/9/3 7/10/3 
f 7/10/3 5/11/3 2/8/3 
f 8/12/4 6/7/4 5/13/4 
f 5/13/4 7/14/4 8/12/4 
f 4/4/5 3/3/5 6/7/5 
f 6/7/5 8/12/5 4/4/5 
f 1/9/6 4/4/6 8/12/6 
f 8/12/6 7/10/6 1/9/6 
f 9/15/7 10/16/7 11/17/7 
f 11/17/8 12/18/8 9/15/8 
f 13/15/9 14/16/9 15/16/9 
f 15/16/10 16/15/10 13/15/10 
f 16/15/11 15/16/11 10/16/11 
f 10/16/11 9/15/11 16/15/11 
f 17/17/12 18/18/12 12/18/12 
f 12/18/13 11/17/13 17/17/13 
f 15/16/14 17/17/14 11/17/14 
f 11/17/15 10/16/15 15/16/15 
f 18/18/16 16/15/16 9/15/16 
f 9/15/17 12/18/17 18/18/17 
f 19/17/18 20/17/19 14/16/19 
f 14/16/19 21/16/19 19/17/19 
f 20/17/20 22/18/20 18/18/20 
f 18/18/21 17/17/21 20/17/21 
f 17/17/22 15/16/22 14/16/22 
f 14/16/23 20/17/23 17/17/23 
f 13/15/24 16/15/24 18/18/24 
f 18/18/25 22/18/25 13/15/25 
f 19/17/26 21/16/26 23/15/26 
f 23/15/26 24/18/26 19/17/26 
f 22/18/27 24/18/28 23/15/28 
f 23/15/28 13/15/28 22/18/28 
f 21/16/29 14/16/29 13/15/29 
f 13/15/30 23/15/30 21/16/30 
f 24/18/31 22/18/31 20/17/31 
f 20/17/32 19/17/32 24/18/32 
# 0 polygons - 40 triangles

