# 3ds Max Wavefront OBJ Exporter v0.99 - (c)2007 guruware
# File Created: 25.03.2025 19:32:50

mtllib dado_animales.mtl

#
# object Box001
#

v  -3.9527 -3.9527 3.9527
v  -3.9527 -3.9527 -3.9527
v  3.9527 -3.9527 -3.9527
v  3.9527 -3.9527 3.9527
v  -3.9527 3.9527 3.9527
v  3.9527 3.9527 3.9527
v  3.9527 3.9527 -3.9527
v  -3.9527 3.9527 -3.9527
# 8 vertices

vn -0.5774 -0.5774 0.5774
vn -0.5774 -0.5774 -0.5774
vn 0.5774 -0.5774 -0.5774
vn 0.5774 -0.5774 0.5774
vn -0.5774 0.5774 0.5774
vn 0.5774 0.5774 0.5774
vn 0.5774 0.5774 -0.5774
vn -0.5774 0.5774 -0.5774
# 8 vertex normals

vt 0.7477 0.0059 0.0000
vt 0.7477 0.3289 0.0000
vt 0.5049 0.3289 0.0000
vt 0.5049 0.0059 0.0000
vt 0.7481 0.9961 0.0000
vt 0.5054 0.9961 0.0000
vt 0.5054 0.6744 0.0000
vt 0.7481 0.6744 0.0000
vt 0.0041 0.3405 0.0000
vt 0.2450 0.3405 0.0000
vt 0.2450 0.6611 0.0000
vt 0.0041 0.6611 0.0000
vt 0.2564 0.3412 0.0000
vt 0.4952 0.3412 0.0000
vt 0.4952 0.6635 0.0000
vt 0.2564 0.6635 0.0000
vt 0.5044 0.3389 0.0000
vt 0.7478 0.3389 0.0000
vt 0.7478 0.6624 0.0000
vt 0.5044 0.6624 0.0000
vt 0.7537 0.3389 0.0000
vt 0.9953 0.3389 0.0000
vt 0.9953 0.6629 0.0000
vt 0.7537 0.6629 0.0000
# 24 texture coords

o Box001
g Box001
usemtl 01___Default
s 2
f 1/1/1 2/2/2 3/3/3 4/4/4 
s 4
f 5/5/5 6/6/6 7/7/7 8/8/8 
s 8
f 1/9/1 4/10/4 6/11/6 5/12/5 
s 16
f 4/13/4 3/14/3 7/15/7 6/16/6 
s 32
f 3/17/3 2/18/2 8/19/8 7/20/7 
s 64
f 2/21/2 1/22/1 5/23/5 8/24/8 
# 6 polygons

