# 3ds Max Wavefront OBJ Exporter v0.99 - (c)2007 guruware
# File Created: 05.04.2025 11:59:32

mtllib Lampara2.mtl

#
# object Cylinder_Cylinder_002
#

v  0.0000 -4.8092 -1.0000
v  0.1951 -4.8092 -0.9808
v  0.1951 -5.3197 -0.9808
v  0.0000 -5.3197 -1.0000
v  0.3827 -4.8092 -0.9239
v  0.3827 -5.3197 -0.9239
v  0.5556 -4.8092 -0.8315
v  0.5556 -5.3197 -0.8315
v  0.7071 -4.8092 -0.7071
v  0.7071 -5.3197 -0.7071
v  0.8315 -4.8092 -0.5556
v  0.8315 -5.3197 -0.5556
v  0.9239 -4.8092 -0.3827
v  0.9239 -5.3197 -0.3827
v  0.9808 -4.8092 -0.1951
v  0.9808 -5.3197 -0.1951
v  1.0000 -4.8092 -0.0000
v  1.0000 -5.3197 -0.0000
v  0.9808 -4.8092 0.1951
v  0.9808 -5.3197 0.1951
v  0.9239 -4.8092 0.3827
v  0.9239 -5.3197 0.3827
v  0.8315 -4.8092 0.5556
v  0.8315 -5.3197 0.5556
v  0.7071 -4.8092 0.7071
v  0.7071 -5.3197 0.7071
v  0.5556 -4.8092 0.8315
v  0.5556 -5.3197 0.8315
v  0.3827 -4.8092 0.9239
v  0.3827 -5.3197 0.9239
v  0.1951 -4.8092 0.9808
v  0.1951 -5.3197 0.9808
v  -0.0000 -4.8092 1.0000
v  -0.0000 -5.3197 1.0000
v  -0.1951 -4.8092 0.9808
v  -0.1951 -5.3197 0.9808
v  -0.3827 -4.8092 0.9239
v  -0.3827 -5.3197 0.9239
v  -0.5556 -4.8092 0.8315
v  -0.5556 -5.3197 0.8315
v  -0.7071 -4.8092 0.7071
v  -0.7071 -5.3197 0.7071
v  -0.8315 -4.8092 0.5556
v  -0.8315 -5.3197 0.5556
v  -0.9239 -4.8092 0.3827
v  -0.9239 -5.3197 0.3827
v  -0.9808 -4.8092 0.1951
v  -0.9808 -5.3197 0.1951
v  -1.0000 -4.8092 -0.0000
v  -1.0000 -5.3197 -0.0000
v  -0.9808 -4.8092 -0.1951
v  -0.9808 -5.3197 -0.1951
v  -0.9239 -4.8092 -0.3827
v  -0.9239 -5.3197 -0.3827
v  -0.8315 -4.8092 -0.5556
v  -0.8315 -5.3197 -0.5556
v  -0.7071 -4.8092 -0.7071
v  -0.7071 -5.3197 -0.7071
v  -0.5556 -4.8092 -0.8315
v  -0.5556 -5.3197 -0.8315
v  -0.3827 -4.8092 -0.9239
v  -0.3827 -5.3197 -0.9239
v  -0.6422 -4.5123 0.2660
v  -0.6818 -4.5123 0.1356
v  -0.1951 -4.8092 -0.9808
v  -0.1951 -5.3197 -0.9808
v  -0.6422 -4.5123 -0.2660
v  -0.6422 -4.3381 -0.2660
v  -0.5780 -4.3381 -0.3862
v  -0.5780 -4.5123 -0.3862
v  0.0000 -4.5123 -0.6952
v  0.1356 -4.5123 -0.6818
v  -0.1356 -4.5123 -0.6818
v  0.6818 -4.5123 0.1356
v  0.6422 -4.5123 0.2660
v  -0.2660 -4.5123 0.6422
v  -0.3862 -4.5123 0.5780
v  -0.4915 -4.5123 -0.4915
v  0.5780 -4.5123 -0.3862
v  0.6422 -4.5123 -0.2660
v  0.2660 -4.5123 0.6422
v  0.1356 -4.5123 0.6818
v  -0.6952 -4.5123 -0.0000
v  0.2660 -4.5123 -0.6422
v  0.5780 -4.5123 0.3862
v  -0.4916 -4.5123 0.4915
v  -0.3862 -4.5123 -0.5780
v  0.6818 -4.5123 -0.1356
v  0.0000 -4.5123 0.6952
v  -0.6818 -4.5123 -0.1356
v  0.3862 -4.5123 -0.5780
v  0.4915 -4.5123 0.4915
v  -0.5780 -4.5123 0.3862
v  -0.2660 -4.5123 -0.6422
v  0.6952 -4.5123 -0.0000
v  -0.1356 -4.5123 0.6818
v  0.4915 -4.5123 -0.4915
v  0.3862 -4.5123 0.5780
v  0.2660 -4.3381 -0.6422
v  0.3407 -3.9740 -0.8226
v  0.4947 -3.9740 -0.7403
v  0.3862 -4.3381 -0.5780
v  0.3862 -4.3381 0.5780
v  0.2660 -4.3381 0.6422
v  0.0000 -4.3381 -0.6952
v  0.1356 -4.3381 -0.6818
v  -0.4915 -4.3381 -0.4915
v  0.1356 -4.3381 0.6818
v  -0.3862 -4.3381 -0.5780
v  0.0000 -4.3381 0.6952
v  -0.2660 -4.3381 -0.6422
v  -0.1356 -4.3381 0.6818
v  0.4915 -4.3381 -0.4915
v  -0.1356 -4.3381 -0.6818
v  -0.2660 -4.3381 0.6422
v  0.5780 -4.3381 -0.3862
v  -0.3862 -4.3381 0.5780
v  0.6422 -4.3381 -0.2660
v  -0.4916 -4.3381 0.4915
v  0.6818 -4.3381 -0.1356
v  -0.5780 -4.3381 0.3862
v  0.6952 -4.3381 -0.0000
v  -0.6422 -4.3381 0.2660
v  0.6818 -4.3381 0.1356
v  -0.6818 -4.3381 0.1356
v  0.6422 -4.3381 0.2660
v  -0.6952 -4.3381 -0.0000
v  0.5780 -4.3381 0.3862
v  -0.6818 -4.3381 -0.1356
v  0.4915 -4.3381 0.4915
v  0.7403 -3.9740 -0.4947
v  0.5362 -2.1793 -0.3582
v  0.5957 -2.1793 -0.2468
v  0.8226 -3.9740 -0.3407
v  -0.4947 -3.9740 -0.7403
v  -0.3407 -3.9740 -0.8226
v  0.0000 -3.9740 0.8904
v  -0.1737 -3.9740 0.8733
v  0.6296 -3.9740 -0.6296
v  -0.1737 -3.9740 -0.8733
v  -0.3407 -3.9740 0.8226
v  0.0000 -3.9740 -0.8904
v  -0.4947 -3.9740 0.7403
v  -0.6296 -3.9740 0.6296
v  0.8733 -3.9740 -0.1737
v  -0.7403 -3.9740 0.4947
v  0.8904 -3.9740 -0.0000
v  -0.8226 -3.9740 0.3407
v  0.8733 -3.9740 0.1737
v  -0.8733 -3.9740 0.1737
v  0.8226 -3.9740 0.3407
v  -0.8904 -3.9740 -0.0000
v  0.7403 -3.9740 0.4947
v  -0.8733 -3.9740 -0.1737
v  0.6296 -3.9740 0.6296
v  -0.8226 -3.9740 -0.3407
v  0.4947 -3.9740 0.7403
v  -0.7403 -3.9740 -0.4947
v  0.3407 -3.9740 0.8226
v  0.1737 -3.9740 -0.8733
v  -0.6296 -3.9740 -0.6296
v  0.1737 -3.9740 0.8733
v  0.6448 -2.1793 -0.0000
v  0.3990 -0.1887 -0.0000
v  0.3914 -0.1887 0.0778
v  0.6324 -2.1793 0.1258
v  -0.3582 -2.1793 0.5362
v  -0.4560 -2.1793 0.4560
v  0.6324 -2.1793 -0.1258
v  -0.5362 -2.1793 0.3582
v  -0.5957 -2.1793 0.2468
v  -0.6324 -2.1793 0.1258
v  0.5957 -2.1793 0.2468
v  -0.6448 -2.1793 -0.0000
v  0.5362 -2.1793 0.3582
v  -0.6324 -2.1793 -0.1258
v  0.4560 -2.1793 0.4560
v  -0.5957 -2.1793 -0.2468
v  0.3582 -2.1793 0.5362
v  -0.5362 -2.1793 -0.3582
v  0.2468 -2.1793 0.5957
v  0.0000 -2.1793 -0.6448
v  0.1258 -2.1793 -0.6324
v  -0.4560 -2.1793 -0.4560
v  0.1258 -2.1793 0.6324
v  0.2468 -2.1793 -0.5957
v  -0.3582 -2.1793 -0.5362
v  0.0000 -2.1793 0.6448
v  0.3582 -2.1793 -0.5362
v  -0.2468 -2.1793 -0.5957
v  -0.1258 -2.1793 0.6324
v  0.4560 -2.1793 -0.4560
v  -0.1258 -2.1793 -0.6324
v  -0.2468 -2.1793 0.5957
v  0.3318 -0.1887 0.2217
v  0.4908 0.0385 0.3280
v  0.4174 0.0385 0.4174
v  0.2822 -0.1887 0.2822
v  -0.3687 -0.1887 0.1527
v  -0.3914 -0.1887 0.0778
v  0.3687 -0.1887 0.1527
v  -0.3990 -0.1887 -0.0000
v  -0.3914 -0.1887 -0.0779
v  -0.3687 -0.1887 -0.1527
v  0.2217 -0.1887 0.3318
v  -0.3318 -0.1887 -0.2217
v  0.1527 -0.1887 0.3687
v  0.0000 -0.1887 -0.3990
v  0.0778 -0.1887 -0.3914
v  -0.2822 -0.1887 -0.2822
v  0.0778 -0.1887 0.3914
v  0.1527 -0.1887 -0.3687
v  -0.2217 -0.1887 -0.3318
v  0.0000 -0.1887 0.3990
v  0.2217 -0.1887 -0.3318
v  -0.1527 -0.1887 -0.3687
v  -0.0778 -0.1887 0.3914
v  0.2822 -0.1887 -0.2822
v  -0.0778 -0.1887 -0.3914
v  -0.1527 -0.1887 0.3687
v  0.3318 -0.1887 -0.2217
v  -0.2217 -0.1887 0.3318
v  0.3687 -0.1887 -0.1527
v  -0.2822 -0.1887 0.2822
v  0.3914 -0.1887 -0.0778
v  -0.3318 -0.1887 0.2217
v  0.5454 0.0385 -0.2259
v  0.5454 0.1273 -0.2259
v  0.5790 0.1273 -0.1152
v  0.5790 0.0385 -0.1152
v  -0.5790 0.0385 -0.1152
v  -0.5454 0.0385 -0.2259
v  0.3280 0.0385 0.4908
v  -0.4908 0.0385 -0.3280
v  0.2259 0.0385 0.5454
v  -0.0000 0.0385 -0.5903
v  0.1152 0.0385 -0.5790
v  -0.4174 0.0385 -0.4174
v  0.1152 0.0385 0.5790
v  0.2259 0.0385 -0.5454
v  -0.3280 0.0385 -0.4908
v  -0.0000 0.0385 0.5903
v  0.3280 0.0385 -0.4908
v  -0.2259 0.0385 -0.5454
v  -0.1152 0.0385 0.5790
v  0.4174 0.0385 -0.4174
v  -0.1152 0.0385 -0.5790
v  -0.2259 0.0385 0.5454
v  0.4908 0.0385 -0.3280
v  -0.3280 0.0385 0.4908
v  -0.4174 0.0385 0.4174
v  -0.4908 0.0385 0.3280
v  0.5903 0.0385 0.0000
v  -0.5454 0.0385 0.2259
v  0.5790 0.0385 0.1152
v  -0.5790 0.0385 0.1152
v  0.5454 0.0385 0.2259
v  -0.5903 0.0385 -0.0000
v  0.5790 0.1273 0.1152
v  0.3104 0.3174 0.0617
v  0.2924 0.3174 0.1211
v  0.5454 0.1273 0.2259
v  -0.4174 0.1273 0.4174
v  -0.4908 0.1273 0.3280
v  0.5903 0.1273 0.0000
v  -0.5454 0.1273 0.2259
v  -0.5790 0.1273 0.1152
v  -0.5903 0.1273 -0.0000
v  0.4908 0.1273 0.3280
v  -0.5790 0.1273 -0.1152
v  0.4174 0.1273 0.4174
v  -0.5454 0.1273 -0.2259
v  0.3280 0.1273 0.4908
v  -0.4908 0.1273 -0.3280
v  0.2259 0.1273 0.5454
v  -0.0000 0.1273 -0.5903
v  0.1152 0.1273 -0.5790
v  -0.4174 0.1273 -0.4174
v  0.1152 0.1273 0.5790
v  0.2259 0.1273 -0.5454
v  -0.3280 0.1273 -0.4908
v  -0.0000 0.1273 0.5903
v  0.3280 0.1273 -0.4908
v  -0.2259 0.1273 -0.5454
v  -0.1152 0.1273 0.5790
v  0.4174 0.1273 -0.4174
v  -0.1152 0.1273 -0.5790
v  -0.2259 0.1273 0.5454
v  0.4908 0.1273 -0.3280
v  -0.3280 0.1273 0.4908
v  0.2238 0.3174 0.2238
v  0.2238 0.3543 0.2238
v  0.1758 0.3543 0.2631
v  0.1758 0.3174 0.2631
v  -0.3104 0.3174 0.0617
v  -0.3165 0.3174 -0.0000
v  0.2631 0.3174 0.1758
v  -0.3104 0.3174 -0.0617
v  -0.2924 0.3174 -0.1211
v  -0.2631 0.3174 -0.1758
v  0.1211 0.3174 0.2924
v  -0.0000 0.3174 -0.3165
v  0.0617 0.3174 -0.3104
v  -0.2238 0.3174 -0.2238
v  0.0617 0.3174 0.3104
v  0.1211 0.3174 -0.2924
v  -0.1758 0.3174 -0.2631
v  -0.0000 0.3174 0.3165
v  0.1758 0.3174 -0.2631
v  -0.1211 0.3174 -0.2924
v  -0.0617 0.3174 0.3104
v  0.2238 0.3174 -0.2238
v  -0.0617 0.3174 -0.3104
v  -0.1211 0.3174 0.2924
v  0.2631 0.3174 -0.1758
v  -0.1758 0.3174 0.2631
v  0.2924 0.3174 -0.1211
v  -0.2238 0.3174 0.2238
v  0.3104 0.3174 -0.0617
v  -0.2631 0.3174 0.1758
v  0.3165 0.3174 0.0000
v  -0.2924 0.3174 0.1211
v  0.0617 0.3543 0.3104
v  0.0723 0.3970 0.3634
v  -0.0000 0.3970 0.3705
v  -0.0000 0.3543 0.3165
v  -0.2924 0.3543 -0.1211
v  -0.2631 0.3543 -0.1758
v  0.1211 0.3543 0.2924
v  -0.0000 0.3543 -0.3165
v  0.0617 0.3543 -0.3104
v  -0.2238 0.3543 -0.2238
v  0.1211 0.3543 -0.2924
v  -0.1758 0.3543 -0.2631
v  0.1758 0.3543 -0.2631
v  -0.1211 0.3543 -0.2924
v  -0.0617 0.3543 0.3104
v  0.2238 0.3543 -0.2238
v  -0.0617 0.3543 -0.3104
v  -0.1211 0.3543 0.2924
v  0.2631 0.3543 -0.1758
v  -0.1758 0.3543 0.2631
v  0.2924 0.3543 -0.1211
v  -0.2238 0.3543 0.2238
v  0.3104 0.3543 -0.0617
v  -0.2631 0.3543 0.1758
v  0.3165 0.3543 0.0000
v  -0.2924 0.3543 0.1211
v  0.3104 0.3543 0.0617
v  -0.3104 0.3543 0.0617
v  0.2924 0.3543 0.1211
v  -0.3165 0.3543 -0.0000
v  0.2631 0.3543 0.1758
v  -0.3104 0.3543 -0.0617
v  -0.1418 0.3970 0.3423
v  -0.1418 0.4407 0.3423
v  -0.2058 0.4407 0.3081
v  -0.2058 0.3970 0.3081
v  0.1418 0.3970 -0.3423
v  0.2058 0.3970 -0.3081
v  -0.2058 0.3970 -0.3081
v  -0.1418 0.3970 -0.3423
v  -0.0723 0.3970 0.3634
v  0.2620 0.3970 -0.2620
v  -0.0723 0.3970 -0.3634
v  0.3081 0.3970 -0.2058
v  -0.0000 0.3970 -0.3705
v  0.3423 0.3970 -0.1418
v  -0.2620 0.3970 0.2620
v  0.3634 0.3970 -0.0723
v  -0.3081 0.3970 0.2058
v  0.3705 0.3970 0.0000
v  -0.3423 0.3970 0.1418
v  0.3634 0.3970 0.0723
v  -0.3634 0.3970 0.0723
v  0.3423 0.3970 0.1418
v  -0.3705 0.3970 -0.0000
v  0.3081 0.3970 0.2058
v  -0.3634 0.3970 -0.0723
v  0.2620 0.3970 0.2620
v  -0.3423 0.3970 -0.1418
v  0.2058 0.3970 0.3081
v  -0.3081 0.3970 -0.2058
v  0.1418 0.3970 0.3423
v  0.0723 0.3970 -0.3634
v  -0.2620 0.3970 -0.2620
v  -0.3081 0.4407 0.2058
v  -0.1657 0.5772 0.1107
v  -0.1841 0.5772 0.0762
v  -0.3423 0.4407 0.1418
v  0.3081 0.4407 -0.2058
v  0.3423 0.4407 -0.1418
v  -0.2620 0.4407 0.2620
v  0.3634 0.4407 -0.0723
v  0.3705 0.4407 0.0000
v  0.3634 0.4407 0.0723
v  -0.3634 0.4407 0.0723
v  0.3423 0.4407 0.1418
v  -0.3705 0.4407 -0.0000
v  0.3081 0.4407 0.2058
v  -0.3634 0.4407 -0.0723
v  0.2620 0.4407 0.2620
v  -0.3423 0.4407 -0.1418
v  0.2058 0.4407 0.3081
v  -0.3081 0.4407 -0.2058
v  0.1418 0.4407 0.3423
v  -0.0000 0.4407 -0.3705
v  0.0723 0.4407 -0.3634
v  -0.2620 0.4407 -0.2620
v  0.0723 0.4407 0.3634
v  0.1418 0.4407 -0.3423
v  -0.2058 0.4407 -0.3081
v  -0.0000 0.4407 0.3705
v  0.2058 0.4407 -0.3081
v  -0.1418 0.4407 -0.3423
v  -0.0723 0.4407 0.3634
v  0.2620 0.4407 -0.2620
v  -0.0723 0.4407 -0.3634
v  -0.1992 0.5772 -0.0000
v  -0.1992 5.3197 -0.0000
v  -0.1954 5.3197 -0.0389
v  -0.1954 0.5772 -0.0389
v  0.1992 0.5772 0.0000
v  0.1954 0.5772 0.0389
v  -0.1954 0.5772 0.0389
v  0.1841 0.5772 0.0762
v  0.1657 0.5772 0.1107
v  0.1409 0.5772 0.1409
v  -0.1841 0.5772 -0.0762
v  0.1107 0.5772 0.1657
v  -0.1657 0.5772 -0.1107
v  0.0762 0.5772 0.1841
v  -0.0000 0.5772 -0.1992
v  0.0389 0.5772 -0.1954
v  -0.1409 0.5772 -0.1409
v  0.0389 0.5772 0.1954
v  0.0762 0.5772 -0.1841
v  -0.1107 0.5772 -0.1657
v  -0.0000 0.5772 0.1992
v  0.1107 0.5772 -0.1657
v  -0.0762 0.5772 -0.1841
v  -0.0389 0.5772 0.1954
v  0.1409 0.5772 -0.1409
v  -0.0389 0.5772 -0.1954
v  -0.0762 0.5772 0.1841
v  0.1657 0.5772 -0.1107
v  -0.1107 0.5772 0.1657
v  0.1841 0.5772 -0.0762
v  -0.1409 0.5772 0.1409
v  0.1954 0.5772 -0.0389
v  0.1409 5.3197 -0.1409
v  0.1107 5.3197 -0.1657
v  0.0762 5.3197 -0.1841
v  0.0389 5.3197 -0.1954
v  -0.0000 5.3197 -0.1992
v  -0.0389 5.3197 -0.1954
v  -0.0762 5.3197 -0.1841
v  -0.1107 5.3197 -0.1657
v  -0.1409 5.3197 -0.1409
v  -0.1657 5.3197 -0.1107
v  -0.1841 5.3197 -0.0762
v  -0.1954 5.3197 0.0389
v  -0.1841 5.3197 0.0762
v  -0.1657 5.3197 0.1107
v  -0.1409 5.3197 0.1409
v  -0.1107 5.3197 0.1657
v  -0.0762 5.3197 0.1841
v  -0.0389 5.3197 0.1954
v  -0.0000 5.3197 0.1992
v  0.0389 5.3197 0.1954
v  0.0762 5.3197 0.1841
v  0.1107 5.3197 0.1657
v  0.1409 5.3197 0.1409
v  0.1657 5.3197 0.1107
v  0.1841 5.3197 0.0762
v  0.1954 5.3197 0.0389
v  0.1992 5.3197 0.0000
v  0.1954 5.3197 -0.0389
v  0.1841 5.3197 -0.0762
v  0.1657 5.3197 -0.1107
# 480 vertices

vn 0.0980 0.0000 -0.9952
vn 0.2903 0.0000 -0.9569
vn 0.4714 0.0000 -0.8819
vn 0.6344 0.0000 -0.7730
vn 0.7730 0.0000 -0.6344
vn 0.8819 0.0000 -0.4714
vn 0.9569 0.0000 -0.2903
vn 0.9952 0.0000 -0.0980
vn 0.9952 0.0000 0.0980
vn 0.9569 0.0000 0.2903
vn 0.8819 0.0000 0.4714
vn 0.7730 0.0000 0.6344
vn 0.6344 0.0000 0.7730
vn 0.4714 0.0000 0.8819
vn 0.2903 0.0000 0.9569
vn 0.0980 0.0000 0.9952
vn -0.0980 0.0000 0.9952
vn -0.2903 0.0000 0.9569
vn -0.4714 0.0000 0.8819
vn -0.6344 0.0000 0.7730
vn -0.7730 0.0000 0.6344
vn -0.8819 0.0000 0.4714
vn -0.9569 0.0000 0.2903
vn -0.9952 0.0000 0.0980
vn -0.9952 0.0000 -0.0980
vn -0.9569 0.0000 -0.2903
vn -0.8819 0.0000 -0.4714
vn -0.7730 0.0000 -0.6344
vn -0.6344 0.0000 -0.7730
vn -0.4714 0.0000 -0.8819
vn -0.6694 0.7147 0.2030
vn -0.2903 0.0000 -0.9569
vn -0.0980 0.0000 -0.9952
vn 0.0000 -1.0000 0.0000
vn 0.0686 0.7147 -0.6961
vn -0.0686 0.7147 -0.6961
vn 0.6694 0.7147 0.2030
vn -0.3297 0.7147 0.6169
vn -0.5407 0.7147 -0.4437
vn 0.6169 0.7147 -0.3297
vn 0.2030 0.7147 0.6694
vn -0.6961 0.7147 0.0686
vn 0.2030 0.7147 -0.6694
vn 0.6169 0.7147 0.3297
vn -0.4437 0.7147 0.5407
vn -0.4437 0.7147 -0.5407
vn 0.6694 0.7147 -0.2030
vn 0.0686 0.7147 0.6961
vn -0.6961 0.7147 -0.0686
vn 0.3297 0.7147 -0.6169
vn 0.5407 0.7147 0.4437
vn -0.5407 0.7147 0.4437
vn -0.3297 0.7147 -0.6169
vn 0.6961 0.7147 -0.0686
vn -0.0686 0.7147 0.6961
vn -0.6694 0.7147 -0.2031
vn 0.4437 0.7147 -0.5407
vn 0.4437 0.7147 0.5407
vn -0.6169 0.7147 0.3297
vn -0.2030 0.7147 -0.6694
vn 0.6961 0.7147 0.0686
vn -0.2030 0.7147 0.6694
vn -0.6169 0.7147 -0.3297
vn 0.5407 0.7147 -0.4437
vn 0.3297 0.7147 0.6169
vn 0.4159 -0.4708 -0.7781
vn 0.8739 0.1349 -0.4671
vn -0.4159 -0.4708 -0.7781
vn -0.0865 -0.4708 0.8780
vn 0.5597 -0.4708 -0.6820
vn -0.2561 -0.4708 -0.8443
vn -0.2561 -0.4708 0.8443
vn 0.6820 -0.4708 -0.5597
vn -0.0865 -0.4708 -0.8780
vn -0.4159 -0.4708 0.7781
vn 0.7781 -0.4708 -0.4159
vn -0.5597 -0.4708 0.6820
vn 0.8443 -0.4708 -0.2561
vn -0.6820 -0.4708 0.5597
vn 0.8780 -0.4708 -0.0865
vn -0.7781 -0.4708 0.4159
vn 0.8780 -0.4708 0.0865
vn -0.8443 -0.4708 0.2561
vn 0.8443 -0.4708 0.2561
vn -0.8780 -0.4708 0.0865
vn 0.7781 -0.4708 0.4159
vn -0.8780 -0.4708 -0.0865
vn 0.6820 -0.4708 0.5597
vn -0.8443 -0.4708 -0.2561
vn 0.5597 -0.4708 0.6820
vn -0.7781 -0.4708 -0.4159
vn 0.4159 -0.4708 0.7781
vn 0.0865 -0.4708 -0.8780
vn -0.6820 -0.4708 -0.5597
vn 0.2561 -0.4708 0.8443
vn 0.2561 -0.4708 -0.8443
vn -0.5597 -0.4708 -0.6820
vn 0.0865 -0.4708 0.8780
vn 0.9878 0.1220 0.0973
vn -0.6286 0.1349 0.7659
vn 0.9482 0.1349 -0.2876
vn -0.7659 0.1349 0.6286
vn 0.9861 0.1349 -0.0971
vn -0.8739 0.1349 0.4671
vn 0.9861 0.1349 0.0971
vn -0.9482 0.1349 0.2876
vn 0.9482 0.1349 0.2876
vn -0.9861 0.1349 0.0971
vn 0.8739 0.1349 0.4671
vn -0.9861 0.1349 -0.0971
vn 0.7659 0.1349 0.6286
vn -0.9482 0.1349 -0.2876
vn 0.6286 0.1349 0.7659
vn -0.8739 0.1349 -0.4671
vn 0.4671 0.1349 0.8739
vn 0.0971 0.1349 -0.9861
vn -0.7659 0.1349 -0.6286
vn 0.2876 0.1349 0.9482
vn 0.2876 0.1349 -0.9482
vn -0.6286 0.1349 -0.7659
vn 0.0971 0.1349 0.9861
vn 0.4671 0.1349 -0.8739
vn -0.4671 0.1349 -0.8739
vn -0.0971 0.1349 0.9861
vn 0.6286 0.1349 -0.7659
vn -0.2876 0.1349 -0.9482
vn -0.2876 0.1349 0.9482
vn 0.7659 0.1349 -0.6286
vn -0.0971 0.1349 -0.9861
vn -0.4671 0.1349 0.8739
vn 0.5925 -0.6423 0.4862
vn -0.9498 0.1220 0.2881
vn 0.9498 0.1220 0.2881
vn -0.9878 0.1220 0.0973
vn 0.8753 0.1220 0.4679
vn -0.9878 0.1220 -0.0973
vn 0.7672 0.1220 0.6297
vn -0.9498 0.1220 -0.2881
vn 0.6297 0.1220 0.7672
vn -0.8753 0.1220 -0.4679
vn 0.4679 0.1220 0.8753
vn 0.0973 0.1220 -0.9878
vn -0.7672 0.1220 -0.6297
vn 0.2881 0.1220 0.9498
vn 0.2881 0.1220 -0.9498
vn -0.6297 0.1220 -0.7672
vn 0.0973 0.1220 0.9878
vn 0.4679 0.1220 -0.8753
vn -0.4679 0.1220 -0.8753
vn -0.0973 0.1220 0.9878
vn 0.6297 0.1220 -0.7672
vn -0.2881 0.1220 -0.9498
vn -0.2881 0.1220 0.9498
vn 0.7672 0.1220 -0.6297
vn -0.0973 0.1220 -0.9878
vn -0.4679 0.1220 0.8753
vn 0.8753 0.1220 -0.4679
vn -0.6297 0.1220 0.7672
vn 0.9498 0.1220 -0.2881
vn -0.7672 0.1220 0.6297
vn 0.9878 0.1220 -0.0973
vn -0.8753 0.1220 0.4679
vn -0.7334 -0.6423 -0.2225
vn 0.4862 -0.6423 0.5925
vn -0.6760 -0.6423 -0.3613
vn 0.3613 -0.6423 0.6760
vn 0.0751 -0.6423 -0.7628
vn -0.5925 -0.6423 -0.4862
vn 0.2225 -0.6423 0.7335
vn 0.2225 -0.6423 -0.7335
vn -0.4862 -0.6423 -0.5925
vn 0.0751 -0.6423 0.7628
vn 0.3613 -0.6423 -0.6760
vn -0.3613 -0.6423 -0.6760
vn -0.0751 -0.6423 0.7628
vn 0.4862 -0.6423 -0.5925
vn -0.2225 -0.6423 -0.7335
vn -0.2225 -0.6423 0.7335
vn 0.5925 -0.6423 -0.4862
vn -0.0751 -0.6423 -0.7628
vn -0.3613 -0.6423 0.6759
vn 0.6760 -0.6423 -0.3613
vn -0.4862 -0.6423 0.5925
vn 0.7335 -0.6423 -0.2225
vn -0.5925 -0.6423 0.4862
vn 0.7628 -0.6423 -0.0751
vn -0.6760 -0.6423 0.3613
vn 0.7628 -0.6423 0.0751
vn -0.7334 -0.6423 0.2225
vn 0.7335 -0.6423 0.2225
vn -0.7628 -0.6423 0.0751
vn 0.6760 -0.6423 0.3613
vn -0.7628 -0.6423 -0.0751
vn 0.5474 0.8202 0.1661
vn -0.5693 0.8202 0.0561
vn 0.5045 0.8202 0.2697
vn -0.5693 0.8202 -0.0561
vn 0.4422 0.8202 0.3629
vn -0.5474 0.8202 -0.1661
vn 0.3629 0.8202 0.4422
vn -0.5045 0.8202 -0.2697
vn 0.2697 0.8202 0.5045
vn 0.0561 0.8202 -0.5693
vn -0.4422 0.8202 -0.3629
vn 0.1661 0.8202 0.5474
vn 0.1661 0.8202 -0.5474
vn -0.3629 0.8202 -0.4422
vn 0.0561 0.8202 0.5693
vn 0.2697 0.8202 -0.5045
vn -0.2697 0.8202 -0.5045
vn -0.0561 0.8202 0.5693
vn 0.3629 0.8202 -0.4422
vn -0.1661 0.8202 -0.5474
vn -0.1661 0.8202 0.5474
vn 0.4422 0.8202 -0.3629
vn -0.0561 0.8202 -0.5693
vn -0.2697 0.8202 0.5045
vn 0.5045 0.8202 -0.2697
vn -0.3629 0.8202 0.4422
vn 0.5474 0.8202 -0.1661
vn -0.4422 0.8202 0.3629
vn 0.5693 0.8202 -0.0561
vn -0.5045 0.8202 0.2697
vn 0.5693 0.8202 0.0561
vn -0.5474 0.8202 0.1661
vn 0.0610 -0.7831 0.6189
vn 0.2931 -0.7831 -0.5484
vn -0.2931 -0.7831 -0.5484
vn -0.0610 -0.7831 0.6189
vn 0.3945 -0.7831 -0.4807
vn -0.1805 -0.7831 -0.5951
vn -0.1805 -0.7831 0.5951
vn 0.4807 -0.7831 -0.3945
vn -0.0610 -0.7831 -0.6189
vn -0.2931 -0.7831 0.5484
vn 0.5484 -0.7831 -0.2931
vn -0.3945 -0.7831 0.4807
vn 0.5951 -0.7831 -0.1805
vn -0.4807 -0.7831 0.3945
vn 0.6189 -0.7831 -0.0610
vn -0.5484 -0.7831 0.2931
vn 0.6189 -0.7831 0.0610
vn -0.5951 -0.7831 0.1805
vn 0.5951 -0.7831 0.1805
vn -0.6189 -0.7831 0.0610
vn 0.5484 -0.7831 0.2931
vn -0.6189 -0.7831 -0.0610
vn 0.4807 -0.7831 0.3945
vn -0.5951 -0.7831 -0.1805
vn 0.3945 -0.7831 0.4807
vn -0.5484 -0.7831 -0.2931
vn 0.2931 -0.7831 0.5484
vn 0.0610 -0.7831 -0.6189
vn -0.4807 -0.7831 -0.3945
vn 0.1805 -0.7831 0.5951
vn 0.1805 -0.7831 -0.5951
vn -0.3945 -0.7831 -0.4807
vn -0.5513 0.7806 0.2947
vn 0.6221 0.7806 0.0612
vn -0.5982 0.7806 0.1815
vn 0.5982 0.7806 0.1815
vn -0.6221 0.7806 0.0613
vn 0.5513 0.7806 0.2947
vn -0.6221 0.7806 -0.0613
vn 0.4832 0.7806 0.3965
vn -0.5982 0.7806 -0.1815
vn 0.3966 0.7806 0.4832
vn -0.5513 0.7806 -0.2947
vn 0.2947 0.7806 0.5513
vn 0.0613 0.7806 -0.6221
vn -0.4832 0.7806 -0.3966
vn 0.1815 0.7806 0.5982
vn 0.1815 0.7806 -0.5982
vn -0.3966 0.7806 -0.4832
vn 0.0613 0.7806 0.6221
vn 0.2947 0.7806 -0.5513
vn -0.2947 0.7805 -0.5513
vn -0.0613 0.7806 0.6221
vn 0.3966 0.7806 -0.4832
vn -0.1815 0.7806 -0.5982
vn -0.1815 0.7806 0.5982
vn 0.4832 0.7806 -0.3965
vn -0.0613 0.7806 -0.6221
vn -0.2947 0.7806 0.5513
vn 0.5513 0.7806 -0.2947
vn -0.3966 0.7806 0.4832
vn 0.5982 0.7806 -0.1815
vn -0.4832 0.7806 0.3965
vn 0.6221 0.7806 -0.0612
vn 0.0000 1.0000 0.0000
# 290 vertex normals

vt 0.4899 0.1541 0.0000
vt 0.5148 0.1541 0.0000
vt 0.5148 0.1145 0.0000
vt 0.4899 0.1145 0.0000
vt 0.5388 0.1541 0.0000
vt 0.5388 0.1145 0.0000
vt 0.5609 0.1541 0.0000
vt 0.5609 0.1145 0.0000
vt 0.5803 0.1541 0.0000
vt 0.5803 0.1145 0.0000
vt 0.5962 0.1541 0.0000
vt 0.5962 0.1145 0.0000
vt 0.6080 0.1541 0.0000
vt 0.6080 0.1145 0.0000
vt 0.6153 0.1541 0.0000
vt 0.6153 0.1145 0.0000
vt 0.6177 0.1541 0.0000
vt 0.6177 0.1145 0.0000
vt 0.4649 0.1541 0.0000
vt 0.4649 0.1145 0.0000
vt 0.4409 0.1541 0.0000
vt 0.4409 0.1145 0.0000
vt 0.4188 0.1541 0.0000
vt 0.4188 0.1145 0.0000
vt 0.3994 0.1541 0.0000
vt 0.3994 0.1145 0.0000
vt 0.3835 0.1541 0.0000
vt 0.3835 0.1145 0.0000
vt 0.3717 0.1541 0.0000
vt 0.3717 0.1145 0.0000
vt 0.3644 0.1541 0.0000
vt 0.3644 0.1145 0.0000
vt 0.3620 0.1541 0.0000
vt 0.3620 0.1145 0.0000
vt 0.4077 0.1772 0.0000
vt 0.4027 0.1772 0.0000
vt 0.4077 0.1907 0.0000
vt 0.4159 0.1907 0.0000
vt 0.4159 0.1772 0.0000
vt 0.4899 0.1772 0.0000
vt 0.5072 0.1772 0.0000
vt 0.4725 0.1772 0.0000
vt 0.5771 0.1772 0.0000
vt 0.5720 0.1772 0.0000
vt 0.4558 0.1772 0.0000
vt 0.4405 0.1772 0.0000
vt 0.4270 0.1772 0.0000
vt 0.5638 0.1772 0.0000
vt 0.5239 0.1772 0.0000
vt 0.4010 0.1772 0.0000
vt 0.5393 0.1772 0.0000
vt 0.5527 0.1772 0.0000
vt 0.5788 0.1772 0.0000
vt 0.5239 0.1907 0.0000
vt 0.5334 0.2190 0.0000
vt 0.5531 0.2190 0.0000
vt 0.5393 0.1907 0.0000
vt 0.4899 0.1907 0.0000
vt 0.5072 0.1907 0.0000
vt 0.4270 0.1907 0.0000
vt 0.4405 0.1907 0.0000
vt 0.4558 0.1907 0.0000
vt 0.4725 0.1907 0.0000
vt 0.5527 0.1907 0.0000
vt 0.5638 0.1907 0.0000
vt 0.5720 0.1907 0.0000
vt 0.5771 0.1907 0.0000
vt 0.5788 0.1907 0.0000
vt 0.4027 0.1907 0.0000
vt 0.4010 0.1907 0.0000
vt 0.5845 0.2190 0.0000
vt 0.5584 0.3584 0.0000
vt 0.5660 0.3584 0.0000
vt 0.5951 0.2190 0.0000
vt 0.4266 0.2190 0.0000
vt 0.4463 0.2190 0.0000
vt 0.4899 0.2190 0.0000
vt 0.4677 0.2190 0.0000
vt 0.5704 0.2190 0.0000
vt 0.4094 0.2190 0.0000
vt 0.6015 0.2190 0.0000
vt 0.3952 0.2190 0.0000
vt 0.6037 0.2190 0.0000
vt 0.3847 0.2190 0.0000
vt 0.3782 0.2190 0.0000
vt 0.3760 0.2190 0.0000
vt 0.5121 0.2190 0.0000
vt 0.5723 0.3584 0.0000
vt 0.5409 0.5130 0.0000
vt 0.5399 0.5130 0.0000
vt 0.5707 0.3584 0.0000
vt 0.4441 0.3584 0.0000
vt 0.4316 0.3584 0.0000
vt 0.4213 0.3584 0.0000
vt 0.4137 0.3584 0.0000
vt 0.4090 0.3584 0.0000
vt 0.4074 0.3584 0.0000
vt 0.5482 0.3584 0.0000
vt 0.5357 0.3584 0.0000
vt 0.5214 0.3584 0.0000
vt 0.4899 0.3584 0.0000
vt 0.5060 0.3584 0.0000
vt 0.4583 0.3584 0.0000
vt 0.4738 0.3584 0.0000
vt 0.5323 0.5130 0.0000
vt 0.5526 0.5306 0.0000
vt 0.5432 0.5306 0.0000
vt 0.5259 0.5130 0.0000
vt 0.4427 0.5130 0.0000
vt 0.4398 0.5130 0.0000
vt 0.5370 0.5130 0.0000
vt 0.4388 0.5130 0.0000
vt 0.5182 0.5130 0.0000
vt 0.4474 0.5130 0.0000
vt 0.5094 0.5130 0.0000
vt 0.4899 0.5130 0.0000
vt 0.4998 0.5130 0.0000
vt 0.4538 0.5130 0.0000
vt 0.4615 0.5130 0.0000
vt 0.4703 0.5130 0.0000
vt 0.4799 0.5130 0.0000
vt 0.5596 0.5306 0.0000
vt 0.5596 0.5375 0.0000
vt 0.5639 0.5375 0.0000
vt 0.5639 0.5306 0.0000
vt 0.4158 0.5306 0.0000
vt 0.4201 0.5306 0.0000
vt 0.5318 0.5306 0.0000
vt 0.4271 0.5306 0.0000
vt 0.5188 0.5306 0.0000
vt 0.4899 0.5306 0.0000
vt 0.5046 0.5306 0.0000
vt 0.4365 0.5306 0.0000
vt 0.4479 0.5306 0.0000
vt 0.4610 0.5306 0.0000
vt 0.4751 0.5306 0.0000
vt 0.5654 0.5306 0.0000
vt 0.4144 0.5306 0.0000
vt 0.5296 0.5523 0.0000
vt 0.5273 0.5523 0.0000
vt 0.4365 0.5375 0.0000
vt 0.4271 0.5375 0.0000
vt 0.5654 0.5375 0.0000
vt 0.4201 0.5375 0.0000
vt 0.4158 0.5375 0.0000
vt 0.4144 0.5375 0.0000
vt 0.5526 0.5375 0.0000
vt 0.5432 0.5375 0.0000
vt 0.5318 0.5375 0.0000
vt 0.5188 0.5375 0.0000
vt 0.4899 0.5375 0.0000
vt 0.5046 0.5375 0.0000
vt 0.4479 0.5375 0.0000
vt 0.4610 0.5375 0.0000
vt 0.4751 0.5375 0.0000
vt 0.5185 0.5523 0.0000
vt 0.5185 0.5552 0.0000
vt 0.5123 0.5552 0.0000
vt 0.5123 0.5523 0.0000
vt 0.4502 0.5523 0.0000
vt 0.4494 0.5523 0.0000
vt 0.5235 0.5523 0.0000
vt 0.4525 0.5523 0.0000
vt 0.4562 0.5523 0.0000
vt 0.5054 0.5523 0.0000
vt 0.4899 0.5523 0.0000
vt 0.4978 0.5523 0.0000
vt 0.4612 0.5523 0.0000
vt 0.4674 0.5523 0.0000
vt 0.4744 0.5523 0.0000
vt 0.4820 0.5523 0.0000
vt 0.5303 0.5523 0.0000
vt 0.4978 0.5552 0.0000
vt 0.4991 0.5585 0.0000
vt 0.4899 0.5585 0.0000
vt 0.4899 0.5552 0.0000
vt 0.4525 0.5552 0.0000
vt 0.4562 0.5552 0.0000
vt 0.5054 0.5552 0.0000
vt 0.4612 0.5552 0.0000
vt 0.4674 0.5552 0.0000
vt 0.4744 0.5552 0.0000
vt 0.4820 0.5552 0.0000
vt 0.5235 0.5552 0.0000
vt 0.5273 0.5552 0.0000
vt 0.5296 0.5552 0.0000
vt 0.5303 0.5552 0.0000
vt 0.4502 0.5552 0.0000
vt 0.4494 0.5552 0.0000
vt 0.4717 0.5585 0.0000
vt 0.4717 0.5619 0.0000
vt 0.4635 0.5619 0.0000
vt 0.4635 0.5585 0.0000
vt 0.5080 0.5585 0.0000
vt 0.5162 0.5585 0.0000
vt 0.4806 0.5585 0.0000
vt 0.5234 0.5585 0.0000
vt 0.5293 0.5585 0.0000
vt 0.5336 0.5585 0.0000
vt 0.4564 0.5585 0.0000
vt 0.5363 0.5585 0.0000
vt 0.4505 0.5585 0.0000
vt 0.5372 0.5585 0.0000
vt 0.4461 0.5585 0.0000
vt 0.4434 0.5585 0.0000
vt 0.4425 0.5585 0.0000
vt 0.4505 0.5619 0.0000
vt 0.4687 0.5725 0.0000
vt 0.4663 0.5725 0.0000
vt 0.4461 0.5619 0.0000
vt 0.5293 0.5619 0.0000
vt 0.5336 0.5619 0.0000
vt 0.4564 0.5619 0.0000
vt 0.5363 0.5619 0.0000
vt 0.5372 0.5619 0.0000
vt 0.4434 0.5619 0.0000
vt 0.4425 0.5619 0.0000
vt 0.5234 0.5619 0.0000
vt 0.5162 0.5619 0.0000
vt 0.5080 0.5619 0.0000
vt 0.4899 0.5619 0.0000
vt 0.4991 0.5619 0.0000
vt 0.4806 0.5619 0.0000
vt 0.4644 0.5725 0.0000
vt 0.4644 0.9408 0.0000
vt 0.4649 0.9408 0.0000
vt 0.4649 0.5725 0.0000
vt 0.5153 0.5725 0.0000
vt 0.5149 0.5725 0.0000
vt 0.5134 0.5725 0.0000
vt 0.5110 0.5725 0.0000
vt 0.5079 0.5725 0.0000
vt 0.5040 0.5725 0.0000
vt 0.4996 0.5725 0.0000
vt 0.4899 0.5725 0.0000
vt 0.4948 0.5725 0.0000
vt 0.4718 0.5725 0.0000
vt 0.4757 0.5725 0.0000
vt 0.4801 0.5725 0.0000
vt 0.4849 0.5725 0.0000
vt 0.5079 0.9408 0.0000
vt 0.5040 0.9408 0.0000
vt 0.4996 0.9408 0.0000
vt 0.4948 0.9408 0.0000
vt 0.4899 0.9408 0.0000
vt 0.4849 0.9408 0.0000
vt 0.4801 0.9408 0.0000
vt 0.4757 0.9408 0.0000
vt 0.4718 0.9408 0.0000
vt 0.4687 0.9408 0.0000
vt 0.4663 0.9408 0.0000
vt 0.5110 0.9408 0.0000
vt 0.5134 0.9408 0.0000
vt 0.5149 0.9408 0.0000
vt 0.5153 0.9408 0.0000
# 255 texture coords

o Cylinder_Cylinder_002
g Cylinder_Cylinder_002
usemtl None
s off
f 1/1/1 2/2/1 3/3/1 4/4/1 
f 2/2/2 5/5/2 6/6/2 3/3/2 
f 5/5/3 7/7/3 8/8/3 6/6/3 
f 7/7/4 9/9/4 10/10/4 8/8/4 
f 9/9/5 11/11/5 12/12/5 10/10/5 
f 11/11/6 13/13/6 14/14/6 12/12/6 
f 13/13/7 15/15/7 16/16/7 14/14/7 
f 15/15/8 17/17/8 18/18/8 16/16/8 
f 17/17/9 19/15/9 20/16/9 18/18/9 
f 19/15/10 21/13/10 22/14/10 20/16/10 
f 21/13/11 23/11/11 24/12/11 22/14/11 
f 23/11/12 25/9/12 26/10/12 24/12/12 
f 25/9/13 27/7/13 28/8/13 26/10/13 
f 27/7/14 29/5/14 30/6/14 28/8/14 
f 29/5/15 31/2/15 32/3/15 30/6/15 
f 31/2/16 33/1/16 34/4/16 32/3/16 
f 33/1/17 35/19/17 36/20/17 34/4/17 
f 35/19/18 37/21/18 38/22/18 36/20/18 
f 37/21/19 39/23/19 40/24/19 38/22/19 
f 39/23/20 41/25/20 42/26/20 40/24/20 
f 41/25/21 43/27/21 44/28/21 42/26/21 
f 43/27/22 45/29/22 46/30/22 44/28/22 
f 45/29/23 47/31/23 48/32/23 46/30/23 
f 47/31/24 49/33/24 50/34/24 48/32/24 
f 49/33/25 51/31/25 52/32/25 50/34/25 
f 51/31/26 53/29/26 54/30/26 52/32/26 
f 53/29/27 55/27/27 56/28/27 54/30/27 
f 55/27/28 57/25/28 58/26/28 56/28/28 
f 57/25/29 59/23/29 60/24/29 58/26/29 
f 59/23/30 61/21/30 62/22/30 60/24/30 
f 45/29/31 63/35/31 64/36/31 47/31/31 
f 61/21/32 65/19/32 66/20/32 62/22/32 
f 65/19/33 1/1/33 4/4/33 66/20/33 
f 60/24/34 62/22/34 66/20/34 4/4/34 3/3/34 6/6/34 8/8/34 10/10/34 12/12/34 14/14/34 16/16/34 18/18/34 20/16/34 22/14/34 24/12/34 26/10/34 28/8/34 30/6/34 32/3/34 34/4/34 36/20/34 38/22/34 40/24/34 42/26/34 44/28/34 46/30/34 48/32/34 50/34/34 52/32/34 54/30/34 56/28/34 58/26/34 
f 67/35/27 68/37/27 69/38/27 70/39/27 
f 1/1/35 71/40/35 72/41/35 2/2/35 
f 65/19/36 73/42/36 71/40/36 1/1/36 
f 19/15/37 74/43/37 75/44/37 21/13/37 
f 37/21/38 76/45/38 77/46/38 39/23/38 
f 55/27/39 70/39/39 78/47/39 57/25/39 
f 11/11/40 79/48/40 80/44/40 13/13/40 
f 29/5/41 81/49/41 82/41/41 31/2/41 
f 47/31/42 64/36/42 83/50/42 49/33/42 
f 2/2/43 72/41/43 84/49/43 5/5/43 
f 21/13/44 75/44/44 85/48/44 23/11/44 
f 39/23/45 77/46/45 86/47/45 41/25/45 
f 57/25/46 78/47/46 87/46/46 59/23/46 
f 13/13/47 80/44/47 88/43/47 15/15/47 
f 31/2/48 82/41/48 89/40/48 33/1/48 
f 49/33/49 83/50/49 90/36/49 51/31/49 
f 5/5/50 84/49/50 91/51/50 7/7/50 
f 23/11/51 85/48/51 92/52/51 25/9/51 
f 41/25/52 86/47/52 93/39/52 43/27/52 
f 59/23/53 87/46/53 94/45/53 61/21/53 
f 15/15/54 88/43/54 95/53/54 17/17/54 
f 33/1/55 89/40/55 96/42/55 35/19/55 
f 51/31/56 90/36/56 67/35/56 53/29/56 
f 7/7/57 91/51/57 97/52/57 9/9/57 
f 25/9/58 92/52/58 98/51/58 27/7/58 
f 43/27/59 93/39/59 63/35/59 45/29/59 
f 61/21/60 94/45/60 73/42/60 65/19/60 
f 17/17/61 95/53/61 74/43/61 19/15/61 
f 35/19/62 96/42/62 76/45/62 37/21/62 
f 53/29/63 67/35/63 70/39/63 55/27/63 
f 9/9/64 97/52/64 79/48/64 11/11/64 
f 27/7/65 98/51/65 81/49/65 29/5/65 
f 99/54/66 100/55/66 101/56/66 102/57/66 
f 98/51/14 103/57/14 104/54/14 81/49/14 
f 71/40/1 105/58/1 106/59/1 72/41/1 
f 70/39/28 69/38/28 107/60/28 78/47/28 
f 81/49/15 104/54/15 108/59/15 82/41/15 
f 72/41/2 106/59/2 99/54/2 84/49/2 
f 78/47/29 107/60/29 109/61/29 87/46/29 
f 82/41/16 108/59/16 110/58/16 89/40/16 
f 84/49/3 99/54/3 102/57/3 91/51/3 
f 87/46/30 109/61/30 111/62/30 94/45/30 
f 89/40/17 110/58/17 112/63/17 96/42/17 
f 91/51/4 102/57/4 113/64/4 97/52/4 
f 94/45/32 111/62/32 114/63/32 73/42/32 
f 96/42/18 112/63/18 115/62/18 76/45/18 
f 97/52/5 113/64/5 116/65/5 79/48/5 
f 73/42/33 114/63/33 105/58/33 71/40/33 
f 76/45/19 115/62/19 117/61/19 77/46/19 
f 79/48/6 116/65/6 118/66/6 80/44/6 
f 77/46/20 117/61/20 119/60/20 86/47/20 
f 80/44/7 118/66/7 120/67/7 88/43/7 
f 86/47/21 119/60/21 121/38/21 93/39/21 
f 88/43/8 120/67/8 122/68/8 95/53/8 
f 93/39/22 121/38/22 123/37/22 63/35/22 
f 95/53/9 122/68/9 124/67/9 74/43/9 
f 63/35/23 123/37/23 125/69/23 64/36/23 
f 74/43/10 124/67/10 126/66/10 75/44/10 
f 64/36/24 125/69/24 127/70/24 83/50/24 
f 75/44/11 126/66/11 128/65/11 85/48/11 
f 83/50/25 127/70/25 129/69/25 90/36/25 
f 85/48/12 128/65/12 130/64/12 92/52/12 
f 90/36/26 129/69/26 68/37/26 67/35/26 
f 92/52/13 130/64/13 103/57/13 98/51/13 
f 131/71/67 132/72/67 133/73/67 134/74/67 
f 109/61/68 135/75/68 136/76/68 111/62/68 
f 110/58/69 137/77/69 138/78/69 112/63/69 
f 102/57/70 101/56/70 139/79/70 113/64/70 
f 111/62/71 136/76/71 140/78/71 114/63/71 
f 112/63/72 138/78/72 141/76/72 115/62/72 
f 113/64/73 139/79/73 131/71/73 116/65/73 
f 114/63/74 140/78/74 142/77/74 105/58/74 
f 115/62/75 141/76/75 143/75/75 117/61/75 
f 116/65/76 131/71/76 134/74/76 118/66/76 
f 117/61/77 143/75/77 144/80/77 119/60/77 
f 118/66/78 134/74/78 145/81/78 120/67/78 
f 119/60/79 144/80/79 146/82/79 121/38/79 
f 120/67/80 145/81/80 147/83/80 122/68/80 
f 121/38/81 146/82/81 148/84/81 123/37/81 
f 122/68/82 147/83/82 149/81/82 124/67/82 
f 123/37/83 148/84/83 150/85/83 125/69/83 
f 124/67/84 149/81/84 151/74/84 126/66/84 
f 125/69/85 150/85/85 152/86/85 127/70/85 
f 126/66/86 151/74/86 153/71/86 128/65/86 
f 127/70/87 152/86/87 154/85/87 129/69/87 
f 128/65/88 153/71/88 155/79/88 130/64/88 
f 129/69/89 154/85/89 156/84/89 68/37/89 
f 130/64/90 155/79/90 157/56/90 103/57/90 
f 68/37/91 156/84/91 158/82/91 69/38/91 
f 103/57/92 157/56/92 159/55/92 104/54/92 
f 105/58/93 142/77/93 160/87/93 106/59/93 
f 69/38/94 158/82/94 161/80/94 107/60/94 
f 104/54/95 159/55/95 162/87/95 108/59/95 
f 106/59/96 160/87/96 100/55/96 99/54/96 
f 107/60/97 161/80/97 135/75/97 109/61/97 
f 108/59/98 162/87/98 137/77/98 110/58/98 
f 163/88/99 164/89/99 165/90/99 166/91/99 
f 143/75/100 167/92/100 168/93/100 144/80/100 
f 134/74/101 133/73/101 169/91/101 145/81/101 
f 144/80/102 168/93/102 170/94/102 146/82/102 
f 145/81/103 169/91/103 163/88/103 147/83/103 
f 146/82/104 170/94/104 171/95/104 148/84/104 
f 147/83/105 163/88/105 166/91/105 149/81/105 
f 148/84/106 171/95/106 172/96/106 150/85/106 
f 149/81/107 166/91/107 173/73/107 151/74/107 
f 150/85/108 172/96/108 174/97/108 152/86/108 
f 151/74/109 173/73/109 175/72/109 153/71/109 
f 152/86/110 174/97/110 176/96/110 154/85/110 
f 153/71/111 175/72/111 177/98/111 155/79/111 
f 154/85/112 176/96/112 178/95/112 156/84/112 
f 155/79/113 177/98/113 179/99/113 157/56/113 
f 156/84/114 178/95/114 180/94/114 158/82/114 
f 157/56/115 179/99/115 181/100/115 159/55/115 
f 142/77/116 182/101/116 183/102/116 160/87/116 
f 158/82/117 180/94/117 184/93/117 161/80/117 
f 159/55/118 181/100/118 185/102/118 162/87/118 
f 160/87/119 183/102/119 186/100/119 100/55/119 
f 161/80/120 184/93/120 187/92/120 135/75/120 
f 162/87/121 185/102/121 188/101/121 137/77/121 
f 100/55/122 186/100/122 189/99/122 101/56/122 
f 135/75/123 187/92/123 190/103/123 136/76/123 
f 137/77/124 188/101/124 191/104/124 138/78/124 
f 101/56/125 189/99/125 192/98/125 139/79/125 
f 136/76/126 190/103/126 193/104/126 140/78/126 
f 138/78/127 191/104/127 194/103/127 141/76/127 
f 139/79/128 192/98/128 132/72/128 131/71/128 
f 140/78/129 193/104/129 182/101/129 142/77/129 
f 141/76/130 194/103/130 167/92/130 143/75/130 
f 195/105/131 196/106/131 197/107/131 198/108/131 
f 171/95/132 199/109/132 200/110/132 172/96/132 
f 166/91/133 165/90/133 201/111/133 173/73/133 
f 172/96/134 200/110/134 202/112/134 174/97/134 
f 173/73/135 201/111/135 195/105/135 175/72/135 
f 174/97/136 202/112/136 203/110/136 176/96/136 
f 175/72/137 195/105/137 198/108/137 177/98/137 
f 176/96/138 203/110/138 204/109/138 178/95/138 
f 177/98/139 198/108/139 205/113/139 179/99/139 
f 178/95/140 204/109/140 206/114/140 180/94/140 
f 179/99/141 205/113/141 207/115/141 181/100/141 
f 182/101/142 208/116/142 209/117/142 183/102/142 
f 180/94/143 206/114/143 210/118/143 184/93/143 
f 181/100/144 207/115/144 211/117/144 185/102/144 
f 183/102/145 209/117/145 212/115/145 186/100/145 
f 184/93/146 210/118/146 213/119/146 187/92/146 
f 185/102/147 211/117/147 214/116/147 188/101/147 
f 186/100/148 212/115/148 215/113/148 189/99/148 
f 187/92/149 213/119/149 216/120/149 190/103/149 
f 188/101/150 214/116/150 217/121/150 191/104/150 
f 189/99/151 215/113/151 218/108/151 192/98/151 
f 190/103/152 216/120/152 219/121/152 193/104/152 
f 191/104/153 217/121/153 220/120/153 194/103/153 
f 192/98/154 218/108/154 221/105/154 132/72/154 
f 193/104/155 219/121/155 208/116/155 182/101/155 
f 194/103/156 220/120/156 222/119/156 167/92/156 
f 132/72/157 221/105/157 223/111/157 133/73/157 
f 167/92/158 222/119/158 224/118/158 168/93/158 
f 133/73/159 223/111/159 225/90/159 169/91/159 
f 168/93/160 224/118/160 226/114/160 170/94/160 
f 169/91/161 225/90/161 164/89/161 163/88/161 
f 170/94/162 226/114/162 199/109/162 171/95/162 
f 227/122/7 228/123/7 229/124/7 230/125/7 
f 203/110/163 231/126/163 232/127/163 204/109/163 
f 198/108/164 197/107/164 233/128/164 205/113/164 
f 204/109/165 232/127/165 234/129/165 206/114/165 
f 205/113/166 233/128/166 235/130/166 207/115/166 
f 208/116/167 236/131/167 237/132/167 209/117/167 
f 206/114/168 234/129/168 238/133/168 210/118/168 
f 207/115/169 235/130/169 239/132/169 211/117/169 
f 209/117/170 237/132/170 240/130/170 212/115/170 
f 210/118/171 238/133/171 241/134/171 213/119/171 
f 211/117/172 239/132/172 242/131/172 214/116/172 
f 212/115/173 240/130/173 243/128/173 215/113/173 
f 213/119/174 241/134/174 244/135/174 216/120/174 
f 214/116/175 242/131/175 245/136/175 217/121/175 
f 215/113/176 243/128/176 246/107/176 218/108/176 
f 216/120/177 244/135/177 247/136/177 219/121/177 
f 217/121/178 245/136/178 248/135/178 220/120/178 
f 218/108/179 246/107/179 249/106/179 221/105/179 
f 219/121/180 247/136/180 236/131/180 208/116/180 
f 220/120/181 248/135/181 250/134/181 222/119/181 
f 221/105/182 249/106/182 227/122/182 223/111/182 
f 222/119/183 250/134/183 251/133/183 224/118/183 
f 223/111/184 227/122/184 230/125/184 225/90/184 
f 224/118/185 251/133/185 252/129/185 226/114/185 
f 225/90/186 230/125/186 253/137/186 164/89/186 
f 226/114/187 252/129/187 254/127/187 199/109/187 
f 164/89/188 253/137/188 255/125/188 165/90/188 
f 199/109/189 254/127/189 256/126/189 200/110/189 
f 165/90/190 255/125/190 257/122/190 201/111/190 
f 200/110/191 256/126/191 258/138/191 202/112/191 
f 201/111/192 257/122/192 196/106/192 195/105/192 
f 202/112/193 258/138/193 231/126/193 203/110/193 
f 259/124/194 260/139/194 261/140/194 262/123/194 
f 251/133/21 263/141/21 264/142/21 252/129/21 
f 230/125/8 229/124/8 265/143/8 253/137/8 
f 252/129/22 264/142/22 266/144/22 254/127/22 
f 253/137/9 265/143/9 259/124/9 255/125/9 
f 254/127/23 266/144/23 267/145/23 256/126/23 
f 255/125/10 259/124/10 262/123/10 257/122/10 
f 256/126/24 267/145/24 268/146/24 258/138/24 
f 257/122/11 262/123/11 269/147/11 196/106/11 
f 258/138/25 268/146/25 270/145/25 231/126/25 
f 196/106/12 269/147/12 271/148/12 197/107/12 
f 231/126/26 270/145/26 272/144/26 232/127/26 
f 197/107/13 271/148/13 273/149/13 233/128/13 
f 232/127/27 272/144/27 274/142/27 234/129/27 
f 233/128/14 273/149/14 275/150/14 235/130/14 
f 236/131/1 276/151/1 277/152/1 237/132/1 
f 234/129/28 274/142/28 278/141/28 238/133/28 
f 235/130/15 275/150/15 279/152/15 239/132/15 
f 237/132/2 277/152/2 280/150/2 240/130/2 
f 238/133/29 278/141/29 281/153/29 241/134/29 
f 239/132/16 279/152/16 282/151/16 242/131/16 
f 240/130/3 280/150/3 283/149/3 243/128/3 
f 241/134/30 281/153/30 284/154/30 244/135/30 
f 242/131/17 282/151/17 285/155/17 245/136/17 
f 243/128/4 283/149/4 286/148/4 246/107/4 
f 244/135/32 284/154/32 287/155/32 247/136/32 
f 245/136/18 285/155/18 288/154/18 248/135/18 
f 246/107/5 286/148/5 289/147/5 249/106/5 
f 247/136/33 287/155/33 276/151/33 236/131/33 
f 248/135/19 288/154/19 290/153/19 250/134/19 
f 249/106/6 289/147/6 228/123/6 227/122/6 
f 250/134/20 290/153/20 263/141/20 251/133/20 
f 291/156/13 292/157/13 293/158/13 294/159/13 
f 267/145/195 295/160/195 296/161/195 268/146/195 
f 262/123/196 261/140/196 297/162/196 269/147/196 
f 268/146/197 296/161/197 298/160/197 270/145/197 
f 269/147/198 297/162/198 291/156/198 271/148/198 
f 270/145/199 298/160/199 299/163/199 272/144/199 
f 271/148/200 291/156/200 294/159/200 273/149/200 
f 272/144/201 299/163/201 300/164/201 274/142/201 
f 273/149/202 294/159/202 301/165/202 275/150/202 
f 276/151/203 302/166/203 303/167/203 277/152/203 
f 274/142/204 300/164/204 304/168/204 278/141/204 
f 275/150/205 301/165/205 305/167/205 279/152/205 
f 277/152/206 303/167/206 306/165/206 280/150/206 
f 278/141/207 304/168/207 307/169/207 281/153/207 
f 279/152/208 305/167/208 308/166/208 282/151/208 
f 280/150/209 306/165/209 309/159/209 283/149/209 
f 281/153/210 307/169/210 310/170/210 284/154/210 
f 282/151/211 308/166/211 311/171/211 285/155/211 
f 283/149/212 309/159/212 312/156/212 286/148/212 
f 284/154/213 310/170/213 313/171/213 287/155/213 
f 285/155/214 311/171/214 314/170/214 288/154/214 
f 286/148/215 312/156/215 315/162/215 289/147/215 
f 287/155/216 313/171/216 302/166/216 276/151/216 
f 288/154/217 314/170/217 316/169/217 290/153/217 
f 289/147/218 315/162/218 317/140/218 228/123/218 
f 290/153/219 316/169/219 318/168/219 263/141/219 
f 228/123/220 317/140/220 319/139/220 229/124/220 
f 263/141/221 318/168/221 320/164/221 264/142/221 
f 229/124/222 319/139/222 321/172/222 265/143/222 
f 264/142/223 320/164/223 322/163/223 266/144/223 
f 265/143/224 321/172/224 260/139/224 259/124/224 
f 266/144/225 322/163/225 295/160/225 267/145/225 
f 323/173/226 324/174/226 325/175/226 326/176/226 
f 299/163/27 327/177/27 328/178/27 300/164/27 
f 294/159/14 293/158/14 329/179/14 301/165/14 
f 302/166/1 330/176/1 331/173/1 303/167/1 
f 300/164/28 328/178/28 332/180/28 304/168/28 
f 301/165/15 329/179/15 323/173/15 305/167/15 
f 303/167/2 331/173/2 333/179/2 306/165/2 
f 304/168/29 332/180/29 334/181/29 307/169/29 
f 305/167/16 323/173/16 326/176/16 308/166/16 
f 306/165/3 333/179/3 335/158/3 309/159/3 
f 307/169/30 334/181/30 336/182/30 310/170/30 
f 308/166/17 326/176/17 337/183/17 311/171/17 
f 309/159/4 335/158/4 338/157/4 312/156/4 
f 310/170/32 336/182/32 339/183/32 313/171/32 
f 311/171/18 337/183/18 340/182/18 314/170/18 
f 312/156/5 338/157/5 341/184/5 315/162/5 
f 313/171/33 339/183/33 330/176/33 302/166/33 
f 314/170/19 340/182/19 342/181/19 316/169/19 
f 315/162/6 341/184/6 343/185/6 317/140/6 
f 316/169/20 342/181/20 344/180/20 318/168/20 
f 317/140/7 343/185/7 345/186/7 319/139/7 
f 318/168/21 344/180/21 346/178/21 320/164/21 
f 319/139/8 345/186/8 347/187/8 321/172/8 
f 320/164/22 346/178/22 348/177/22 322/163/22 
f 321/172/9 347/187/9 349/186/9 260/139/9 
f 322/163/23 348/177/23 350/188/23 295/160/23 
f 260/139/10 349/186/10 351/185/10 261/140/10 
f 295/160/24 350/188/24 352/189/24 296/161/24 
f 261/140/11 351/185/11 353/184/11 297/162/11 
f 296/161/25 352/189/25 354/188/25 298/160/25 
f 297/162/12 353/184/12 292/157/12 291/156/12 
f 298/160/26 354/188/26 327/177/26 299/163/26 
f 355/190/19 356/191/19 357/192/19 358/193/19 
f 333/179/227 359/194/227 360/195/227 335/158/227 
f 334/181/228 361/193/228 362/190/228 336/182/228 
f 326/176/229 325/175/229 363/196/229 337/183/229 
f 335/158/230 360/195/230 364/197/230 338/157/230 
f 336/182/231 362/190/231 365/196/231 339/183/231 
f 337/183/232 363/196/232 355/190/232 340/182/232 
f 338/157/233 364/197/233 366/198/233 341/184/233 
f 339/183/234 365/196/234 367/175/234 330/176/234 
f 340/182/235 355/190/235 358/193/235 342/181/235 
f 341/184/236 366/198/236 368/199/236 343/185/236 
f 342/181/237 358/193/237 369/200/237 344/180/237 
f 343/185/238 368/199/238 370/201/238 345/186/238 
f 344/180/239 369/200/239 371/202/239 346/178/239 
f 345/186/240 370/201/240 372/203/240 347/187/240 
f 346/178/241 371/202/241 373/204/241 348/177/241 
f 347/187/242 372/203/242 374/201/242 349/186/242 
f 348/177/243 373/204/243 375/205/243 350/188/243 
f 349/186/244 374/201/244 376/199/244 351/185/244 
f 350/188/245 375/205/245 377/206/245 352/189/245 
f 351/185/246 376/199/246 378/198/246 353/184/246 
f 352/189/247 377/206/247 379/205/247 354/188/247 
f 353/184/248 378/198/248 380/197/248 292/157/248 
f 354/188/249 379/205/249 381/204/249 327/177/249 
f 292/157/250 380/197/250 382/195/250 293/158/250 
f 327/177/251 381/204/251 383/202/251 328/178/251 
f 293/158/252 382/195/252 384/194/252 329/179/252 
f 330/176/253 367/175/253 385/174/253 331/173/253 
f 328/178/254 383/202/254 386/200/254 332/180/254 
f 329/179/255 384/194/255 324/174/255 323/173/255 
f 331/173/256 385/174/256 359/194/256 333/179/256 
f 332/180/257 386/200/257 361/193/257 334/181/257 
f 387/207/258 388/208/258 389/209/258 390/210/258 
f 366/198/6 391/211/6 392/212/6 368/199/6 
f 358/193/20 357/192/20 393/213/20 369/200/20 
f 368/199/7 392/212/7 394/214/7 370/201/7 
f 369/200/21 393/213/21 387/207/21 371/202/21 
f 370/201/8 394/214/8 395/215/8 372/203/8 
f 371/202/22 387/207/22 390/210/22 373/204/22 
f 372/203/9 395/215/9 396/214/9 374/201/9 
f 373/204/23 390/210/23 397/216/23 375/205/23 
f 374/201/10 396/214/10 398/212/10 376/199/10 
f 375/205/24 397/216/24 399/217/24 377/206/24 
f 376/199/11 398/212/11 400/211/11 378/198/11 
f 377/206/25 399/217/25 401/216/25 379/205/25 
f 378/198/12 400/211/12 402/218/12 380/197/12 
f 379/205/26 401/216/26 403/210/26 381/204/26 
f 380/197/13 402/218/13 404/219/13 382/195/13 
f 381/204/27 403/210/27 405/207/27 383/202/27 
f 382/195/14 404/219/14 406/220/14 384/194/14 
f 367/175/1 407/221/1 408/222/1 385/174/1 
f 383/202/28 405/207/28 409/213/28 386/200/28 
f 384/194/15 406/220/15 410/222/15 324/174/15 
f 385/174/2 408/222/2 411/220/2 359/194/2 
f 386/200/29 409/213/29 412/192/29 361/193/29 
f 324/174/16 410/222/16 413/221/16 325/175/16 
f 359/194/3 411/220/3 414/219/3 360/195/3 
f 361/193/30 412/192/30 415/191/30 362/190/30 
f 325/175/17 413/221/17 416/223/17 363/196/17 
f 360/195/4 414/219/4 417/218/4 364/197/4 
f 362/190/32 415/191/32 418/223/32 365/196/32 
f 363/196/18 416/223/18 356/191/18 355/190/18 
f 364/197/5 417/218/5 391/211/5 366/198/5 
f 365/196/33 418/223/33 407/221/33 367/175/33 
f 419/224/25 420/225/25 421/226/25 422/227/25 
f 395/215/259 423/228/259 424/229/259 396/214/259 
f 390/210/260 389/209/260 425/227/260 397/216/260 
f 396/214/261 424/229/261 426/230/261 398/212/261 
f 397/216/262 425/227/262 419/224/262 399/217/262 
f 398/212/263 426/230/263 427/231/263 400/211/263 
f 399/217/264 419/224/264 422/227/264 401/216/264 
f 400/211/265 427/231/265 428/232/265 402/218/265 
f 401/216/266 422/227/266 429/209/266 403/210/266 
f 402/218/267 428/232/267 430/233/267 404/219/267 
f 403/210/268 429/209/268 431/208/268 405/207/268 
f 404/219/269 430/233/269 432/234/269 406/220/269 
f 407/221/270 433/235/270 434/236/270 408/222/270 
f 405/207/271 431/208/271 435/237/271 409/213/271 
f 406/220/272 432/234/272 436/236/272 410/222/272 
f 408/222/273 434/236/273 437/234/273 411/220/273 
f 409/213/274 435/237/274 438/238/274 412/192/274 
f 410/222/275 436/236/275 439/235/275 413/221/275 
f 411/220/276 437/234/276 440/233/276 414/219/276 
f 412/192/277 438/238/277 441/239/277 415/191/277 
f 413/221/278 439/235/278 442/240/278 416/223/278 
f 414/219/279 440/233/279 443/232/279 417/218/279 
f 415/191/280 441/239/280 444/240/280 418/223/280 
f 416/223/281 442/240/281 445/239/281 356/191/281 
f 417/218/282 443/232/282 446/231/282 391/211/282 
f 418/223/283 444/240/283 433/235/283 407/221/283 
f 356/191/284 445/239/284 447/238/284 357/192/284 
f 391/211/285 446/231/285 448/230/285 392/212/285 
f 357/192/286 447/238/286 449/237/286 393/213/286 
f 392/212/287 448/230/287 450/229/287 394/214/287 
f 393/213/288 449/237/288 388/208/288 387/207/288 
f 394/214/289 450/229/289 423/228/289 395/215/289 
f 451/241/290 452/242/290 453/243/290 454/244/290 455/245/290 456/246/290 457/247/290 458/248/290 459/249/290 460/250/290 461/251/290 421/226/290 420/225/290 462/226/290 463/251/290 464/250/290 465/249/290 466/248/290 467/247/290 468/246/290 469/245/290 470/244/290 471/243/290 472/242/290 473/241/290 474/252/290 475/253/290 476/254/290 477/255/290 478/254/290 479/253/290 480/252/290 
f 427/231/12 474/252/12 473/241/12 428/232/12 
f 422/227/26 421/226/26 461/251/26 429/209/26 
f 428/232/13 473/241/13 472/242/13 430/233/13 
f 429/209/27 461/251/27 460/250/27 431/208/27 
f 430/233/14 472/242/14 471/243/14 432/234/14 
f 433/235/1 455/245/1 454/244/1 434/236/1 
f 431/208/28 460/250/28 459/249/28 435/237/28 
f 432/234/15 471/243/15 470/244/15 436/236/15 
f 434/236/2 454/244/2 453/243/2 437/234/2 
f 435/237/29 459/249/29 458/248/29 438/238/29 
f 436/236/16 470/244/16 469/245/16 439/235/16 
f 437/234/3 453/243/3 452/242/3 440/233/3 
f 438/238/30 458/248/30 457/247/30 441/239/30 
f 439/235/17 469/245/17 468/246/17 442/240/17 
f 440/233/4 452/242/4 451/241/4 443/232/4 
f 441/239/32 457/247/32 456/246/32 444/240/32 
f 442/240/18 468/246/18 467/247/18 445/239/18 
f 443/232/5 451/241/5 480/252/5 446/231/5 
f 444/240/33 456/246/33 455/245/33 433/235/33 
f 445/239/19 467/247/19 466/248/19 447/238/19 
f 446/231/6 480/252/6 479/253/6 448/230/6 
f 447/238/20 466/248/20 465/249/20 449/237/20 
f 448/230/7 479/253/7 478/254/7 450/229/7 
f 449/237/21 465/249/21 464/250/21 388/208/21 
f 450/229/8 478/254/8 477/255/8 423/228/8 
f 388/208/22 464/250/22 463/251/22 389/209/22 
f 423/228/9 477/255/9 476/254/9 424/229/9 
f 389/209/23 463/251/23 462/226/23 425/227/23 
f 424/229/10 476/254/10 475/253/10 426/230/10 
f 425/227/24 462/226/24 420/225/24 419/224/24 
f 426/230/11 475/253/11 474/252/11 427/231/11 
# 450 polygons

#
# object Cube_Cube_008
#

v  -0.7541 7.5816 -0.6782
v  -0.4756 5.5396 -0.3997
v  -0.4006 5.5499 -0.3997
v  -0.6791 7.5918 -0.6782
v  0.6419 7.5925 -0.6765
v  0.6419 7.5818 -0.7549
v  0.3633 5.5394 -0.4764
v  0.3633 5.5501 -0.3980
v  0.6285 7.5930 0.6429
v  0.6285 7.5930 -0.6802
v  0.7186 7.5833 -0.6802
v  0.7186 7.5833 0.6429
v  0.3652 5.5373 0.4288
v  0.6443 7.5839 0.7079
v  0.6443 7.5938 0.6427
v  0.3652 5.5472 0.3636
v  0.3400 5.2829 -0.3765
v  -0.3757 5.2829 -0.3765
v  -0.4653 5.4643 -0.4661
v  0.4296 5.4643 -0.4661
v  -0.5473 7.9711 0.5107
v  -0.5473 7.9711 -0.5480
v  -0.7643 7.6569 -0.7651
v  -0.7643 7.6569 0.7278
v  -0.4474 8.2366 0.4108
v  0.5115 7.9711 0.5107
v  0.4116 8.2366 0.4108
v  0.7286 7.6569 0.7278
v  0.5115 7.9711 -0.5480
v  0.7286 7.6569 -0.7651
v  0.3145 8.5022 0.3137
v  0.4116 8.2366 -0.4482
v  0.3145 8.5022 -0.3510
v  -0.4474 8.2366 -0.4482
v  0.0670 8.7144 0.0627
v  0.1918 8.5022 0.1910
v  0.1918 8.5022 -0.2284
v  0.0670 8.7144 -0.1070
v  -0.3502 8.5022 -0.3510
v  -0.3502 8.5022 0.3137
v  -0.6776 7.5818 -0.7549
v  -0.3991 5.5394 -0.4764
v  0.4396 5.5379 -0.4012
v  0.4296 5.4643 0.4288
v  0.4396 5.5379 0.3639
v  -0.4653 5.4643 0.4288
v  -0.4756 5.5396 0.3624
v  -0.7541 7.5816 0.6408
v  -0.4010 5.5373 0.4288
v  -0.6801 7.5839 0.7079
v  -0.4010 5.5472 0.3636
v  -0.6801 7.5938 0.6427
v  0.3496 5.5476 -0.4012
v  0.3496 5.5476 0.3639
v  -0.3991 5.5501 -0.3980
v  -0.6776 7.5925 -0.6765
v  -0.6791 7.5918 0.6408
v  -0.4006 5.5499 0.3624
v  -0.3757 5.2829 0.3392
v  0.3400 5.2829 0.3392
v  -0.2276 8.5022 0.1910
v  -0.2276 8.5022 -0.2284
v  0.1700 8.8338 0.1658
v  -0.2057 8.8338 0.1658
v  -0.1027 8.7144 0.0627
v  -0.1027 8.7144 -0.1070
v  0.1700 8.8338 -0.2100
v  0.1918 8.9066 -0.2318
v  0.1918 8.9066 0.1876
v  -0.2057 8.8338 -0.2100
v  -0.2276 8.9066 0.1876
v  -0.2150 8.9936 0.1750
v  -0.2150 8.9936 -0.2192
v  -0.2276 8.9066 -0.2318
v  0.1792 8.9936 0.1750
v  0.1199 9.0763 0.1156
v  -0.1556 9.0763 0.1156
v  0.1792 8.9936 -0.2192
v  0.1199 9.0763 -0.1598
v  0.0144 9.1571 -0.0544
v  0.0144 9.1571 0.0102
v  -0.1556 9.0763 -0.1598
v  -0.0502 9.1571 -0.0544
v  -0.0502 9.1571 0.0102
# 84 vertices

vn -0.8765 -0.3801 0.2954
vn -0.9270 0.2224 0.3021
vn -0.1017 0.7461 0.6581
vn 0.0889 -0.6520 0.7530
vn -0.7530 -0.6520 0.0889
vn -0.2955 -0.3801 -0.8765
vn -0.3021 0.2224 -0.9270
vn -0.6581 0.7460 -0.1017
vn -0.0698 -0.6467 -0.7596
vn -0.0698 -0.6467 0.7596
vn 0.8789 -0.3797 0.2887
vn 0.8789 -0.3797 -0.2887
vn -0.3441 0.2790 0.8965
vn -0.3507 -0.4192 0.8374
vn -0.7496 -0.6545 -0.0988
vn -0.6611 0.7419 0.1120
vn 0.4267 -0.7974 -0.4267
vn -0.4267 -0.7974 -0.4267
vn -0.6599 -0.3592 -0.6599
vn 0.6599 -0.3592 -0.6599
vn -0.5526 0.6239 0.5526
vn -0.5526 0.6239 -0.5526
vn -0.6860 0.2426 -0.6860
vn -0.6768 0.2246 0.7011
vn -0.6258 0.4656 0.6258
vn 0.5526 0.6239 0.5526
vn 0.6258 0.4656 0.6258
vn 0.6768 0.2246 0.7011
vn 0.5526 0.6239 -0.5526
vn 0.6860 0.2426 -0.6860
vn 0.4665 0.7515 0.4665
vn 0.6258 0.4656 -0.6258
vn 0.4665 0.7515 -0.4665
vn -0.6258 0.4656 -0.6258
vn 0.7019 -0.1478 0.6968
vn 0.1570 0.9749 0.1579
vn 0.1605 0.9741 -0.1595
vn 0.6957 -0.1578 -0.7008
vn -0.4665 0.7515 -0.4665
vn -0.4665 0.7515 0.4665
vn 0.2955 -0.3801 -0.8765
vn 0.3021 0.2224 -0.9270
vn 0.9237 0.2259 0.3095
vn 0.6500 -0.3370 0.6811
vn 0.9237 0.2259 -0.3095
vn -0.6500 -0.3370 0.6811
vn -0.9270 0.2224 -0.3021
vn -0.8765 -0.3801 -0.2954
vn 0.3441 0.2790 0.8965
vn 0.3507 -0.4192 0.8374
vn 0.6610 0.7420 0.1120
vn 0.7496 -0.6544 -0.0988
vn 0.0813 0.7537 0.6521
vn 0.0813 0.7537 -0.6521
vn 0.6581 0.7460 -0.1017
vn 0.7530 -0.6520 0.0889
vn 0.0889 -0.6520 -0.7530
vn -0.1017 0.7461 -0.6581
vn -0.4267 -0.7974 0.4267
vn 0.4267 -0.7974 0.4267
vn -0.1570 0.9749 0.1579
vn -0.1605 0.9741 -0.1595
vn 0.5899 -0.5514 0.5899
vn -0.5899 -0.5514 0.5899
vn -0.7019 -0.1478 0.6968
vn -0.6957 -0.1578 -0.7008
vn 0.5899 -0.5514 -0.5899
vn 0.7044 -0.0882 -0.7044
vn 0.7044 -0.0882 0.7044
vn -0.5899 -0.5514 -0.5899
vn -0.7044 -0.0882 0.7044
vn -0.6387 0.4291 0.6387
vn -0.6387 0.4291 -0.6387
vn -0.7044 -0.0882 -0.7044
vn 0.6387 0.4291 0.6387
vn 0.4488 0.7727 0.4488
vn -0.4488 0.7728 0.4488
vn 0.6387 0.4291 -0.6387
vn 0.4488 0.7727 -0.4488
vn 0.2488 0.9360 -0.2488
vn 0.2488 0.9360 0.2488
vn -0.4488 0.7728 -0.4488
vn -0.2489 0.9360 -0.2488
vn -0.2488 0.9360 0.2488
# 84 vertex normals

vt 0.6164 0.2364 0.0000
vt 0.3836 0.2301 0.0000
vt 0.6164 0.4865 0.0000
vt 0.3836 0.4802 0.0000
vt 0.6166 0.7367 0.0000
vt 0.6166 0.5133 0.0000
vt 0.3833 0.7693 0.0000
vt 0.6167 0.7632 0.0000
vt 0.3750 0.5000 0.0000
vt 0.3750 0.2500 0.0000
vt 0.6250 0.0000 0.0000
vt 0.6250 0.2500 0.0000
vt 0.6250 1.0000 0.0000
vt 0.6250 0.7500 0.0000
vt 0.6250 0.5000 0.0000
vt 0.6711 0.7039 0.0000
vt 0.6711 0.5461 0.0000
vt 0.6164 0.2635 0.0000
vt 0.3836 0.2698 0.0000
vt 0.3834 0.5194 0.0000
vt 0.3750 0.7500 0.0000
vt 0.3834 0.7306 0.0000
vt 0.3750 0.0000 0.0000
vt 0.3836 0.0199 0.0000
vt 0.6164 0.0136 0.0000
vt 0.3833 0.9807 0.0000
vt 0.6167 0.9868 0.0000
vt 0.3750 1.0000 0.0000
vt 0.1250 0.7500 0.0000
vt 0.1250 0.5000 0.0000
vt 0.8750 0.7500 0.0000
vt 0.8289 0.7039 0.0000
vt 0.8289 0.5461 0.0000
vt 0.8750 0.5000 0.0000
# 34 texture coords

o Cube_Cube_008
g Cube_Cube_008
usemtl 07___Default
s off
f 481/256/291 482/257/292 483/257/293 
f 483/257/293 484/256/294 481/256/291 
f 485/258/295 486/258/296 487/259/297 
f 487/259/297 488/259/298 485/258/295 
f 489/260/299 490/261/300 491/261/301 
f 491/261/301 492/260/302 489/260/299 
f 493/262/303 494/263/304 495/263/305 
f 495/263/305 496/262/306 493/262/303 
f 497/264/307 498/265/308 499/265/309 
f 499/265/309 500/264/310 497/264/307 
f 501/266/311 502/267/312 503/267/313 
f 503/267/313 504/266/314 501/266/311 
f 505/268/315 501/268/311 506/269/316 
f 506/269/316 507/269/317 505/268/315 
f 508/269/318 506/269/316 501/268/311 
f 501/268/311 504/268/314 508/269/318 
f 502/267/312 509/270/319 510/270/320 
f 510/270/320 503/267/313 502/267/312 
f 506/269/316 508/269/318 510/270/320 
f 510/270/320 509/270/319 506/269/316 
f 511/269/321 507/269/317 512/270/322 
f 512/270/322 513/270/323 511/269/321 
f 514/267/324 512/270/322 509/270/319 
f 509/270/319 502/267/312 514/267/324 
f 507/269/317 506/269/316 509/270/319 
f 509/270/319 512/270/322 507/269/317 
f 514/267/324 502/267/312 501/266/311 
f 501/266/311 505/266/315 514/267/324 
f 515/271/325 516/271/326 517/272/327 
f 517/272/327 518/272/328 515/271/325 
f 519/267/329 514/267/324 505/266/315 
f 505/266/315 520/266/330 519/267/329 
f 511/269/321 520/268/330 505/268/315 
f 505/268/315 507/269/317 511/269/321 
f 513/270/323 512/270/322 514/267/324 
f 514/267/324 519/267/329 513/270/323 
f 499/265/309 503/267/313 521/273/331 
f 521/273/331 522/274/332 499/265/309 
f 499/265/309 522/274/332 487/259/297 
f 487/259/297 500/264/310 499/265/309 
f 510/270/320 486/258/296 521/273/331 
f 521/273/331 503/267/313 510/270/320 
f 486/258/296 510/270/320 500/264/310 
f 500/264/310 487/259/297 486/258/296 
f 523/275/333 500/264/310 510/270/320 
f 510/270/320 491/261/301 523/275/333 
f 524/276/334 500/264/310 523/275/333 
f 523/275/333 525/277/335 524/276/334 
f 508/269/318 492/260/302 491/261/301 
f 491/261/301 510/270/320 508/269/318 
f 492/260/302 508/269/318 524/276/334 
f 524/276/334 525/277/335 492/260/302 
f 526/278/336 527/279/337 482/257/292 
f 482/257/292 499/265/309 526/278/336 
f 504/266/314 528/280/338 527/279/337 
f 527/279/337 526/278/336 504/266/314 
f 504/266/314 503/267/313 481/256/291 
f 481/256/291 528/280/338 504/266/314 
f 482/257/292 481/256/291 503/267/313 
f 503/267/313 499/265/309 482/257/292 
f 529/281/339 530/282/340 504/268/314 
f 504/268/314 526/283/336 529/281/339 
f 493/262/303 524/276/334 508/269/318 
f 508/269/318 494/263/304 493/262/303 
f 524/276/334 493/262/303 529/281/339 
f 529/281/339 526/283/336 524/276/334 
f 508/269/318 504/268/314 530/282/340 
f 530/282/340 494/263/304 508/269/318 
f 531/281/341 529/281/339 493/262/303 
f 493/262/303 496/262/306 531/281/341 
f 530/282/340 529/281/339 531/281/341 
f 531/281/341 532/282/342 530/282/340 
f 495/263/305 494/263/304 530/282/340 
f 530/282/340 532/282/342 495/263/305 
f 491/261/301 490/261/300 533/275/343 
f 533/275/343 523/275/333 491/261/301 
f 489/260/299 492/260/302 525/277/335 
f 525/277/335 534/277/344 489/260/299 
f 534/277/344 525/277/335 523/275/333 
f 523/275/333 533/275/343 534/277/344 
f 488/259/298 487/259/297 522/274/332 
f 522/274/332 535/274/345 488/259/298 
f 485/258/295 536/273/346 521/273/331 
f 521/273/331 486/258/296 485/258/295 
f 522/274/332 521/273/331 536/273/346 
f 536/273/346 535/274/345 522/274/332 
f 527/279/337 528/280/338 537/280/347 
f 537/280/347 538/279/348 527/279/337 
f 528/280/338 481/256/291 484/256/294 
f 484/256/294 537/280/347 528/280/338 
f 482/257/292 527/279/337 538/279/348 
f 538/279/348 483/257/293 482/257/292 
f 539/284/349 498/285/308 497/264/307 
f 497/264/307 540/276/350 539/284/349 
f 498/265/308 539/278/349 526/278/336 
f 526/278/336 499/265/309 498/265/308 
f 497/264/307 500/264/310 524/276/334 
f 524/276/334 540/276/350 497/264/307 
f 539/283/349 540/276/350 524/276/334 
f 524/276/334 526/283/336 539/283/349 
f 520/286/330 541/287/351 542/288/352 
f 542/288/352 519/289/329 520/286/330 
f 513/270/323 519/289/329 542/288/352 
f 542/288/352 517/272/327 513/270/323 
f 513/270/323 517/272/327 516/271/326 
f 516/271/326 511/269/321 513/270/323 
f 511/269/321 516/271/326 541/287/351 
f 541/287/351 520/286/330 511/269/321 
f 515/271/325 543/271/353 544/287/354 
f 544/287/354 545/287/355 515/271/325 
f 546/288/356 542/288/352 541/287/351 
f 541/287/351 545/287/355 546/288/356 
f 515/271/325 545/287/355 541/287/351 
f 541/287/351 516/271/326 515/271/325 
f 518/272/328 517/272/327 542/288/352 
f 542/288/352 546/288/356 518/272/328 
f 543/271/353 547/272/357 548/272/358 
f 548/272/358 549/271/359 543/271/353 
f 547/272/357 518/272/328 546/288/356 
f 546/288/356 550/288/360 547/272/357 
f 518/272/328 547/272/357 543/271/353 
f 543/271/353 515/271/325 518/272/328 
f 544/287/354 550/288/360 546/288/356 
f 546/288/356 545/287/355 544/287/354 
f 551/287/361 552/287/362 553/288/363 
f 553/288/363 554/288/364 551/287/361 
f 554/288/364 550/288/360 544/287/354 
f 544/287/354 551/287/361 554/288/364 
f 544/287/354 543/271/353 549/271/359 
f 549/271/359 551/287/361 544/287/354 
f 550/288/360 554/288/364 548/272/358 
f 548/272/358 547/272/357 550/288/360 
f 555/271/365 556/271/366 557/287/367 
f 557/287/367 552/287/362 555/271/365 
f 549/271/359 555/271/365 552/287/362 
f 552/287/362 551/287/361 549/271/359 
f 554/288/364 553/288/363 558/272/368 
f 558/272/368 548/272/358 554/288/364 
f 549/271/359 548/272/358 558/272/368 
f 558/272/368 555/271/365 549/271/359 
f 559/272/369 560/272/370 561/271/371 
f 561/271/371 556/271/366 559/272/369 
f 553/288/363 562/288/372 559/272/369 
f 559/272/369 558/272/368 553/288/363 
f 558/272/368 559/272/369 556/271/366 
f 556/271/366 555/271/365 558/272/368 
f 552/287/362 557/287/367 562/288/372 
f 562/288/372 553/288/363 552/287/362 
f 561/271/371 560/272/370 563/288/373 
f 563/288/373 564/287/374 561/271/371 
f 557/287/367 564/287/374 563/288/373 
f 563/288/373 562/288/372 557/287/367 
f 556/271/366 561/271/371 564/287/374 
f 564/287/374 557/287/367 556/271/366 
f 559/272/369 562/288/372 563/288/373 
f 563/288/373 560/272/370 559/272/369 
# 0 polygons - 156 triangles

#
# object Vidrio2
#

v  0.3496 5.5476 -0.4012
v  0.6285 7.5930 -0.6802
v  0.6285 7.5930 0.6429
v  0.3496 5.5476 0.3639
v  -0.6791 7.5918 -0.6782
v  -0.4006 5.5499 -0.3997
v  -0.4006 5.5499 0.3624
v  -0.6791 7.5918 0.6408
# 8 vertices

vn 0.9908 -0.1351 -0.0000
vn -0.9908 -0.1351 -0.0000
# 2 vertex normals

vt 0.3336 0.1815 0.0000
vt 0.2299 0.7883 0.0000
vt 0.7217 0.7883 0.0000
vt 0.6180 0.1815 0.0000
vt 0.2306 0.7879 0.0000
vt 0.3342 0.1822 0.0000
vt 0.6174 0.1822 0.0000
vt 0.7210 0.7879 0.0000
# 8 texture coords

o Vidrio2
g Vidrio2
usemtl 08___Default
s off
f 565/290/375 566/291/375 567/292/375 
f 567/292/375 568/293/375 565/290/375 
f 569/294/376 570/295/376 571/296/376 
f 571/296/376 572/297/376 569/294/376 
# 0 polygons - 4 triangles

#
# object Vidrio1
#

v  0.6443 7.5938 0.6427
v  -0.6801 7.5938 0.6427
v  -0.4010 5.5472 0.3636
v  0.3652 5.5472 0.3636
v  -0.3991 5.5501 -0.3980
v  -0.6776 7.5925 -0.6765
v  0.6419 7.5925 -0.6765
v  0.3633 5.5501 -0.3980
# 8 vertices

vn 0.0000 -0.1351 0.9908
vn -0.0000 -0.1351 -0.9908
vn 0.0000 -0.1351 -0.9908
# 3 vertex normals

vt 0.7609 0.8625 0.0000
vt 0.1255 0.8625 0.0000
vt 0.2594 0.1674 0.0000
vt 0.6270 0.1674 0.0000
vt 0.2603 0.1684 0.0000
vt 0.1267 0.8621 0.0000
vt 0.7597 0.8621 0.0000
vt 0.6261 0.1684 0.0000
# 8 texture coords

o Vidrio1
g Vidrio1
usemtl 08___Default
s off
f 573/298/377 574/299/377 575/300/377 
f 575/300/377 576/301/377 573/298/377 
f 577/302/378 578/303/379 579/304/379 
f 579/304/379 580/305/379 577/302/378 
# 0 polygons - 4 triangles

